<?xml version="1.0" encoding="UTF-8"?><svg id="Layer_1" xmlns="http://www.w3.org/2000/svg" viewBox="0 0 189.9 189.9"><defs><style>.cls-1,.cls-2,.cls-3,.cls-4,.cls-5,.cls-6,.cls-7,.cls-8,.cls-9,.cls-10,.cls-11,.cls-12,.cls-13,.cls-14,.cls-15,.cls-16,.cls-17,.cls-18,.cls-19,.cls-20,.cls-21,.cls-22,.cls-23,.cls-24,.cls-25,.cls-26,.cls-27,.cls-28{fill-rule:evenodd;}.cls-1,.cls-24{fill:#75a0dc;}.cls-2{fill:#7badef;}.cls-2,.cls-8,.cls-9,.cls-13,.cls-15,.cls-16,.cls-19,.cls-20,.cls-23,.cls-24,.cls-25,.cls-26,.cls-28{isolation:isolate;opacity:.5;}.cls-3{fill:#5fe2f4;}.cls-4{fill:#80b8ff;}.cls-5{fill:#6f93ef;}.cls-6{fill:#6b8bdc;}.cls-7{fill:#cdfdff;}.cls-8{fill:#78a7e6;}.cls-9{fill:#c6f1fd;}.cls-10{fill:#b0f7ff;}.cls-11{fill:#607bc2;}.cls-12{fill:#c0faff;}.cls-13{fill:#7fb0f7;}.cls-14{fill:#71d0ff;}.cls-15{fill:#76a2e0;}.cls-16{fill:#7fb4ff;}.cls-17{fill:#93f3fd;}.cls-18{fill:#79dae4;}.cls-19{fill:#b1e8f9;}.cls-20{fill:#7caef1;}.cls-21{fill:#6a8ada;}.cls-22{fill:#6c88d8;}.cls-23,.cls-27{fill:#7ebfff;}.cls-25{fill:#85c6ff;}.cls-26{fill:#ace4f6;}.cls-28{fill:#cdf3ff;}</style></defs><polygon class="cls-14" points="158.7 130 158.7 129.6 158.7 129.3 158.9 129.2 159.2 129.6 158.8 130.2 158.7 130"/><path class="cls-6" d="M155.1,127.5l.2-.2v-.4c-.1,0,0-.2,0-.2l-.2-.4h-.2l-.3.5v.3c.1,0,.2.5.2.5h.4l-.1-.1ZM155.3,128.4h.2l.2.3h-.4v-.2h-.1c0-.1.1-.1.1-.1ZM157.5,128.7l.2-.2-.2-.4-.2.2h-.3l.3.2.3.2h-.1Z"/><path class="cls-6" d="M181.6,112.4l.5-.2v-.2c-.1,0-.5-.2-.5-.2l-.2.3.2.3h0ZM162,122.7h.1v.2-.2h-.1ZM161.5,122.1l.2-.3h.3l.2.2h-.1l-.4.2h-.2v-.1Z"/><path class="cls-20" d="M116.1-59.6l.6.2.9,1.1v.7l-.5,1.5-.9,1.5-.4,1.1-.6.9-.6,1-.5.2-1,1v.6h0l.6-.4h.5l-.3.2.2.3v.4l-.5-.4v.3l.4.5h.5l.3.4h1l.4.5-.3.3-.6-.2h-.3v.5l-.6.4-.4-.3-.2.2v.4h-.4l-.2-.3h-.2v.3l.2.3v.5h0l.2.3h0v.2l-.3.4-.2.6-.2.2-.2,1.6,1,1.8v.4l-.3.3v.4l-.3.5h.4v1.5l.3.5v.2l.4.6.3.4v.6h.2l.4.2.5-.3.4.7.5-.2h.5l.4.8.6-.4.6-.2.2.3h.3l.9.3v.5c.1,0,0,.6,0,.6l.4.4v.7l.5.5.2.6.6.8.4.3.2.7.7.2.8.7v.4l.6.4-.2.2-.4.7-1.1.2-.5-.4-.2.3v.5l.5.7v.6l.4.6v.5h.9v-.5l.3-.3,1.1.4h1.1l.5-.3h.5l.3,1,.4.4-.2.5.6.8,1.2-.2.4.4v.5h.5v.6l.2.7,1,1,.4-.4.6.3h.5c0-.1.5,0,.5,0l.7-.6h.3l.5,1,.7.4.2.4.3-.3.8.2h.6l.4.3h.5l.6.3h.6c0,.1.3-.2.3-.2l.2.5.3.2v.6l-.3.5h-.4v1c-.1,0,.5.4.5.4v.6l-.2.8v.5l-.3.3h-1l-.5.8h-.3c0,.1-.1,1.1-.1,1.1h.4l.5-.2h.7v.4c-.1,0-1.2.6-1.2.6l-.5.3.2.2h.3l-.3.3h-.5c0-.1-.7,0-.7,0l.3.6.3.3.2-.2v.2h.6v.2h-.3l-.2.3h-.5v.3l-.5.5v.4l.2.2v.6h-.6l-.3-.2h-.5l.2.3-.3.2-.3.2h.7l.6.5v.3l.5.5h.8l.8.4.6.2,1.4,1,.3.5h.4c0,.1.1.4.1.4l.3.3h.3V.2c.1,0,.5.2.5.2h.2l.3.5h.4l.2.2h.2c0-.1.6.3.6.3v.3h.6l.5.7.3.3v.9c.1,0,.5.7.5.7v.2c-.1,0,0,.4,0,.4h.3v.5h.3l.2-.3.6.2h.3l.3-.3h.4l.9.9h1.1l1-.2h1.6v-.2l.8-.3,1.2.7h.8l.8.4v-.8c.1,0-.2-.4-.2-.4l-.6-.3.2-.8h.6l1,.9.3.5h1l.2-.3.6-.3.7-.9h0l-.2-.2-1.1-.9-.8-1v-.6c-.1,0-.5-.4-.5-.4V0l-.2-.3v-.2h-.3v-.4h.3v-.4c.1,0,.3-.4.3-.4h-.2l-.2.2-.5-.3v-.7h-.4l-.3-.5h-.7l-.2-.7v-.4c.1,0,.4-.2.4-.2v-.8l.2-.3v-.4c.1,0,.4-.2.4-.2v-.5l.3-.3v-.3h.2l.2.2h.2v-.3l.2.2.2-.2h.3l.3-.2v-.2h-.4.7l.2.2h.2v-.4l-.6-.4h1.2v-.3h-.2c0-.1.2-.2.2-.2v-.2l-.2-.2h.3v-.5h0l-.5-.4-.6.2-.8-.5v-.4h.9l-.9-1.5-1-.9-1.4-.4-.2.3-.7-.6v-.3c.1,0-.2-.6-.2-.6l-.9-.3.3-.7.2-1.3-.3-.3v-1c-.1,0,.3-.2.3-.2l.6-.7v-.5l.3-.4,1.1,1v.4c.1,0,.8.4.8.4h.7v-.7l.3-.2-.5-1.7h1.4v-.5l-.3-.4v-.5c.1,0,.8-.4.8-.4h.3l.2-.6.3-.2h.4c0,.1,0-.3,0-.3v-.4c-.1,0,0-.3,0-.3l.6.4.5.2v.3l-.3.4.2.2.4-.2v-.3c.1,0,.4-.2.4-.2v.4l.3-.3v-.3h.5l.4-.3h.4l.2.5.5.3.8-.2h.4l.2.4h.2l.4.6h.5l.3.5.6.5h.3l.2.3v.5h.3l.3-.4v-.5l.4-.2.3.4h.8c0,.1.2.5.2.5h.3c0,.1.5-.3.5-.3v-.8h.5v-.4h.4c0-.1.2.2.2.2l.2-.4h.5l.6.5v.2h.7v-.5h.3c0-.1.5-.1.5-.1l.2-.2.5.3.3.2v.3c-.1,0-.5.2-.5.2l.4.5h.4c0,.1.2,0,.2,0l.3.2h.6l.8.4h.5l.2-.5v-.4l.2-.2.7.4h.6l.7-.2.2-.4v-1.7c-.1,0-.3-.2-.3-.2h-.6l-.4-.4v-.2h-.6c0-.1-.3-.4-.3-.4h-.5v-.3l-.2-.3v-.2h.4v-.5l.4-.4v-.5h-.4v-.5l.4-.7.5-.5h1.3l.2-.2v-.4h-.4c0-.1-.3-.4-.3-.4h-.3l-.3.2-.4-.2h-.5v-.3l.2-.2h.6l-.2-.5h-.9l.2-.2-.2-.5h.2c0-.1.5-.2.5-.2l.2-.3h.3v.2h.6l.4.2.2-.2v-.3l.4-.2h.4l.2.4.2-.3v-.3l.8-.2h.5l.5-.3h.6v-.2c.1,0,.7-.4.7-.4h.5l.3-.2h.6l.2-.2v-.5l.2-.2h.5v-.3l.3-.2.2.2h.3l.4-.2h.1c-23.2-12.7-48.4-19.8-74.2-25.6l.7,1h0v.3l.1-.1Z"/><polygon class="cls-20" points="153.5 6.2 153.1 5.9 153.1 5.9 153.5 6.2"/><path class="cls-23" d="M223.6-8h.4c0-.1.3,0,.3,0h.3l.7-.2.9-.2h.4c-1.5-1-2.9-2-4.1-3.3-10.4-9.4-21.4-17-32.9-23.3h-.1l-.4.3h-.3l-.2-.3-.3.2v.3h-.5l-.2.2v.7h-.7l-.3.2h-.5l-.6.4v.2h-.7l-.5.3h-.5l-.7.3v.3l-.2.3-.2-.4h-.4l-.4.2v.3l-.2.2-.4-.3h-.5v-.2h-.4l-.2.2h-.5l-.2.2.2.5-.2.2h.4c0,.1.5,0,.5,0l.2.5h-.6l-.2.2v.3h.6l.4.2.3-.2h.3l.3.3h.4v.6l-.2.2h-.4c0-.1-.9,0-.9,0l-.5.5-.5.7v.5h.4v.5c.1,0-.2.4-.2.4v.5h-.5v.8h.5l.3.3h.5v.3l.4.3h.6l.2.2v1.7c.1,0,0,.4,0,.4l-.7.2h-.6l-.7-.5-.2.2v.4l-.2.5h-.5l-.8-.3h-.9c0-.1-.2-.1-.2-.1,0,.1-.4,0-.4,0l-.4-.5.3-.2v-.3c.1,0-.2-.2-.2-.2l-.5-.3-.2.3h-.8v.5h-.5v-.2c-.1,0-.7-.6-.7-.6h-.5l-.2.4-.2-.3h-.3v.5h-.4v.9l-.5.4h-.3c0-.1-.2-.5-.2-.5h-.8c0-.1-.3-.5-.3-.5l-.4.2v.5l-.2.4h-.2v-.6l-.2-.3h-.3l-.6-.5-.3-.5h-.5l-.4-.6h-.2l-.2-.4h-.4l-.8.2-.5-.3-.2-.6h-.4l-.4.3h-.4v.3l-.3.3v-.4l-.3.2v.3c-.1,0-.5.2-.5.2l-.2-.2.3-.4v-.3l-.4-.2-.6-.4v.3c-.1,0,0,.4,0,.4v.4h-.5c0-.1-.3.1-.3.1l-.2.6h-.3l-.6.4v.5c-.1,0,.2.4.2.4v.5h-1.4l.5,1.8-.3.2v.6h-.6l-.6-.4v-.4c-.1,0-1.3-1-1.3-1l-.3.4v.5l-.6.7-.4.2v1c.1,0,.4.3.4.3l-.2,1.3-.3.7.9.3.4.6v.3c-.1,0,.6.6.6.6l.2-.3,1.4.4,1,.9.9,1.5h-.8v.4l.7.5.6-.2.6.4h.1v.2h.4v-.2h.3v.2c.1,0,.3-.2.3-.2v-.2h.3l.4-.3.2-.3h.2l.2-.3h.3c0,.1.1,0,.1,0v-.3c.1,0,.4-.3.4-.3h.8c0,.1.3.1.3.1h.2c0-.1.1,0,.1,0v.3l.2.2h.1c0-.1.3-.1.3-.1v.2h.3c0,.1.2.1.2.1v-.3h.2v-.3h1.3v.2l.2.3h.3v.2l-.2.3v.2c.1,0,.4.3.4.3v.3l-.3.4v.2l.2.2h.1c0,.1-.2.3-.2.3h-.3v.6l.3.6h.4l.3.2v.2l-.5.2h-.3l-.4-.4h-1.1l-.4.2-.3-.2h-.4l-.5.3-.3.3v.5h-.2v.3l.4.5v.3h.5v.2c.1,0,0,0,0,0h-.6l-.2.2h-1.4l-.2.2v.2l.2.3h.3l.4.2.2.3.2.2.2.5h.2v.3c.1,0,.7.7.7.7V-.4h.6v-.2h.3l.2.5.2.2.2.4h.9l.3.2h.7v1l-.3.6v.5c.1,0,.2.6.2.6l1.3-1.2,1.1-.4,1.4.2,1.5.9,1.4,1.6.9-.2h.3l-1.7-10.3,5.7-1.1,3.4,2.4,1.3.5,1.8,1.1,3.2-.3h3.5l1.1.8.5,1.3.7-.2V1.5l1.6.2.9,2.5h.4l1-.5h1.3l1,.5.2.2.9-.8.4-.8.2-.3.3-.6.8-1,.4-.2.4-.6h.1V-.1l.5-.3-.2-.2.4-.4h.7l.4.3,1.6.2h2v-1.2c-.1,0-.1-.5-.1-.5h2l.4.3.9.2h1.2c0,.1.4,0,.4,0l.4-.3.5.2h.5l1-.3,1.1.3.6-.2h1.3l.9.4h.4l.9,1,1,.2.4-.2v-.6l.4-.3v-.2h.2c0-.1-.4-.5-.4-.5v-.4c.1,0,.4-.2.4-.2l-.2-.9-.5-.3v-.4l-.5-.7v-.4l-.3-.3v-.3l-.2-.6.3-.3v-.2h-1.1l-.4-.3v-.3l.4-.4h0l-.2.3v-.1Z"/><polygon class="cls-8" points="208.1 2.9 207.8 2.8 207.7 3.4 207.4 3.8 207 3.7 206.6 3.3 205.6 3 205.2 2.8 205.5 2.2 206.2 1.2 206.2 .7 205.8 .7 205.4 1.2 205 1.4 204.2 2.4 203.9 3 203.6 3.3 203.2 4.1 202.3 4.9 202.1 4.7 201.2 4.2 200.4 4.1 199.8 4.3 198.8 4.8 198.4 4.7 197.5 2.3 195.9 2.1 195.9 -1 195.1 -.7 194.6 -2 193.5 -2.9 189.9 -2.9 186.7 -2.5 184.9 -3.6 183.6 -4.1 180.2 -6.5 174.5 -5.4 176.3 4.8 177.2 4.7 178.2 4.9 178.4 4.4 178 4 177.8 3.2 178.3 2.3 179 2.2 179.3 1.7 179.8 1.4 180.3 1.7 180.6 1.6 180.2 1 181.2 1.1 182.7 1.8 183.9 2.6 184 3.1 185.7 3.9 186.9 4.6 187.3 4.4 187.7 4.4 188.6 5.1 189 6.4 189.4 6.7 189.6 7.2 190.1 8.1 190.8 8.5 192.2 9.4 193.7 10.4 195.3 11.1 196.7 12.1 197.9 12.3 198.2 12.6 198.5 12.5 199.3 13.1 199.3 13.7 199.4 14.6 200 14.5 200.5 14.7 200.7 15.1 201 15.1 201.4 14.8 201.7 14.8 201.9 15 202.1 13.7 202.5 12.6 202.7 12.4 202.7 11.8 202.2 11.6 202 11 202.2 10.6 202.1 10.1 201.5 10.1 201.1 10.3 200.6 9.5 200.6 8.8 201 8.5 201.9 8.6 202.3 8.5 202.4 8 203.2 7.7 203.1 7.4 202.9 7.2 203.9 7 204.6 6.7 204.6 6.3 203.9 5.9 203.9 5.4 204.5 5.2 205.1 4.8 205.5 4.8 206.2 4.1 206.7 4.6 206.8 4.9 207.9 4.7 208.6 4.8 209.2 4.1 209.1 3.7 208.1 2.9"/><polygon class="cls-20" points="199.3 13.1 198.5 12.5 198.2 12.6 197.9 12.3 196.7 12.1 195.3 11.1 193.7 10.4 192.2 9.4 190.8 8.5 190.1 8.1 189.6 7.2 189.4 6.7 189 6.4 188.6 5.1 187.7 4.4 187.3 4.4 186.9 4.6 185.7 3.9 184 3.1 183.9 2.6 182.7 1.8 181.2 1.1 180.2 1 180.6 1.6 180.3 1.7 179.8 1.4 179.3 1.7 179 2.2 178.3 2.3 177.8 3.2 178 4 178.4 4.4 178.2 4.9 177.2 4.7 175.9 4.8 175.1 5 173.7 3.4 172.2 2.5 170.8 2.3 169.7 2.7 168.4 3.9 168.4 4.1 168.7 4.4 168.9 4.7 169.2 5 169.3 5.4 169.8 6.1 169.7 6.7 169.4 7.2 169.6 8.3 169.8 8.6 169.9 8.9 170.7 9.6 170.6 9.3 170.4 9.1 170.5 8.9 171.1 9 171.4 8.8 171.6 9 171.5 9.4 171.6 9.9 171.9 9.8 172.2 10.1 172 10.3 171.7 10.2 171.4 10.3 171.2 10.1 170.8 10.4 170.9 10.8 171.1 11.2 171 10.7 171.3 10.6 171.5 10.7 171.8 10.8 172 11.2 172.6 11.5 172.8 11.9 172.7 12.5 172.8 12.9 172.8 14 173 14.7 173.4 15.8 173.8 15.6 174.9 15.5 175 14.9 175.3 14.6 175.7 14.5 176.6 13.8 177.5 13.6 178.3 13.8 178.5 13.3 178.9 13.1 179.3 13.3 179.8 13.3 180.6 13.9 181.2 14.1 182.5 14.9 182.8 14.9 183.2 14.7 184 15 184.5 15.1 184.6 15.7 184.8 15.9 185.3 15.8 186.1 16 186.9 17.2 187.9 17.2 188.4 17.5 188.8 18.1 188.6 18.4 188.8 18.9 188.8 19.3 189 19.6 189.2 19.5 189.7 19.6 190 19.9 190.4 19.9 190.6 19.6 191 19.6 191.5 20 191.6 20.3 191.8 20.5 192 20.3 192.6 20.2 192.9 19.8 193 19.5 193.3 19.3 193.2 19 193.9 18.6 194.7 18.5 194.8 18.2 195.1 18 195.4 17.9 195.6 17.3 195.6 16.8 196.1 16.3 196.1 15.8 195.9 15.6 195.9 15.4 196.1 15.3 196.4 15.1 196.9 15 197.1 15 197.7 14.5 198.2 14.3 198.7 14.6 199.2 14.5 199.3 14.7 199.4 14.6 199.3 13.7 199.3 13.1"/><polygon class="cls-24" points="212.8 14.4 213.8 13.8 214.4 13.7 214.5 14.1 215.3 14 215.6 13.7 216.5 13.7 216.6 14 216 14.6 216.3 14.7 215.9 15.4 214.9 15.8 212.8 16.3 212.3 16 211.6 16.4 211 16.8 210.4 16.8 210.1 17.4 209.7 17.8 210.6 19.1 210.7 20.1 209.7 21.4 210.2 21.9 210.2 22.5 209.6 23.3 208.8 23.3 208.1 23 207.5 23.4 207.8 23.9 208.2 24.2 208.5 24.7 208.4 25.1 207.9 25.4 207.4 25.4 207.2 25.8 207.2 26.5 207 27 207 27.3 206.8 27.5 207 28.4 206.5 29.1 206.1 28.6 205.9 28.6 205.9 28.9 205.3 28.9 205.1 28.7 204.6 28.7 204.4 29 203.6 29.6 204 29.8 203.7 30.1 202.9 30.4 202.7 30.3 202.2 30.4 202 30.7 201.9 31 201.5 31.2 201.2 31.5 201.3 32.1 201.4 32.8 201.4 33.3 201.6 33.7 201.5 34.1 200.6 34.4 199.9 34.4 199.2 34.5 198 34.6 197.3 34.8 197 35 196.3 35 195.6 35.2 193.1 35.2 190.2 34.4 191.8 32.2 191.9 31.9 191.7 31.1 191.8 30.5 191.4 29.7 189.6 29.7 189.5 28.9 189.3 28.5 189.4 28.2 189.1 27.2 188.6 26.1 188.7 25.6 189.3 24.7 189.2 24.7 188.4 24.6 188.4 24.1 188.3 23.4 188.2 23.3 188.6 22.7 188.2 22.4 188 22.1 188.5 22 189 21.6 189 21.4 189.1 21.2 188.9 20.9 189 20.5 189 20.3 189 19.6 189 19.6 189.2 19.5 189.7 19.6 190 19.9 190.4 19.9 190.6 19.6 191 19.6 191.5 20 191.6 20.3 191.8 20.5 192 20.3 192.6 20.2 192.9 19.8 193 19.5 193.3 19.3 193.2 19 193.9 18.6 194.7 18.5 194.8 18.2 195.1 18 195.4 17.9 195.6 17.3 195.6 16.8 196.1 16.3 196.1 15.8 195.9 15.6 195.9 15.4 196.1 15.3 196.4 15.1 196.9 15 197.1 15 197.7 14.5 198.2 14.3 198.7 14.6 199.2 14.5 199.3 14.7 200 14.5 200.5 14.7 200.7 15.1 201 15.1 201.4 14.8 201.7 14.8 202.2 15.4 202.5 15.5 203.3 15.4 203.7 15.1 203.9 14.8 204.2 14.7 204.4 14.5 204.7 14.7 204.9 15 205.6 15 205.6 14.7 205.4 14.5 205.5 14.2 205.9 14.1 206.1 13.8 206.3 13.8 206.4 14.1 206.8 14 207.1 13.6 207 13 207.2 12.7 207.5 12.4 207.6 11.8 207.8 11.4 208.3 11.4 208.7 11.7 209 11.9 209 12.2 208.9 12.7 209.1 13.1 209.4 13.1 209.6 13.5 209.6 14.1 209.6 14.5 209.6 15.3 210 15.8 210 16.1 210.4 16.2 210.9 16.2 211.3 15.9 211.4 15.7 212.1 15.4 212.4 15.1 212.5 14.7 212.8 14.4"/><polygon class="cls-19" points="121 -4.4 120.7 -4.6 120 -4.6 119.7 -4.3 118.9 -4.3 118.3 -4.5 117.9 -5.1 117.6 -5.7 117.7 -7.7 117.4 -8.4 117.2 -8.9 116 -9.8 116 -10.3 115.1 -11.1 114.8 -12 113.5 -11.8 113 -11.5 111.6 -11.2 111.2 -10.8 110.7 -10.8 110.1 -10.6 109.6 -10.8 109.4 -11.1 108.8 -11.4 108.2 -11.4 107.5 -11.8 107 -11.8 106.8 -11.6 106.3 -11.6 106.4 -11.4 106.2 -10.9 105.7 -10.9 105.2 -10 104.8 -8.7 104 -7.6 104 -7.1 103.6 -6.8 103 -6.8 102.9 -6.4 102.5 -6.3 102 -5.9 102.5 -5.8 102.6 -5.5 103.3 -4.7 103.4 -4.3 104 -4 104.5 -3.6 104.3 -3 104.4 -2.8 105.1 -2.6 105.3 -2.2 105.7 -2.4 106.1 -2.1 106.4 -2.6 107.2 -2.4 106.8 -2 106.9 -1.7 107 -1.2 107.6 -1.2 107.9 -.9 107.8 -.6 107.7 -.4 107.9 0 108.5 -.3 109 -.3 109.3 0 109.5 -.1 110.2 .2 110.8 -.1 111.3 0 111.6 -.2 112 0 112.4 0 113.2 0 113.5 -.1 114 -.3 114.2 -.6 115.5 -1.2 116 -1.3 116.7 -1.2 117.4 -.9 117.6 -.7 118 -.8 118.6 -.6 118.7 -.3 119.2 -.3 119.1 -.8 119.3 -1.2 119.3 -1.9 119.2 -2.2 119.4 -2.5 119.5 -2.9 120.3 -3 120.7 -3.1 121 -3.6 121 -3.9 120.8 -4.1 121 -4.4"/><polygon class="cls-13" points="118.7 -.3 118.6 -.6 118 -.8 117.6 -.7 117.4 -.9 116.7 -1.2 116 -1.3 115.5 -1.2 114.2 -.6 114 -.3 113.5 -.1 113.2 0 112.4 0 112 0 111.6 -.2 111.3 0 110.8 -.1 110.2 .2 109.5 -.1 109.3 0 109 -.3 108.5 -.3 107.9 0 107.7 -.4 107.8 -.6 107.9 -.9 107.6 -1.2 107 -1.2 107.1 -.8 106.8 -.5 107 .4 107.6 1 107.9 1.6 107.8 2 107 2.7 107.1 3.1 107.4 3.5 107.2 3.9 107.2 3.9 108 4.6 108.6 5.6 108.7 6.1 108.8 6.5 108.8 6.5 109 6.6 109.7 6.6 110.3 6.5 110.6 6.1 111.2 6.2 111.7 6.2 111.8 6.6 112.2 6.6 112.5 6.4 112.9 6.4 113.3 6.6 113.7 6.4 114.6 6.5 114.9 6.2 114.7 5.8 114.7 5.4 115.3 5 115.5 5 115.5 4.9 115.9 4.6 116.2 4.5 116.5 4.3 117.1 4.3 117.7 4.7 118 4.5 118.5 4.6 118.5 4.6 118.1 4 117.7 3.4 117.3 3.4 117.3 3.1 117.9 2.7 118 2.3 117.9 1.3 118.5 .8 118.9 .9 119.2 .6 119.2 -.2 119.2 -.3 118.7 -.3"/><polygon class="cls-15" points="107.2 3.9 108 4.6 108.6 5.6 108.7 6.1 108.8 6.5 108.5 6.8 108.1 6.8 107.6 7.1 106.6 7 106.1 7.3 106.1 7.5 105.5 7.7 104.6 8.2 104.6 8.3 104.2 7.9 103.9 7.4 103.6 6.8 103.4 6 103.5 5.3 103.6 5.4 103.7 5.2 103.7 4.8 104.2 4.6 104.7 4.4 105 4.2 105.9 4 106.3 4 106.9 3.9 107.2 3.9"/><polygon class="cls-2" points="103.5 5.3 103.4 6 103.6 6.8 103.9 7.4 104.2 7.9 104.6 8.3 104.5 8.8 104.2 9.4 103.3 9.7 103.3 10.2 103 10.9 102.7 11 102.4 10.7 102 9.7 101.2 9.7 101 9.4 101.1 8.9 100.9 8.6 100.9 8 101.1 7.6 100.8 6.9 101 5.9 101.2 5.9 101.3 5.5 100.6 5.2 100.7 4.4 101 3.8 101.4 3.3 101.6 3.3 101.8 3.7 102.2 3.2 102.2 3.2 102.4 3.3 102.7 3.8 102.9 3.8 103.3 4.1 103.4 4.4 103.4 5.1 103.5 5.3"/><polygon class="cls-20" points="107 .4 106.8 -.5 107.1 -.8 106.9 -1.7 106.8 -2 107.2 -2.4 106.4 -2.6 106.1 -2.1 105.7 -2.4 105.3 -2.2 105.1 -2.6 104.4 -2.8 104.3 -3 104.5 -3.6 104 -4 103.4 -4.3 103.3 -4.7 102.6 -5.5 102.5 -5.8 101.7 -6 101.3 -6.1 101 -6.2 100.5 -5.8 100.3 -5.6 100 -5.6 99.5 -5.4 99.2 -5 99.2 -5 99.5 -4.4 99.6 -3.8 99.8 -3.6 100.2 -3.5 100.2 -3.4 100 -3.4 99.6 -3.2 99.7 -2.9 99.8 -2.7 100 -2.9 100.2 -2.9 100.2 -2.3 99.7 -1.6 99.7 -1.3 100.4 -.9 100.7 -.8 100.9 -.6 100.8 -.3 100.4 -.5 100.2 -.4 100.2 0 100.7 .6 100.6 .8 101 1.2 101 1.6 101.2 1.8 101.7 1.8 102 2.1 102.6 2.2 102.6 2.7 102.3 3 102.2 3.2 102.4 3.3 102.7 3.8 102.9 3.8 103.3 4.1 103.4 4.4 103.4 5.1 103.6 5.4 103.7 5.2 103.7 4.8 104.2 4.6 104.7 4.4 105 4.2 105.9 4 106.3 4 106.9 3.9 107.2 3.9 107.4 3.5 107.1 3.1 107 2.7 107.8 2 107.9 1.6 107.6 1 107 .4"/><polygon class="cls-13" points="100.6 5.2 100.7 4.4 101 3.8 101.4 3.3 101.6 3.3 101.8 3.7 102.2 3.2 102.3 3 102.6 2.7 102.6 2.2 102 2.1 101.7 1.8 101.2 1.8 101 1.6 101 1.2 100.6 .8 100.5 .8 100.2 .7 99.7 .4 99.5 .6 99.5 .9 99.9 1.2 100 1.5 99.7 1.6 99.4 1.7 99.2 2.1 99.2 2.7 98.9 3.1 98.7 3.3 98.9 3.5 99.3 3.6 100.1 4.6 100.2 5 100.6 5.2"/><path class="cls-16" d="M99.7-2.9v-.3l.4-.2h.2v-.2h-.4l-.2-.3v-.6l-.4-.6-.3-.2-.3.4-.8-.3-1.1-.2-.3-.3-.4-.2-.9-.8h-1.3l-1.3.7v.6l-.8.3v.8h-.6l-.8-.4h-.4l-.6.5h-.8v.9l.6.5v.4l.6-.8v-.5l.4-.4h.5v.4l.5.3v.6l.4.6.7.6h.2l.4.4h-.3c0-.1-.4,0-.4,0l-.2.4.2.4h.5l.5.5.5.2.2.4.2.3h.5c0-.1.9,0,.9,0l.5.3,1,1.1h-.3l-.5-.2.3.3h.4l.2-.3-1.5-1.7-1.7-1.5v-.2h0c0-.1-.3-.5-.3-.5v-.4l-.5-.5h-.3v-.3l.2-.2v-.6l.2-.2.5.4.2.3h.3v-.3h.7l.2-.2.3.2.2-.2h.3l.2.4.3-.2.5.2h1.5l.4.3h.8l.1.1ZM95.2,2.2h.7l.3.2h-.7l-.4-.2h.1ZM94.7,1.8h1.1l-.4.2-.7-.2h0ZM94.7,1.3h1c0,.1-.4.3-.4.3h-.4l-.2-.3h0ZM91.6-1.5h.2l.3.4h-.2c0,.1-.4-.4-.4-.4h.1ZM91.3-2.1l.4.4h-.4v-.4h0ZM91.4-.8l.4.4V0l-.4-.7h0v-.1ZM90.9-1.5h.3v.5l-.4-.5h.1ZM90.1-2.6l.5.4.2.6h-.2l-.4-.4h0l-.3-.6h.2ZM90.4-3.5l.6.9h-.8v-.7s.2-.2.2-.1v-.1Z"/><polygon class="cls-8" points="97 2.6 97.1 2.2 95.6 .5 93.9 -1 93.8 -1.3 94 -1.4 93.7 -1.8 93.6 -2.1 93.2 -2.6 92.9 -2.6 92.9 -2.9 93 -3.1 93 -3.7 93.2 -3.9 93.7 -3.5 93.9 -3.2 94.2 -3.2 94.2 -3.5 94.6 -3.6 94.8 -3.6 95 -3.8 95.4 -3.6 95.6 -3.8 95.9 -3.7 96.1 -3.3 96.4 -3.5 96.9 -3.4 97.2 -3.5 97.3 -3.4 97.8 -3.4 98.3 -3.3 98.6 -3.3 99 -3 99.6 -2.9 99.8 -2.7 100 -2.9 100.2 -2.9 100.2 -2.3 99.7 -1.6 99.7 -1.3 100.4 -.9 100.7 -.8 100.9 -.6 100.8 -.3 100.4 -.5 100.2 -.4 100.2 0 100.7 .6 100.5 .8 100.2 .7 99.7 .4 99.5 .6 99.5 .9 99.9 1.2 100 1.5 99.7 1.6 99.4 1.7 99.2 2.1 99.2 2.7 98.9 3.1 98.7 3.3 98.3 2.6 98 2.8 97.2 2.6 97 2.6 97 2.6"/><path class="cls-13" d="M75.4-5.4v-.4l-.3-.2-.2-.5-.2-.4h-.6l-.3.2.2.5-.5.2h-.5v-.4h.5v-1.1l.6-.9h.3c0-.1.4-.7.4-.7l.4-.2v-.4l-.5-.2.3-.3h.5v.2h.5l.7-.2-.2-.4-.4-.2v-.6l.2-.7.3-.3v-.3l.2-.6.5-.5-.4-.3h-.4l-.5-.2h-.4c0,.1-.3,0-.3,0h-.7c0,.1-.4-.2-.4-.2v-.3l-.4-.3h-.8l-.2-.4h-.5c0,.1-.4-.2-.4-.2h-.4l-.5-.6h-.3l-.2-.3h-.3l-.2.2-.4-.2v-.6h-.3c0-.1-.3-.3-.3-.3h-.3l-.6-.5v-.4l-.6-.2v-.7l-.3-.2h0c0,.1-.8.4-.8.4h-.2c0-.1-.6.2-.6.2l-.2.4v1.3l-.6.6v.3l-.7.2h-.8c0-.1-.8.3-.8.3l-.2.4.2.3h.4c0,.1-.5.5-.5.5h-.6c0,.1-.8,0-.8,0l-.4-.2-.3.2v-.3l-.4-.2v-.3l-.2-.2h-.4c0,.1-.5.1-.5.1h-.2c0-.1.2.4.2.4v.2l.6.7v.8l.2.3v.4h-.7c0-.1-.3-.1-.3-.1,0,.1-.3,0-.3,0h-.4c0,.1-.2,0-.2,0l-.5.4-.6-.8h-.3c0-.1-.5,0-.5,0l-.4.4h-.2c0-.1-.2.1-.2.1h-.2c0-.1-.4,0-.4,0l-.3.3h-.7l-.3.4.2.3h.4c0-.1.4,0,.4,0h0c0,.1-.4,0-.4,0h-.2l.2.4v-.3l.4.1v.3h-.2c0,.1-.4.1-.4.1v.3h.4l.2.5v.3l.4-.3h.6l.7.3.2.2h.3l.5.3.3-.3h.2v.3h0c0,.1.4,0,.4,0l.2.2-.2.4.2.3h.3l.4-.2h.4l.3.4-.3-.2h-.4l-.2.4h.2v.5l-.2.4v.3h.4l.5.7h.5l.5.4v.4l.2.3-.2.4h0v.4h.4l.7.6.5,1.2-.6-.5-.2-.5-.4-.2-.2.2-.2,1.1v.8l.4.2-.3.2V-.4l-.5,1.3-.5.3.4.2h0c0,.1.3.2.3.2v.7h.6l.8.3.4.4.4-.2.5.5h.9l.4-.3h1l.4.2h.6l.6.3h1l.7.3h.3l-.2-.7.2-.7v-.4l.5-.4.8-.8h.2l.2.2h.5l.5.4h.4l.3-.3h.3l1.3.8.4.3h1l.4-.3v-.2l.3-.5,1.3-1h0l-.2-.5.3-.7h-.7l-.7-.5v-1.1l-.6-.6.3-.3h.5v-.8l-.3-.4v-.7h-.5.2ZM79.9,6.5l-.7-.3v-.4h.2v-.2h-.3v-.3l-.3-.2v-.2h0v-.2l-.3-.2v-.3h.2v-.2l-.2-.2.3-.5.7-.2.3-.3.3.3h.2v-1.1h.3v1.1l.2.9-.3,1v.6l-.2.7-.4.2h0Z"/><polygon class="cls-26" points="91.2 20.6 91.2 21 91.6 21.3 91.9 21.1 91.8 20.7 91.2 20.6"/><path class="cls-23" d="M76.5,0l-.2-.5.3-.7h-.7l-.7-.5v-1.1l-.6-.6.3-.3h.5v-.8l-.3-.4v-.7l.6.2.8-.6.6.2.8-1.3.5.3v.5l.6.3.2.4.4-.8v-.6l.9.2h.4l.4.3v-.8l.9-.2-.2-.7.4-.5.7.3,1.1-.6h.5c0,.1.8,0,.8,0v.4l1,.6,1.3.2h.7l.3.2-.5.7.2.3-.3.4v.7h-.7l-.3.3h-.5l-.4.4h-.5l-.2.4.2.5.3.4-.3.5-.2.2.2.5v.6l.3.3.9.5.5.3L87.8,0l1.4,1.4v.4h.2v.4l.3.4.4.4.3.5.6.5.3.3h.4l.3.2h1.6l.4.2v.3l-.6.4v.2l.2.3h.4l.8.2,1.7.9.7.5.4.4.7.2.4.2.2.3v.6l-.2.3v.4h0c0,.1-.4,0-.4,0l-.3-.4-.2-.4v-.3h-.2c0-.1-.7-.1-.7-.1v-.2l-.6-.2h-.3l-.2.2-.2.5-.2.3v.6l-.3.2v.3l.2.2h.3l.6.6v1.3h-.4c0,.1-.4.5-.4.5v1l-.6.5v.5l-.4.4h-.6l-.5-.4v-.5h.3c0-.1.2-.4.2-.4v-.8h.3l.2-.3v-.4l-.2-.4-.2-.8-.2-.3v-.6l-.3-.7-.3-.2h-.2c0,.1-.6,0-.6,0l-.2-.4h-.4l-.2-.2v-.2l.2-.4-.3-.4h-.8v-.3h-.8l-.4-.8h-.4l-.4-.2-.3.3h-.4v-.4l-.4-.2h-.4l-.8-.7-.9-1.1h-.3v-.4l-.4-.5h-.6v-.4l-.6-.5-.3-.4-.5-.2v-.6l-.3-.2v-.4l-.4-.6L81.8,0v-.2l-.3-.3-.6-.2-.4-.3-1.4-.4-1.1.6v.4l-.4.5-1,.2h0V0h-.1ZM78.1,7.4h0v-.2l.2-.2-.2-.2v.2h-.2v.3h0l.2.1ZM83.6,3.9h.2-.2ZM81.9,2.6l-.2.2h.9v-.2l-.2-.2h0l-.5.3h0v-.1ZM79.2,13.2h.2c0-.1.2,0,.2,0h.3v-.9h.5l.3.3h.2l.2-.3v-1.9l.2-.8-.6-.5.5-.3v-.8l-.3-.3-.3-.6-.2.2-.4-.3h-.3l-.8,1h-.3l-.5-.3v.8l.3.3v.3l.4.2v.5l-.3.3v.3h.5v.2l-.3.3-.2.8.2.3.2.9.3.3h0ZM92.8,18.8v-.5l.2-.3v-.5l-.4-.5.4-1,.4-.4v-.6l-.2-.4-.5.5h-.2l-.5-.3-.4.5h-1l-.8.2h-.6c0-.1-.4-.4-.4-.4h-.5l-.3.3-.2-.2-.5.2v.7l.4.4h.5l.8.5h.4c0,.1.4.6.4.6l1,.4h.2c0-.1.4.2.4.2v.3l1.1.4h.4-.1v-.1Z"/><path class="cls-2" d="M58.7,1.1l.4.2h0c0,.1.3.2.3.2v.8h.6l.8.3.4.4.4-.2.5.5h.9l.4-.3h1l.4.2h.6l.6.3h1l.7.3h.3v.3l-.3.2v1.2l-.2.4-.8.5s-.3.4-.4.5l-.7.3h-.8l-.5.3-.5.3.2.2v.5l-.4.2h0c0-.1-.2-.1-.2-.1l-.6,1-.4.2-.8,1.4-.2.3.4.6v.4l.4.2.5.7-.5.5-.7.2v.5l-.7,1v.8l-.2.3h-.7l-1.3.7v.4l-.5.8-.5-.2-.4-.4-.2.4-.3.3-.4-.3h-.4l-.2.2h-.6l-.9-.3-.4.2h-.8c0,.1-.7.8-.7.8h-.8c0,.1-.3.4-.3.4v.4l-.7.3h-.7c0-.1-.7-.8-.7-.8l-.4-1h0c0-.1-.9-1-.9-1h-.6l-.3-.2v-.5l-.3-.5.5-.9.5-.4v-.4h-.4l-.3-.6.7-.7v-.9l-.5-.3-.6-1.1h.5c0-.1.4,0,.4,0l.6-.8-.4-.4.5-.5v-2l.8-.8h.3v-.4l-.3-.6v-.5h-1.1l-.4.3-1.2-.2-.7.4-.2-.3v-.5h-.3l-1,.2h0l.5-.6h-.4l.2-.3-.2-.2v-.5l-.2.3h-.2v-.7h-.1v-.3h-.3l-.2-.4.2-.5.8-.3h.3c0,.1.7,0,.7,0l.3-.2-.3-.2v-.3l.7-.4v.2l.4-.2h.5l.5.7.4-.3h.4l.5.2.5-.2.7-.2.2.2.5.3,1.5.2.7.2,1-.4h.8l.2.4h.8c0,.1.4-.2.4-.2h.4l1.1.7.2-.3h.5c0-.1.7-.6.7-.6ZM69.1,10.6h.7l.3.2v-.2l-.3-.4h-.6v.4h-.1ZM67.8,12l.2-.6.5-.4h-.9c0-.1-.4.2-.4.2v.4h.3c0,.1.3.4.3.4h0ZM65.2,13.4l.2-.3.2-.2-.2-.3-.6.2v.4l.2.3h.2v-.1Z"/><polygon class="cls-19" points="47.3 17.2 47.2 16.7 46.9 16.2 47.4 15.3 48 14.9 48 14.5 47.5 14.4 47.2 13.8 47.9 13.1 47.9 12.3 47.4 12 46.8 10.9 47.4 10.8 47.7 10.8 48.3 10.1 47.9 9.7 48.4 9.2 48.4 7.9 48.3 7.3 49.2 6.5 49.5 6.5 49.6 6.1 49.2 5.5 49.1 4.9 48.1 4.8 47.7 5.2 46.5 5 45.8 5.3 45.6 5 45.6 4.6 45.3 4.5 44.3 4.6 44.4 5.1 44.7 5.8 44.6 7.1 44.6 7.4 44.5 8 44.8 8.3 44.6 8.6 44.3 9.2 44.3 9.9 43.8 10.6 43.8 11 43.2 11.8 42.9 13.1 42.9 13.4 43.4 13.4 43.6 13.1 44 12.8 44 13.1 44.1 13.3 43.4 13.6 43.4 14 43.6 14.3 43.9 14 44.5 14 44.2 14.3 44.4 14.8 44.2 15.3 44.2 16.5 44 17.3 43.8 17.5 44 17.7 44.6 17.2 45.5 17.6 45.9 17.8 46.6 17.5 47.1 17.4 47.2 17.2 47.3 17.2"/><path class="cls-8" d="M115.5,5h-.3l-.5.4v.9l-.2.2h-2.1l-.3.2h-.4v-.4h-1.1l-.4.4h-2.1l-.5.3h-1.1l-.4.2v.2l-.6.2-.8.5v.6l-.4.6-.8.3v.5l-.3.6h-.3v.8l.8.6.4.6h.2v.2l.6.9.2.6h.3c0,.1.4-.3.4-.3l.3.4h.5l.2-.3h.4l.6.4.3-.2v.3h.3l.2.2h.5l-.3.3-.3.3-.3-.2h-.4c0-.1-.8-.7-.8-.7h-.4c0,.1-.4.3-.4.3l-.4-.2-.3.4h-.2l-.2.4.5.5.5.2.4.4v.9l.4.5.3.3v-.5l.2-.4.2.5.6.2v.7l.2.3v-.6l.2-.5h.4l.2.4.6.4-.3-.4v-.3l-.2-.4-.3-.7-.3-.4v-.2h.3l.5.2-.2.2.2.2.2-.3.5.2v-.2h-.2v-.3h-.2l-.4-.2v-.2l-.4-.3.4-.2h.4l.2-.2.6.4v.2h.5v-.2l-.2-.5v-.8l-1-.6h-.3l-.2-.3h-.3l-.2-.2h-.4l-.4-.4h.5l.3-.4v-.2h-.4c0-.1.2-.4.2-.4v-.2h.3c0,.1.3.3.3.3v.4h.2l.2-.6-.3-.3-.7-.8-.3-.2v-.3l-.6-.4.2-.2v-.9l.2-.4h.5c0-.1,0,.3,0,.3h-.2v.2l.7.3v.5l.5.3h.5l-.3-.2-.2-.3v-.3h.5c0,.1.3.6.3.6h.3c0,.1.2-.2.2-.2l-.3-.2h-.3v-.3h.8l.3.3h0c0-.1-.5-.6-.5-.6h-.5l-.4-.5.2-.3h.4c0,.1.3,0,.3,0l.2-.6h.3l.5.2h.4l.4-.4v-.2h.2l.3.3h.9l.7.2h.5l.2-.6v-.5l.5-.3v-.5l-.4-.2v-.6h0l-.2.2v.1ZM110.7,21.6v-.3l-.2.3v.6h.3c0,.1.7,0,.7,0h1c0,.1.5.4.5.4v.3h.6l.4-.3h1.8l.3-.2v-.8.4l-.3.2-.2-.2h-.4v-.5h-.8l-.5-.3h-.6l-.5.3h-.4c0,.1-.3,0-.3,0l-.2-.2h-.3.2c0-.1-.2-.4-.2-.4h-.3v.2h0c0,.1-.3.1-.3.1v-.3h0v.3h0v.4h-.3ZM102.1,10.8v.4l.2.3h.3v.2h-.3l-.4-.4h0c0-.1-.2-.2-.2-.2v-.2h.3c0-.1.2-.1.2-.1h0c0,.1,0,0,0,0h-.1ZM103.8,13.9h0c0-.1.2-.5.2-.5h.2v.5h-.4,0ZM103.8,14.6v-.5l.2.2v.5l.2.2v.2h0v.3l-.4-.1h-.3v-.3h0c0-.1,0,.1,0,.1h0c0,.1-.2,0-.2,0v-.4h.5v-.2ZM104.6,16.1l.2.2h-.5l-.3-.4v-.2h.5c0,.1.2.4.2.4h-.1ZM118,20.8h0v-.3.2h0v.1ZM117.9,21.9v-.4l-.2-.3.2-.3v.3l.2.3-.2.4h0ZM119,20.6h-.1c0-.1.1-.4.1-.4h0v-.3l.5-.4.5-.2h.3c0-.1,0,0,0,0h-.1v.6c-.1,0-.1.1-.1.1h-.2l-.2.2-.2.2h-.2l-.3.2h0ZM116.1,19.2h-.2v-.3h.3c0-.1.2,0,.2,0v.2l-.4.1h.1ZM116.1,16.1l.4-.3h.2l.3.2h0v.2h-.2c0,.2-.2.2-.2.2l-.2-.2h-.4v-.2h0l.1.1ZM115.4,13.9v.9h-.3c0,.1-.2,0-.2,0v-.2h.2v-.4l-.3-.2h0c0-.1.2-.3.2-.3h.3v.2h.1ZM114.8,12.6l-.3-.3.2-.3.5-.2h.2c0-.1.4-.2.4-.2h0v.3h0v.7h-.7v-.3l.3-.1v-.3h-.3v.3l-.2.3h-.3.2v.1ZM113.7,8.7h0c0-.1.3-.2.3-.2h.3v.3h-.6v-.1ZM112.8,9.8h.5c0,.1.2,0,.2,0h.2c0,.1-.3.4-.3.4v.4h-.3c0-.1-.2-.1-.2-.1h-.2v-.6h.1v-.1ZM111.7,8h.5v.2h-.2v.1h-.2v-.4h-.1v.1ZM109.8,12.3h.3v.3h0c0,.1-.4-.4-.4-.4h.1v.1ZM109.4,12.3h.2c0-.1,0,0,0,0v.2l-.3-.2h.1ZM111.8,12.8h.4c0,.1.2.1.2.1v.4h0v-.2h-.2l-.2-.4h0l-.2.1ZM115.3,16.9v-.4h.4c0,.1-.3.4-.3.4h-.1ZM111.8,19.1l.2-.3h.3v.2h-.5v.1ZM112,17.7h.2c0-.1,0,.1,0,.1h-.2v-.1ZM111.9,17.3v-.4h.2v.2h-.2v.2ZM111.7,16.8h0v-.3l.2.2h-.3l.1.1ZM113.6,18.1l-.2-.2v-.3h.3v.5h-.1ZM114.1,18l-.2-.2.3-.3h.2v.3l-.2.2h-.2.1ZM114,17.1v-.2h.2l-.2.2h0ZM113.4,16.5h.4v.3h-.2c0-.1-.2-.3-.2-.3h0ZM112.4,15.7h.2l.2.2.4.3v.2h-.2l-.5-.5-.2-.2v-.2h0v.2h.1ZM108.4,13.1l.3-.3h.5l.3.3h.4c0,.1.4.3.4.3h.3c0,.1.5.5.5.5l.2.3v.7l.3.3h.5l-.2.4h-.2c0-.1-.2,0-.2,0l-.3-.2v-.4l-.2-.2-.3-.4v-.2h-.4l-.4-.2-.2-.3h-.3l-.2-.3h-.2v-.2l-.2-.2h-.6.2v.1ZM109,19.5h0v.2l.2.3-.2.3h-.2v-.8h.2ZM109,19.1v.2h0v-.2Z"/><path class="cls-16" d="M153.1,5.9v-.4l.8-.3,1.2.7h.8l.8.4v-.8c.1,0-.2-.4-.2-.4l-.6-.3.2-.8h.6l1,.9.3.5h1l.2-.3.6-.3.8-.9.4.3.7.9v.4l.3.6.7.5v.3l.5.4h.6l.6.2.3.4h-.3l-.3.2h-.6l-.6.6v1c.1,0,0,.3,0,.3v.9l-.2.2v1c-.1,0-.3-.2-.3-.2v-.5c.1,0-.1-.3-.1-.3l-.2.2v.3c-.1,0,0,.6,0,.6v1.3h-.2c0,.1-.4,0-.4,0v-.2c-.1,0-.5-.2-.5-.2l-.7-.8.7-.5-.5-.3v-.2c-.1,0,.1-.2.1-.2l-.3-.3-.2-.3h-.2v-.2h-.2l-.4.3h-.3l-.3.4h-.3c0,.1-.4.6-.4.6h-.2v.2c-.1,0-.2.2-.2.2l-.4.2h-.3v-.6l.2-.2-.3-.6h.5c0-.1-.5-.6-.5-.6h-.6l-1-.6-.3-.6.3-.3v-.4l-.9-.7v-.9c.1,0-.3-.4-.3-.4h-.8l-.4-.5h.4l-.1.1ZM156.7,12.3l-1-1.4-.5-.2-.3-.7h-.4l-.2.2-.6-.5-.3.2h-.4v.2h.2l.3.4h.3v.4c.1,0,.1.3.1.3l.9.5v.4l.6.3h.6l.6.4v-.3h.1v-.2h0Z"/><polygon class="cls-25" points="153 10 153.1 10 153.4 10.4 153.7 10.3 153.8 10.7 153.8 11 154.7 11.5 154.8 12 155.4 12.2 155.9 12.3 156.5 12.6 156.7 12.3 156.7 12.3 157.1 12.2 157.4 12.3 157.8 12.1 157.9 11.9 158 11.7 158.3 11.6 158.6 11.1 158.9 11 159.2 10.7 159.5 10.6 159.9 10.3 160.1 10.3 160.1 10.4 160.3 10.5 160.5 10.8 160.8 11.1 160.6 11.3 160.7 11.5 161.2 11.8 160.5 12.3 161.2 13.1 161.5 13.3 161.7 13.5 162 13.6 162.2 13.5 162.2 13.6 162.5 14 162.6 14.6 162.5 15.1 162.6 15.3 163 15.3 163.4 15.8 163.9 15.8 164.2 15.9 164.8 15.7 165.2 16 165.6 16 165.7 16.5 166 16.9 167.1 17.3 167.6 17.4 168.9 17.8 169.5 17.8 171 17.3 172 17.2 173.3 17.3 173.7 17.4 173.9 16.9 173.6 16.4 173.4 15.8 173.8 15.6 174.9 15.5 175 14.9 175.3 14.6 175.7 14.5 176.6 13.8 177.5 13.6 178.3 13.8 178.5 13.3 178.9 13.1 179.3 13.3 179.8 13.3 180.6 13.9 181.2 14.1 182.5 14.9 182.8 14.9 183.2 14.7 184 15 184.5 15.1 184.6 15.7 184.8 15.9 185.3 15.8 186.1 16 186.9 17.2 187.9 17.2 188.4 17.5 188.8 18.1 188.6 18.4 188.8 18.9 188.8 19.3 189 19.6 189 20.3 189 20.5 188.9 20.9 189.1 21.2 189 21.4 189 21.6 188.5 22 188 22.1 188.2 22.4 188.6 22.7 188.2 23.3 188.3 23.4 188.4 24.1 188.4 24.6 189.2 24.7 189.3 24.7 188.7 25.6 188.6 26.1 189.1 27.2 189.4 28.2 189.3 28.5 189.5 28.9 189.6 29.7 191.4 29.7 191.8 30.5 191.7 31.1 191.9 31.9 191.8 32.2 190.2 34.4 191.3 35.9 191.5 36.4 192.1 37 192.6 37.3 192.8 37.5 193.5 37.5 193.9 37.7 194 37.9 194.6 38 194.6 38.7 194.8 39.2 194.8 39.8 194.9 40.2 195.4 40.2 196 40.5 196 41.4 195.7 41.7 195.2 41.4 194.1 41.8 193.9 42 193.3 42.3 193 42.7 193.2 43 192.8 43.5 193 44 192.9 44.8 193 45.1 192.8 45.1 192.7 45.3 192.4 45.5 191.7 45.2 191.2 45 190.9 44.7 190.7 44.7 190.6 45.1 190.4 45.1 190.1 44.8 189.9 44.9 189.6 44.8 188.6 44.7 187.9 44.4 186.8 44.5 186.2 44 186 44 185.5 44.4 185.1 44.1 184.6 44.1 183.5 44.1 183.4 43.9 183.2 43.7 183.1 43.2 182.7 42.3 182.5 41.6 182.1 41 182 40.8 181.9 40.8 181.9 40.7 181.1 40.6 180.7 40.7 180.1 41.1 179.7 41.1 179.6 40.9 179.6 41.2 178.7 41.7 178 42.3 177.1 41.8 176.4 41.6 175.9 41.7 175.7 41.8 174.9 41.1 174.6 41.1 174.2 40.8 173.7 40.7 173.1 40.1 173.3 39.8 173.3 39.6 172.9 39.6 172.8 39.5 172.1 39.4 171.9 39.2 171.3 39 170.5 39.1 170.1 38.8 169.4 37.4 169.4 37 169.2 37.1 168.8 36.8 168.9 36.7 169 36.8 169.2 36.8 168.9 36.4 168.6 36.4 168.4 36.3 168.3 35.6 167.5 34.7 167.5 34.3 167 33.7 166.8 33.5 166.1 34.1 165.9 34.1 165.7 33.7 165.5 33.8 165 33.5 165.1 33.3 165.2 33.1 165.1 33.2 164.8 33.2 164.5 33.2 164.8 33.4 164.8 33.8 164.6 34 164.3 34.1 164 33.6 164 33.5 163.8 33.6 163.7 33.5 163.2 33.3 162.8 33 162.7 31.7 162 31.7 161.8 31.1 161.9 30.5 162.3 30.1 161.9 29.1 161.5 28.9 161 28.1 160.8 27.9 160.6 28 159 27 158.6 27 158.4 27.2 157.9 26.8 158 26.6 157.9 26.4 158.1 26 157.6 25.6 157.5 25.2 157 25.1 156.8 24.9 156.5 24.8 156.5 24.5 156.7 24.3 156.5 24.1 156.7 23.8 156.7 23 156.9 22.8 157 22.1 157.3 22.2 157.5 22 157.5 21.3 157.4 21.1 157.3 20.6 157.6 20.5 158 20.4 158.1 20.3 157.9 20.2 157.6 20 157.2 20.1 156.9 20 156.1 19.6 155.8 19.5 155.4 19.3 155.2 18.8 155 18.5 154.7 18.4 154.5 18 154.5 17.6 154.3 17 153.9 17 153.8 17 153.9 16.7 153.7 16.2 153.3 15.3 152.7 15.1 152.8 14.9 152.7 14.2 153 13.6 152.9 13.3 152.4 13.3 152.4 12.7 152.4 12.3 152.2 11.5 152 11 152 10.8 152.6 10.8 152.8 10.2 153 10 153 10"/><polygon class="cls-19" points="149.8 6.2 150.5 5.9 151.4 5.7 151.7 5.8 152.9 5.7 153.5 6.2 154.2 6.3 154.7 6.8 154.5 7.3 154.6 7.7 155.4 8.4 155.4 8.9 155.2 9.2 155.4 9.8 156.4 10.3 157 10.4 157.5 10.8 157 11 157.3 11.5 157.2 11.7 157.2 12.2 156.7 12.3 155.7 10.8 155.2 10.7 154.8 10 154.5 10 154.2 10.2 153.7 9.7 153.3 9.8 152.9 9.9 152.8 9.6 152.4 9.2 152 9.3 151.3 9.2 150.7 8.9 150.7 8 150.8 7.3 150.6 6.9 150.2 6.8 150.2 6.5 149.8 6.2"/><path class="cls-23" d="M114.6,7.7h.5l.2-.6v-.5l.5-.3v-.5l-.4-.2v-.6l.4-.4h.3l.2-.3h.6l.6.5.3-.2h.5v.9l.6.6h.5l.5.6.4.2v.3l-.4.4h-.5l-.3-.2h-.5l-.2.2h-.7l-.4.2-.2.6-1.1.6-.9.8v-.3l.2-.6h.2l.4-.3h-1.2c0-.1-.2-.5-.2-.5h0v-.4h.1ZM146.2,5h-.1l-.3.7-.5.3-.7.4v.3h-.8l-.3.2-.9-.2-.3-.2h-1.6l-.9.4-.7-.2-.5-.3-.3.2-.8-.4h-.4l-.8-.6h-.2l-.2.3h-.4l-.4-.6v-.5c-.1,0-.4-.3-.4-.3h-.2l-.5.6h-.4l-.8-.7v-.4h-.2l-.5.3h-3l-1,.4h-.5l-.8.2-.2.3h-.4l-.4.5h-.2l-.2.6h-.2v.4h-.8l-1.1-.4h-.4l-.3.2h-1.9v.3c-.1,0,.3.7.3.7h1.1v.2h-1l-.8.2-.3.4v.2c.1,0,.6-.1.6-.1l.2.2h-.3c0,.1-1,.1-1,.1l-.4-.2-.5.2-.2-.4h-.3l-.4.4h-.4l-.5-.4h-.5l-1,.8-.2.4-.2.4.2.3v.4l-.2.2.2.3.6-.2h1.1l-.5.5v.3l.3.3v.4h0c0,.1.4,0,.4,0v.2l-.2.3-.5.3h.2c0,.1.3.2.3.2l-.3.2-.2.4h-.2l-.2-.6h-.2v.3l.2.4-.2.2v.3l.4.2v-.2l.5.4h.3l.5.2v.5l-.2.3.3.3v.3h.3l.5.5-.2.3h-.3c0-.1,0,.1,0,.1h.3c0,.1.7,0,.7,0h.9v.2l-.3.2-.5.2h-.7l-.2.2h1.4c0-.1,0,.2,0,.2h.1c0,.1.2-.2.2-.2l.3-.4h.3l.2.2h.3l.4.2.2-.3h.3v.3h-.2l.2.4v.3l.5.4h.7c0,.1.5.1.5.1l.2-.3h.4l.2-.2.4.2h.3v-1.4h1.7l1,.5h.4l.7.9.6.4,1.9-.2.6-.2h.3c0,.1.3,0,.3,0v-.4c.1,0,1-1.1,1-1.1h.2l.9.3.5.2h.7v-.3l.5-.3h.4v.4l-.3.5-.4.3v.2l.4.5v.3h.7l.4-.2v-.5l.2-.2v-1.1c.1,0,.7.2.7.2h.4l1-.3h.2l.3-.2h1.1c0-.1.4,0,.4,0l.2.2h.7c0,.1,1,.2,1,.2v-.2l.6-.2.3-.4.8-.2h2.1l.9-.3h.8c0,.1.6-.4.6-.4h.5l.2-.2h.9l.7.2h.6c0-.1.3,0,.3,0v.4l.3.2h.5c0-.1.1-.5.1-.5l-.2-.5-.5-.8-.6-.2v-.8l.3-.6v-.3h-.6v-1.8c-.1,0-.3-.4-.3-.4v-.2h.6l.2-.6.2-.2-.2-.4-.4-.4h-1.1l-.6-.4v-1.5c.1,0,0-.4,0-.4h-.4v-.3l-.4-.4h-.4l-.9-.8h-.4l-.3.2h-.3l-.6-.2-.2.3h-.2v-.5h-.3v-.1ZM118.8,19v-.2h.3v.2h-.3ZM114,9.4h.3c0,.1.4,0,.4,0v-.2h0c0-.1-.2,0-.2,0h-.3v.2h-.2Z"/><polygon class="cls-13" points="163.8 33.6 163.7 33.5 163.2 33.3 162.8 33 162.7 31.7 162 31.7 161.8 31.1 161.9 30.5 162.3 30.1 161.9 29.1 161.5 28.9 161 28.1 160.8 27.9 160.6 28 159 27 158.6 27 158.4 27.2 157.9 26.8 158 26.6 157.9 26.4 158.1 26 157.6 25.6 157.5 25.2 157 25.1 156.8 24.9 156.5 24.8 156.5 24.5 156.7 24.3 156.5 24.1 156.7 23.8 156.7 23 156.9 22.8 157 22.1 157.3 22.2 157.5 22 157.5 21.3 157.4 21.1 157.3 20.6 157.6 20.5 158 20.4 158.1 20.3 157.9 20.2 157.6 20 157.2 20.1 156.9 20 156.1 19.6 155.8 19.5 155.4 19.3 155.2 18.8 155 18.5 154.7 18.4 154.5 18 154.5 17.6 154.3 17 153.9 17 153.4 17.2 153 17 153 16.6 152.7 16.4 152.2 16.5 151.4 16.4 150.5 16.4 150.3 16.5 149.8 16.5 149.2 17 149.3 17.1 149 17.6 148.8 17.6 148.4 17.9 147.6 18.1 147.2 18.8 147.1 19.5 147.5 20.3 147.5 21 147.2 21.8 147.3 22.1 147.3 22.7 146.9 23.2 146.7 23.5 142.9 26.3 142.9 26.3 142.9 26.3 144 29.1 145.9 29.3 155.9 36.3 160 36.4 160.5 35.5 160.9 34.4 161.9 34 162.7 34.3 163.2 34.1 163.4 34.2 163.6 33.7 163.8 33.6"/><polygon class="cls-28" points="160 36.4 160.5 35.5 160.9 34.4 161.9 34 162.7 34.3 163.2 34.1 163.4 34.2 163.3 34.3 163.5 35.3 162.3 35.5 163.1 36.1 163.2 35.9 163.4 36.2 163.4 36.6 163.6 36.8 163.6 36.8 163.5 36.9 163.7 37.2 162.4 37.8 162.3 37 160.3 36.4 160 36.4"/><polygon class="cls-19" points="129.6 23.6 129 23.3 128.8 22.9 128.8 22.4 129 22.4 129.3 22 129.7 22.2 130 22.1 130.1 21.8 130.1 21.6 130.6 21.6 131 21.8 131.6 21.7 132.5 21.4 133.2 21 133.4 20.9 133.6 21.1 133.3 21.2 132.8 21.5 132.3 22.1 132.5 22.5 132.5 22.9 131.9 22.8 131.6 23 131.1 23.4 130.6 23.5 130.4 23.7 130.1 23.6 129.6 23.6"/><polygon class="cls-15" points="142.9 26.3 146.7 23.5 146.9 23.2 147.3 22.7 147.3 22.1 147.2 21.8 147.5 21 147.5 20.3 147.1 19.5 147.2 18.8 147.6 18.1 148.4 17.9 148.8 17.6 149 17.6 149.3 17.1 149 16.9 148.4 16.9 147.6 17.2 146.5 17.1 146.1 17.2 145.6 17.2 144.8 17.4 144.5 17.8 143.9 18 143.8 18.1 142.8 18.1 142.1 18 141.9 17.8 141.5 17.7 140.4 17.8 140.1 18 139.9 18 138.8 18.4 138.4 18.3 137.8 18.1 137.7 18.5 137.7 19.3 137.4 19.5 137.4 19.9 137 20.1 136.6 20.2 136.2 20.1 136.1 20.1 135.8 20.2 135.9 20.9 136.3 21.6 136.4 22.2 136.3 22.6 136.3 23.5 137.2 23.5 137.4 24 137.8 24.2 137.7 24.7 137.9 25.1 137.7 25.2 137.4 25.2 137 25.4 136.9 26 136.5 26.5 136.5 26.5 136.6 26.7 136.9 27 137 27.7 136.8 28.1 137 28.1 137.7 28.4 138.2 28.7 138.3 28.7 138.6 28.9 142.9 26.3 142.9 26.3"/><polygon class="cls-20" points="135.2 36 135.5 35.6 135.5 35.5 135.5 35.2 135.7 35 135.7 34.5 135.8 34 135.8 33.4 136 33.3 136 32.8 136.1 32.3 136 32 136.1 31.1 136 31.1 135.7 31.1 135.4 31.3 135.2 31.1 135.2 30.4 135.2 29.4 135.1 29.2 135.2 28.6 135.7 28.6 135.8 29 136 29 136.3 28.8 136.2 28.5 136.3 28.5 136.2 28.3 136.1 28 136.2 27.3 136.3 26.8 136.5 26.5 136.2 26.5 136 27 135.3 27 135.1 26.9 134.6 27.5 134.4 29 133.8 30.3 133.2 31.2 133.4 31.3 133.8 31.9 134 32.7 134.7 33.6 135.1 34.7 134.9 35.2 135.2 36"/><polygon class="cls-20" points="136.3 28.5 136.2 28.3 136.1 28 136.2 27.3 136.3 26.8 136.5 26.5 136.5 26.5 136.6 26.7 136.9 27 137 27.7 136.8 28.1 136.8 28.1 136.6 28.3 136.4 28.5 136.3 28.5"/><polygon class="cls-8" points="136 31.1 135.7 31.1 135.4 31.3 135.2 31.1 135.2 30.4 135.2 29.4 135.1 29.2 135.2 28.6 135.7 28.6 135.8 29 136 29 136.3 28.8 136.3 28.9 136.3 29.2 136.2 29.4 136.2 29.9 136.2 30.3 136.1 31.1 136 31.1"/><polygon class="cls-9" points="135.1 26.9 135.3 27 136 27 136.2 26.5 136.5 26.5 136.9 26 137 25.4 137.4 25.2 137.7 25.2 137.9 25.1 137.7 24.7 137.8 24.2 137.4 24 137.2 23.5 136.3 23.5 136.3 23.6 136 23.6 135.9 25.2 135.5 25.7 135.1 26.3 135.1 26.9 135.1 26.9"/><polygon class="cls-16" points="135.5 35.6 135.5 35.5 135.5 35.2 135.7 35 135.7 34.5 135.8 34 135.8 33.4 136 33.3 136 32.8 136.1 32.3 136 32 136.2 30.3 136.2 29.9 136.2 29.4 136.3 29.2 136.3 28.9 136.2 28.5 136.4 28.5 136.6 28.3 136.8 28.1 137 28.1 137.7 28.4 138.2 28.7 138.3 28.7 138.6 28.9 142.9 26.3 144 29.1 143.9 29.1 143.1 29.9 139.9 30.9 142.3 33.5 141.4 34.6 141.4 35.2 139.7 35.5 138.2 37 136 36.4 135.3 36.4 135.3 36.3 135.5 35.8 135.5 35.6 135.5 35.6"/><polygon class="cls-19" points="163.7 37.2 162.4 37.8 162.3 37 160.3 36.4 155.9 36.3 145.9 29.3 143.9 29.1 143.1 29.9 139.9 30.9 142.3 33.5 141.4 34.6 141.4 35.2 139.7 35.5 138.2 37 136 36.4 135.3 36.4 135.3 37.2 135.3 38.1 135.1 38.7 135.1 38.9 135.4 38.8 135.5 39 135.8 38.8 136.3 39.1 136.2 39.2 137.1 40.2 137.2 40.7 137.4 40.8 137.5 41.2 138 41.6 138.2 41.6 138.8 42.7 138.8 43 139 43.4 139.3 43.5 139.4 44 139.6 44.3 140.1 44.5 140.5 45.6 140.8 45.8 140.9 46.4 140.8 46.7 140.8 47 141.3 47.3 141.3 47.7 141.6 47.9 141.9 47.5 142.4 47.9 143 48.2 143.6 48.8 143.7 49.2 143.9 49.3 144 49.8 144.2 50 144.4 50.7 144.8 51.1 144.9 51.9 145.1 52.1 144.9 52.8 144.7 52.9 144.9 53.3 145.1 54.1 145.2 54.9 145.6 55.2 145.7 55.5 146.7 56.7 147.1 56.8 147.5 56.9 147.8 57.3 148 57.3 148.7 57.8 148.7 58.2 149.2 58.3 149.2 58.6 149.4 58.7 149.9 60.5 150.4 60.8 150.4 61.4 152.1 63 152.3 63 152.5 63.9 153.1 64.1 153.5 65.2 153.9 65.3 154.2 65.4 154.5 65 155 64.6 154.7 63.9 154.9 62.9 155.5 62.6 156.2 63.1 157.5 63.2 159.4 63.9 161.3 64.9 161.4 66.8 165.3 61.5 179.5 57.3 179.8 52.6 179.3 50.8 179.3 50.8 178.6 51.5 172.3 50.5 171.9 48.8 171.3 48.2 171.4 47.5 171.3 47.5 171.2 47.5 171 47.2 171 47 171.2 46.7 170.9 46.8 170.8 46.7 170.5 46.7 169.8 46.3 169.7 46.1 169.6 46.2 169.2 45.7 169.1 45.1 168 43.7 167.7 43.2 168 43.3 168 43 167.6 42 167.6 41.8 167.3 41.3 167.1 41.3 166.4 40.3 166.2 40.3 165.9 40 165.9 39.8 166 39.8 166.2 39.9 166 39.6 165.7 39.6 164.9 39.4 164.5 38.3 164.3 37.8 164 37.6 164 37.3 163.9 37.4 163.7 37.2"/><polygon class="cls-20" points="170.8 46.7 170.5 46.7 169.8 46.3 169.7 46.1 169.8 46 169.8 45.6 169.6 45.4 169.5 45.1 169.6 44.4 169.8 44.4 169.9 44.5 169.8 43.9 169.9 43.9 169.8 43.5 169.9 43.4 169.9 43.2 170.1 43.2 170.2 43 170.3 43 170.7 43.3 170.7 43.5 170.9 43.5 171 43.7 170.9 44.4 170.8 44.4 170.9 45.1 171 45.1 171.2 45.6 171.1 46.6 170.8 46.7 170.8 46.7"/><polygon class="cls-8" points="171.4 47.5 171.3 48.2 171.9 48.8 172.3 50.5 178.6 51.5 179.3 50.8 181.2 45.2 181.6 45.1 181.5 44.6 181.5 44.3 181.3 44.3 181.2 44.2 181.2 44.2 181 44.2 180.9 43.4 180.6 43.3 180.6 43.6 180.5 43.8 179.2 44.6 179.2 45.2 177.9 46.3 177.7 46.6 177.9 46.7 178 46.9 177.5 47.5 177.3 47.2 177.1 47.4 176.8 47.4 176.9 47.7 176.7 47.7 176.6 47.9 176 48 175.6 48.1 175.4 47.8 174.9 47.9 174.7 47.8 174.4 47.8 173.7 47.7 172.8 48.4 172.5 48.3 172.2 48.2 171.8 48.4 171.7 47.4 171.5 47.6 171.4 47.5"/><path class="cls-12" d="M6.2,13l.3.2v-.2h-.2c0-.1-.1-.1-.1-.1h0v.1ZM4.4,13l.4.3v-.2h-.4v-.1ZM3.6,13.4v.4h.7l-.4-.4h-.3ZM9.5,15.3h-.4v.3h.7l-.2-.2h-.2.1v-.1Z"/><path class="cls-12" d="M27.2,28.4l-.4-.2v-.2h.5l.2.4h-.3c0,.1,0,0,0,0Z"/><path class="cls-18" d="M26.2,39.5h-.2v-.3h.2v.2h0v.1ZM24.6,40.3v-.4h.2v.3h-.2.1l-.1.1ZM25.1,38.5v-.5l-.2-.2s0-.3,0-.2l.3.2v.6l-.3.2h.1l.1-.1ZM28.4,39.1h-.5l-.7.5-.3-.2-.2-.4.3-.3h.4l.5-.2.2-.2h.4v.7h-.1v.1ZM29.3,39.2l-.2.6.4.3.4-.2h.2v-.6h-.8v-.1ZM33.3,37.5l.2-.6h.3l.4.2h-.4l-.5.3h0v.1ZM32,39.3l.5-.6v-.3l.7-.3v.5l-.4.7h-.8Z"/><path class="cls-10" d="M8.9,64.2l.5-.3v-.2h-.7l-.2.2v.3h.4ZM9.5,64.5v-.3c-.1,0,0-.2,0-.2h.2v.3h-.2v.2ZM11.1,65h-.4v-.3h.5v.2h-.1v.1ZM11.8,65h-.4l.2-.2.3.2h-.1ZM13.7,64.8v-.5c.1,0,.1.6.1.6h-.1v-.1ZM13.5,66.3l-.2-.3.3-.3h.3v.4h-.4v.2ZM13,68.2v-.2h.2-.2v.2ZM11.9,68.7v-.5l-.2-.3h.4l.4.6v.3h-.6v-.1Z"/><path class="cls-15" d="M173.4,59.1l6.1-1.8.3-4.7-.5-1.7,1.8-5.7h.4v1.2c.1,0,.8.9.8.9v.3l1.3,1,.5.2h.3l.4-.2,1,.2h.8l.6.8.2.5.4.3.2.4.8.7h.4v.2c.1,0,.1.4.1.4l-.3.5v.6l-.8,1.3-.5.5-.2.5-.2.2-.2.8h-.4v-.5c.1,0,0,0,0,0h-.2l-.3.5h-.1v.3c.1,0,0,0,0,0l-.4.8v.7c-.1,0,0,0,0,0l.2.4h-.1l.3.8.2.2v.2h-1.2l-.2.2-.3-.2h-.5l-.8,1.1v.7l-.2.2-.4.4h-1.6l-.2.2-.3.3v.5h.2v.4h-.1l-.5.9h-.3l-.3-.2h-.8l-.8.4h-.5l-.3.4h-.8l-1.2-1.5.3-.9-2-2.5v-1.1h.2-.1l-.2-.1ZM181.2,44.2v-.3l.2-.3v-.6h0v-.2h0v-.3h-.5v.6h-.3v.4h.3v.8h.3v-.1Z"/><path class="cls-13" d="M153.5,65.2h.4l.3.2.2-.4.6-.4-.4-.7.3-1,.6-.2.6.5h1.4l1.9.8,1.9.9v1.9l4-5.3,8.1-2.4v1.1c-.1,0,1.8,2.5,1.8,2.5l-.3.9,1.2,1.5h-.5l-.8.3-.7.9v.7h.1v.4l-.9.2-.4.4-.9.4-1.3.2-.2.2-2.4.7h-.2l-.4.2-.4.7-.6.5h-.9l-.3-.2h-.3l-.8.6v.3l-.3.2h-.8l-1,.5h-.4v-.3h-1.3l-.5.3-.2.6h-.2l-.4.6-.4.2-.2-.2h-.4l-.4.4h-1.6l-.2-.4v-.5l-.5-.5-.2-.6.2-.2v-.6l-.6-.5-.3-2-.5-.7v-.3h-.2v-.3c-.1,0,.2,0,.2,0v-.2h.2v-.7l-.2-1.1v-.4h-.1l-.4.2v.1ZM174.2,75.1h1-1.1.1ZM176.8,74.4h.3v-.5l.2-.2h.3v.3h1.7v.2l-.2.2h-.3l-.5.3h-1.1l-.3-.2-.3-.2h.2v.1Z"/><polygon class="cls-3" points="135.2 36 134.9 35.2 135.1 34.7 134.7 33.6 134 32.7 133.8 31.9 133.4 31.3 133.2 31.2 132.9 31.5 132.3 31.8 130.9 31.5 129.9 31.8 129.1 31.3 129 31.6 129.3 32.1 129.2 32.4 129 31.9 128.5 31.7 128.4 31.3 128.6 31.2 128.5 31 128.1 31.1 127.7 30.9 126.9 30.7 126.8 30.9 127.1 30.9 127.2 31.1 126.8 31.1 126.4 31.1 125.9 31.3 125.7 31.1 125.8 31 126.2 31 126.5 30.8 126.1 30.9 125.5 30.9 125.2 31.1 124.7 31.4 124.4 31.5 123.8 31.7 123.4 32.2 123.3 32.4 122.6 32.4 121.8 31.9 121.3 31.8 120.6 31.9 119.9 31.5 119.7 31.5 119.4 31.6 118.8 31.2 118.1 31.1 116.5 30.9 115.6 30.7 114.5 30.7 114.3 30.8 114.3 30.8 114.2 31.1 114 32 114.2 32.6 114.2 33.1 113.9 33.8 113.7 34.5 114 35.1 114.2 36.2 114.9 53.3 140.7 53.1 140.7 53 140.3 52.9 139.8 52.4 139.7 52.1 139.2 52 138.9 51.4 138.7 51.5 138.3 51.5 137.6 51.1 137.3 50 137.3 49.7 137.3 49.1 137.2 48.8 137.2 48.6 137.4 48.8 138 48.8 137.8 48.6 137.6 48.5 137.2 48 137.1 47.9 137 48 136.8 47.7 136.6 47.1 135.8 45.9 135.4 45.7 135.3 45.1 133.9 43.1 134 42.6 133.7 42.3 133.7 41.4 133.4 41.2 133.4 40.9 132.7 40.1 132.7 39.8 132.7 39.5 132.6 39.1 131.3 38.1 131.2 37.7 130.4 36.8 130.4 36.3 130 35.7 130 35.4 130 35.1 130.1 35 130.2 35.1 130.4 35.1 130.5 35.7 130.7 35.9 130.8 36.2 131.6 36.9 131.6 37.3 131.8 37.7 132.4 38 132.5 38.4 133.5 39.5 134.1 39.8 134.2 39.9 134.2 39.6 134.5 39.4 134.7 38.6 134.5 38.4 134.8 37.8 134.8 37.3 135.1 36.1 135.2 36"/><path class="cls-4" d="M114.9,53.3l25.8-.2-.1.1v.2l.1.2-.1.1.1.1v.1l.1.1.1.6.5.5v.2h-.2v-.1l-.2-.2-.1.1.1.3.5,1.6.1.8-.1.8.3,1,.4.7.4.1.9.6v.4h.4l.5.3v.3h.1l-.2.4-.4.2-.3.1-.2.3-.5-.1-.2.2-.5.1v.2l.1.3-.1.2h-.5l-.3.1v.5l-.2.5.2.1.1.2-.1.2-.3.7-.2,1.1-.3.5v.3l-.3.3v.5l.3.9.1.5h.1l-.1.1-.3.7v.7l-.6,1-.2.7h-.2l-.4.1-.1.4-.5.8v.4l-.6.4-.3.7-.4,1.6-.2-.1h-.2l-.1.3-.4.6-.2.4.1.3.1.4-.4.6-.2.6.1.8-.1,1-.3.2-.1.3-.3-.1-.2-.1-.4.1-.5-.1v.4l-.2.2-.4.4.2.3.4.2h.9l.2.2.4.4.1.3.1.1.4.7.4.2v.2l.2.2h.4l.2.3.2.3.4.4.1.8.2.3.1.7-.7.8-.5.8-.2-.1-.5.4-.2.3-.1.1-.3.3-.5.4-.2.3-.5.2-.5-.1h-.8l-.4.2h-.4l-.2.1h-.2l-.3.2v.4h-.2l-.5-.2-.1-.3-.4-.1-.3.1-.6-.2-.4-.2-.2.2-.1.3.1.2v.1l-.2-.1h-.6v-.2l-.2-.3-.1-.2-.1-.4-.3-.2-.5-.2-.2-.1-.2-.3-.3-.6-.1-.1h-.5l-.2.3-.2.2-.5.1h-.2v-.1h-.8l-.3.1-.1.3-.3.1-.4-.2-.4-.4-.3-.2-.2-.1-.3-.3v-.3h-.1v-.1l-.2-.3-.4-.2-.2-.2-.1-.7.1-.2-.3-.2-.8-.2-.2-.2v-.4l-.1-.2-.4-.1-.2-.3v-.6l-.2-.2-.7-.4h-.2l-.3-.2-.2.1-.4-.1-.4-.4.2-.2v-.2l.3-.2.1-.3-.2-.2-.3-.1-.5-.2-.1-.3-.3-.2h-.4l-.5-.2-.3-.3-.1-.4.2-.3-.2-.1h-.7l-.2.2h-.5l-.3-.3v-.7l.1-.4.2-.2.1-.4-.2-.3-.4-.9-.5-.8-.1-.2-.5-.4.1-.1v-.3l-.2-.3s-.07-.1-.11-.15c-.29-.29-.58-.59-.87-.88l-.22-1.97c-.17-.07-.33-.13-.5-.2l-.3-.3v-.5l.7-.7.2-.3c-.13-.23-.27-.47-.4-.7l.1-.3.4-.2.2-.5c-.1-.03-.2-.06-.29-.09.03-.17.06-.34.09-.51l.3-.3h.3l.6-.9.3-.5-.2-.3v-.6l.4-.3h.5c.25-.06.49-.12.74-.18.12.03.24.06.36.08l-.2-8.5c.03-.27.07-.53.1-.8l2-.2-.2-4.2Z"/><polygon class="cls-3" points="138.1 89.7 138 89 137.8 88.7 137.7 87.9 137.3 87.5 137.1 87.2 136.9 86.9 136.5 86.9 136.3 86.7 136.3 86.5 135.9 86.3 135.5 85.6 135.4 85.5 135.3 85.2 134.9 84.8 134.7 84.6 133.8 84.6 133.4 84.4 133.2 84.1 133.6 83.7 133.8 83.5 133.8 83.1 134.3 83.2 134.7 83.1 134.9 83.2 135.2 83.3 135.3 83 135.6 82.8 135.7 81.8 135.6 81 135.8 80.4 136.2 79.8 136.1 79.4 136 79.1 136.2 78.7 136.6 78.1 136.7 77.8 136.9 77.8 137.1 77.9 137.5 76.3 137.8 75.6 138.4 75.2 138.4 74.8 138.9 74 139 73.6 139.4 73.5 139.6 73.5 139.8 72.8 140.4 71.8 140.4 71.1 140.7 70.4 140.8 70.3 141 70.4 141.5 70.4 141.7 70.2 142 70.2 142.6 68.9 142.8 69.1 142.9 69.3 143.8 69.6 144.2 69.6 144.6 69.3 145 69.2 145.3 69.5 145.5 69.3 145.8 69.3 146.5 69.9 146.6 69.8 146.9 69.7 147.4 69.8 147.7 70.1 148.1 70.2 148.9 70.9 149 71.2 149.7 71.3 149.7 71.5 150.1 71.5 150.3 71.7 150.8 72 151.4 72.6 151.8 72.7 152.2 73.3 152.2 73.7 152.4 74 152.7 74 153.3 74.8 152.9 74.9 152.7 75.4 152.6 75.8 152.6 76.3 152.4 76.7 152.4 77.1 152 77.6 152.2 77.9 153 77.8 153.6 77.5 154.1 77.4 154.5 77.6 154.4 77.8 154.5 78.7 154.9 79.8 155.5 80.1 155.4 80.7 155.7 81.4 156.5 81.6 157 82 163.3 84 166.1 83.9 159.4 90.6 158.1 90.6 156.7 90.6 156.3 90.9 155.9 90.9 155.4 91.2 155.2 91.6 154.8 91.9 154.2 92.2 153.6 92.3 152.9 92.6 152.7 92.9 152.7 92.9 152.1 92.9 151.3 93.1 150.9 92.8 150.7 92.4 150.4 92.2 149.4 92.4 149.1 92.5 148.8 92.5 148.4 92.7 148.1 92.9 147.6 93.8 147.2 93.8 146.8 93.8 146.5 93.7 145.9 93.8 145.4 93.6 144.6 93.6 144.3 93.5 143.9 93.1 143.4 92.7 142.5 91.8 142.1 91.6 141.1 91.7 140.5 91.5 140 91.7 139.6 91.6 139.3 91.2 139.3 89.9 138.9 89.8 138.5 89.9 138.3 89.5 138.1 89.7"/><polygon class="cls-11" points="153.3 74.8 152.7 74 152.4 74 152.2 73.7 152.2 73.3 151.8 72.7 151.4 72.6 150.8 72 150.3 71.7 150.1 71.5 149.7 71.5 149.7 71.3 149 71.2 148.9 70.9 148.1 70.2 147.7 70.1 147.4 69.8 146.9 69.7 146.6 69.8 146.5 69.9 145.8 69.3 145.5 69.3 145.3 69.5 145 69.2 144.6 69.3 144.2 69.6 143.8 69.6 142.9 69.3 142.8 69.1 142.6 68.9 142 70.2 141.7 70.2 141.5 70.4 141 70.4 140.7 70.3 140.6 69.8 140.3 68.9 140.3 68.4 140.6 68.1 140.6 67.8 140.9 67.3 141.1 66.2 141.4 65.5 141.5 65.3 141.4 65.1 141.2 65 141.4 64.5 141.4 64 141.7 63.9 142.2 63.9 142.3 63.7 142.2 63.4 142.2 63.2 142.7 63.1 142.9 62.9 143.4 63 143.6 62.7 143.9 62.6 144.3 62.4 144.5 62 144.6 62 145.1 62.5 146 64.9 146.3 66.4 146.4 66.5 146.5 67 146.5 67.2 146.8 67.3 147 67.8 147.1 68.4 147.5 68.5 147.5 67.9 147.4 68 147.4 67.5 147.6 67.5 147.9 68 147.8 68.2 148.2 68.7 148.4 69 148.6 68.8 148.9 68.8 149.1 68.9 149.4 68.8 149.7 69.2 150 69.5 150.6 69.6 150.7 69.8 151.4 70.6 151.7 71.2 152.2 71.4 152.5 71.7 152.7 71.7 152.7 71.6 152.8 71.8 153.2 72.7 153.4 72.8 153.7 73.2 153.7 73.3 153.9 73.7 154.1 73.7 154.3 73.9 154.5 73.7 154.6 73.8 154.7 73.9 154.3 74.3 153.9 74.4 153.8 74.6 153.3 74.8"/><polygon class="cls-6" points="154.5 77.6 154.1 77.4 153.6 77.5 153 77.8 152.2 77.9 152 77.6 152.4 77.1 152.4 76.7 152.6 76.3 152.6 75.8 152.7 75.4 152.9 74.9 153.8 74.6 153.9 74.4 154.3 74.3 154.7 73.9 154.7 73.9 154.7 74 155.2 74.5 155.3 74.5 155.2 74.7 155.3 75.4 155.1 75.5 154.7 75.9 154.4 75.9 154.2 76.3 153.7 76.3 154 76.6 154.1 76.6 154.4 76.5 155 76.4 155.1 76.6 154.6 77.5 154.5 77.6"/><polygon class="cls-17" points="152.7 92.9 152.7 92.9 152.9 92.6 153.6 92.3 154.2 92.2 154.8 91.9 155.2 91.6 155.4 91.2 155.9 90.9 156.3 90.9 156.7 90.6 158.1 90.6 159.4 90.6 166.1 83.9 163.3 84 157 82 156.5 81.6 155.7 81.4 155.4 80.7 155.5 80.1 154.9 79.8 154.5 78.7 154.4 77.8 154.6 77.5 155.1 76.6 155.2 76.9 155.3 76.9 156.7 78.3 156.8 78.7 157 78.7 157.6 79.2 158.1 79.3 158.7 79.2 158.9 79 159.5 78.7 159.8 78.7 160.5 78.1 160.7 78.1 160.9 78.2 161.4 78.2 161.7 78.1 162.1 78.3 162.7 78.2 164 77.4 164.4 77.3 164.9 77.5 165.2 77.4 165.8 77.4 166.4 77.1 167 77.1 167.2 77.2 167.5 77.2 168.5 77 168.9 76.7 169.6 76.6 169.7 76.8 169.8 76.6 170.5 76.5 170.8 76.1 170.9 76.2 171.1 75.9 171 75.8 171.3 75.6 171.5 75.6 171.4 75.5 171.7 75.7 172.2 75.9 172.5 75.9 172.6 75.9 172.4 76.2 172.2 76.6 172.2 76.9 172.1 77.2 172.2 77.3 172.5 77.3 172.5 77.5 172.3 77.7 172.1 78.1 172.3 78.4 172.3 78.7 172.2 79.1 172.5 79 172.4 78.9 172.6 79 172.7 79.2 172.6 79.3 172.5 79.2 172.2 79.2 172 79.3 171.7 79.8 171.9 80.1 171.8 80.6 171.7 80.8 171.7 81.4 171 82.4 170.5 83.5 170.2 83.9 170 83.8 169.5 84.4 169.5 84.6 169.7 84.9 169.4 85.2 168.2 87.5 168.2 88.2 167.4 89.3 167.3 89.6 165.9 91.6 165.7 92.1 165.1 92.7 163.9 94.1 161.5 96.2 160.5 97.1 159.8 97.2 159.2 97.7 158.4 98.2 157 99.8 156.6 99.9 155.4 101.2 155.2 101.3 155 101.6 154.6 101.8 154.2 102.2 153.9 102.7 152.2 104.6 152.2 104.7 150.6 103.3 150.7 94.8 152.7 92.9 152.7 92.9"/><path class="cls-6" d="M135.6,92.3l.2-.3h.2l.2-.3.4-.4h.2l.5-.7.9-1,.2.4h.7v1.3l.4.4h2.5l.4.2.9.9.5.4.4.4h1.1l.5.2h1.7l.6-.9.2-.3.5-.2h1.8l.3.5.4.2h1.4l-2,1.9v8.5l1.5,1.4h0l-.7,1h-.2l-.2.3v.2c.1,0-.6.3-.6.3l-.4.5h-.9v.2l-.3.4v.3h.1l-.4.7-.4.4v.5l-.3.7-.8,1.1-.5.2h-.2l-2.7-1.9-.2-.2v-.5l-.4-.7-7.9-4.6h-.6l.6-2.1v-.6l.5-.4.2-.5.4-.3.2-.4.2-.2v-.2h.7l.2-.5v-.3l.5-.6v-.9l-.3-.3.2-.3-.2-.2h-.3l-.3-.8-.5-.5v-.9h-.4v-.4h-.2v-.7c-.1,0-.4-.2-.4-.2h0l-.1-.2ZM130,103.8h1.7-1.7Z"/><polygon class="cls-3" points="135.2 101.5 135.3 100.9 135.7 100.5 136 100 136.3 99.7 136.5 99.3 136.7 99.1 136.7 98.9 137.4 98.9 137.6 98.4 137.6 98.1 138.1 97.5 138.2 97 138 96.6 137.7 96.3 137.9 96 137.7 95.8 137.4 95.7 137.1 95.1 136.6 94.6 136.6 94.1 136.4 93.7 136.2 93.6 136.2 93.2 136 93.1 135.9 92.6 135.7 92.3 135.1 92.7 134.9 93 134.4 93.2 133.9 93.1 133.1 93.1 132.7 93.3 132.3 93.3 132.1 93.4 131.9 93.4 131.6 93.6 131.6 94 131.4 94 130.9 93.8 130.8 93.5 130.4 93.4 130.1 93.5 129.5 93.3 129.1 93.1 128.9 93.3 128.8 93.6 128.9 93.8 128.9 93.9 128.9 93.9 128.8 94.3 128.6 94.6 128.6 95.2 128.4 95.9 128.4 96.5 128.6 96.6 128.8 96.9 129 97.3 129 97.5 127.9 99 127.2 99.8 127 100.1 126.2 101.6 126 101.8 126 102.4 125.9 103.2 125.6 104 125.7 104.5 125.6 104.6 125.7 104.6 126.1 104.5 126.4 104.3 126.7 104.4 126.8 104.5 127.1 104.5 127.3 104.4 127.3 104.1 127.7 104 127.7 104.1 127.9 104 128 104 128.2 103.8 130 103.8 130.1 103.8 131.7 103.8 134.7 103.6 135.2 101.5"/><path class="cls-11" d="M110.9,77.3l.2.3v.3l-.1.1.5.4.1.2.5.8.4.9.2.3-.1.4-.2.2-.1.4v.7l.3.3h.5l.2-.2h.7l.2.1-.2.3.1.4.3.3.5.2h.4l.3.2.1.3.5.2.3.1.2.2-.1.3-.3.2v.2l-.2.2.4.4.4.1.2-.1.3.2h.2l.7.4.2.2v.6l.2.3.4.1.1.2v.4l.2.2.8.2.3.2-.1.2.1.7.2.2.4.2.2.3v.1l-.1-.1-.4-.2h-.5l-.6.3-.2-.1h-.8l-.3-.2-.3-.1-.2-.1h-.7l-.2-.2h-.3l-.1.2.1.1-.2.4h-.3l-.3.1h-.5l-.3.2h-.2l-.1-.3h-.1l-.1-.1-.2-.1-.9.4-.4.2-.1.2-1,.1-.2.1-.3-.3-.4-.1h-.4l-.3.4-.4.4.1.2.2.2-.1.2-.5.1-.2-.1-.5-.1-.4-.2h-.3l-.2.1h-.3l-.6-.1-.4-.2h-.5l-.1-.1-.6-.5-.3-.1-.6-.5-.3-.1-.3-.2h-.2l-.1.2-.3-.1-.4.3h-.2l-.2.2v.3l-.2.2v.3l-.2.1h-.3v.3l.4.4-.2.2-.1.3v.4h-.3l-.2.1-.4-.2-.1-.2h-.7l-.2.2h-.3l-.9.3-.2.3h-.4l-.5.6-1,1.6v-.1l-.1-.1v-.4l-.1-.4-.7-.5-.2-.3-.4-.6-.5-.8-.1-.5-.4-.4-.6-.3-.2-.1v-1.4l-.2-.5.1-.6-.2-.5-.1-.5.2-.3.3-.1.4-.6.2-.5.4-.7.2-.5.3-.1.4-.6v-.1c.61-.09,1.22-.19,1.83-.28.12-.11.25-.21.37-.32.19.07.38.13.58.2.67-.13,1.35-.26,2.02-.4l1.3-.3h.6l.3-.3c-.03-.37-.07-.73-.1-1.1l.1-.4.2-.2.4.1.5-.1,2.7-.2.3-.2.2-.3-.1-.3.1-.4.3-.2v-.3l.3-.4c.24-.22.48-.43.72-.65.04-.2.08-.39.12-.59.34-.23.68-.46,1.02-.69.21.04.42.08.64.13l.3.2.5-.3.1-.2Z"/><path class="cls-5" d="M113,58.5c.03-.27.07-.53.1-.8l2-.2-.9-21.3-.2-1.1-.3-.6.2-.7.3-.7v-.5l-.2-.6.2-.9.1-.3-.2-.6-.3-.4h-.8l-1.4-.1-.3-.3-.6-.1-.7-.2-.2-.2.2-.1v-.2l-1-.5h-.4l-.8-.2-.2-.1-.2.2-.4-.3h-.2l-.7.4-1,.1-.9.4-.6.5-.1.6-.3.2v1.1l.4.6.2.9-.2.5-.5.5-.1.2-.7.7-.5.1-.9-.3-.8-.7-.7-.5-1-.6-1.6-.6-.7-.1-.2.1h-.8l-.7-.3-.7-1.3v-.7l-.5-.7-1.4-.2-.8-.5h-1.1l-.7-.3-1.5.3-1.1-.2-.4-.4-1-.2-1.03.47c0,.24-.01.48-.02.72-.68.67-1.36,1.35-2.04,2.02-.02.98-.04,1.96-.07,2.93l-.04.56-.2.2v.7l.2.2.3.5v1.4l.1.8-.1.2.1,1.1.3.6-.2,1.2-.1.2.2.5.1.8-.2.3-.5.3-.2.3-.1.1.3.3.5.7.4.9.1.1.2.5-.1.3v.6l.3.3.1.4.2.2h.9l.8.1.4.2.2.5.5.9.2.2.3.3.2.2,3.8,1,.4.4c1.45-.57,2.89-1.14,4.34-1.7,5.75,2.9,11.51,5.8,17.26,8.7Z"/><path class="cls-14" d="M82,34h.4l.3-.3.2-.4v-.4h0v-.7l-.2-.7v-.5l.3-.2h.5l.4-.5v-.3l1.2-.8.5-.7-.2-.2v-1h-.2l-.6-.4v-.5l-.3-.2h0v.3h-.2c0,.1-.3,0-.3,0v-.3h-.4l-.7-.5-.3-.6.2-.6,1.1-.8.6-.6.2-.2-.2-.2.2-.2v-.3h-.2v-.8l-.6-.2-.5-.7v-.6l.6-.4v-.4l.4-.6v-.4h-.2c0-.1-.8.6-.8.6l-.3.3h-.2c0-.1-.3-.9-.3-.9h-.2v-.5l-.3-.2h-.5v.4l-.2-.3h-.6c0,.1-.8.5-.8.5l-.6.5h0v1.8l-.4,1v.6l.4.3h0c0,.1-.2.3-.2.3l-.2.3.3.3-.2.2v.8l-.4.2-.2.3h-.3l-.5.7-.3,1h0l.3.6v.2l.2.4h.2l.6.6.2.5.5.2.2.2h.3l.5.7,1.3,4.3h.5ZM83.9,25.9v-.2h.4l.2.2-.3.2-.3-.3h0v.1Z"/><polygon class="cls-17" points="87.2 50.1 87 49.9 86.7 49.6 86.5 49.4 86 48.5 85.8 48 85.4 47.8 84.6 47.7 83.7 47.7 83.5 47.5 83.4 47.1 83.1 46.8 83.1 46.2 83.2 45.9 83 45.4 82.9 45.3 82.5 44.4 82 43.7 81.7 43.4 81.8 43.3 82 43 82.5 42.7 82.7 42.4 82.6 41.6 82.4 41.1 82.5 40.9 82.7 39.7 82.4 39.1 82.3 38 82.4 37.8 82.3 37 82.3 35.6 82 35.1 81.8 34.9 81.8 34.2 82 34 80.7 29.7 80.1 29.1 79.8 29 79.6 28.8 79.1 28.6 78.9 28.1 78.3 27.5 78.1 27.5 77.8 27.1 77.9 26.8 77.7 26.3 77.5 26.2 77.8 25.1 78.3 24.5 78.6 24.5 78.8 24.2 79 24 79.1 23.3 79.4 23 79.1 22.7 79.2 22.4 79.4 22.3 79.4 22.1 79.1 21.8 79 21.2 79.4 20.2 79.4 19.5 79.4 18.9 79.4 18.6 79.4 18.3 79.3 18.2 78.7 18.3 78.4 18.3 77.5 18.5 77 18.1 76.4 17.9 76.4 18.1 76 18.5 75.3 18.4 75.2 18.1 74.9 17.8 74.4 18 74.4 18.2 74 18.3 73.8 18.7 73.5 18.5 73.1 18.5 72.7 18.9 72.2 18.9 71.9 18.4 71.4 18.4 71.1 18.3 70.5 18.4 70.1 18.4 69.9 18.4 69.5 18.3 69.2 18.3 69 18.8 68.5 18.8 68.1 18.6 67.6 19.2 67.2 19.1 66.7 18.9 66.3 19 65.4 19.1 65 19 63.9 19.8 63.3 19.9 63 19.9 62.5 20.2 62.5 20.5 62.2 20.9 62 20.9 61.9 20.8 61.5 20.8 61.3 20.9 61.2 21.1 60.6 21.1 60.1 21.4 59.8 21.6 59.7 21.9 59.3 22.3 58.7 22.6 58.1 22.6 58.2 22.8 58.3 23.1 58.6 23.4 58.6 23.8 58.7 23.9 58.7 24.6 58.7 25.5 58.8 25.8 59 27.4 59.3 28 59.4 28.4 59.7 28.5 60 28.7 60.2 28.7 60.4 28.9 60.1 29.5 60.2 29.6 59.9 30 57.4 30 56.9 30.1 56.3 31 55.9 31.4 55.7 31.9 55.7 32.5 55.5 33 54 34 51.7 35.3 50 36.3 49.1 36.5 48.3 36.6 47.9 36.7 47.3 36.7 46.1 36.9 45.5 37.3 45.1 37.9 44.1 38.6 44.1 40.4 44 40.4 44 41 44 41 44 41 51.9 46.3 51.8 46.3 66 55.6 66.2 56.6 66.6 57.1 67.4 57 68.1 57.2 68.4 57.7 69 57.8 69.4 58.2 69.4 58.5 69.1 59.2 69.3 59.5 69.8 59.7 70.8 59.6 71.6 59.3 71.6 59.4 71.6 59.4 74.9 58.6 77.6 56.1 87.2 50.1 87.2 50.1"/><polygon class="cls-5" points="44.1 40.4 44.1 38.6 45.1 37.9 45.5 37.3 46.1 36.9 47.3 36.7 47.9 36.7 48.3 36.6 49.1 36.5 50 36.3 51.7 35.3 54 34 55.5 33 55.7 32.5 55.7 31.9 55.9 31.4 56.3 31 56.9 30.1 57.4 30 59.9 30 60.2 29.6 60.1 29.5 60.4 28.9 60.2 28.7 60 28.7 59.7 28.5 59.4 28.4 59.3 28 59 27.4 58.8 25.8 58.7 25.5 58.7 24.6 58.7 23.9 58.6 23.8 58.6 23.4 58.3 23.1 58.2 22.8 58.1 22.6 57.8 22.6 56.6 22.5 56.3 22.2 56.2 21.8 56 21.8 56 21.8 55.6 22.2 54.9 22.3 54.3 22.1 53.9 22.1 53.4 22.3 52.8 22.4 52.3 22.3 51.7 21.7 51.5 21.5 51.4 21.2 51.4 21 51.5 20.8 51.3 20.7 50.9 20.8 50.8 21 50.4 20.9 50 21.4 49.9 22.6 49.5 23.2 49.3 24.1 49.1 24.6 48.1 25.5 47.9 25.5 47.4 25.9 46.6 26.1 46 26.8 45.8 26.8 44.9 27.4 44.4 27.5 44.1 28 43.1 28.7 43.5 29.4 43.4 30 42.5 30.7 42 31.9 41.9 32.4 42.3 33.1 42 33.9 42.2 34 42.5 34.4 42.3 35 41 36.5 40.8 37.1 40.2 37.8 39.5 37.8 38 39.2 35.9 39.6 35.4 40.3 44 40.4 44 40.4 44.1 40.4"/><polygon class="cls-6" points="44 41 44 40.4 35.4 40.3 34.6 41.5 34.6 42.3 34.2 42.3 32.7 43.1 32.5 43.5 31.9 43.9 32.1 44.4 30.8 46.3 30.7 47 29.7 47.9 29.4 48.1 28.9 49.2 28.9 49.6 28 50.7 28 50.9 28.3 51.1 27.9 51.3 27.2 52.5 27 52.6 26.6 52.9 26.7 53.4 26.5 53.9 26.5 54.6 35.1 54.5 35 50.6 35.3 50 35.8 49.7 36.3 49.6 37 49.6 37.1 43.9 44 44.1 44 41 44 41"/><polygon class="cls-1" points="26.5 54.6 35.1 54.5 35 50.6 35.3 50 35.8 49.7 36.3 49.6 37 49.6 37.1 43.9 44 44.1 44 41 51.9 46.3 51.8 46.3 51.8 46.3 49.2 46.3 50.9 65.3 51.5 65.7 50.8 67.6 43.2 67.7 43 67.6 42.7 67.2 42.4 67.2 42.1 67.7 41.8 67.4 41.8 66.8 41.3 66.6 40.2 67.1 39.7 68.1 39.5 68 39.1 67.2 39 66.7 38.5 66.7 37.8 66.9 37.8 67.7 37.9 68 37.6 68.6 37 68.7 36.5 69.1 36.5 69 36.4 68.7 35.8 68.4 35.4 68.2 35.3 67.8 34.8 67.7 34.8 67.2 34.4 66.8 34.3 66.3 34.1 66.1 33.7 66.1 33.6 66 33.2 66.2 32.9 66 32.9 65.8 32.5 65.2 31.9 65.1 30.9 64.8 30.5 64.8 29.4 65.2 28.3 65.4 27.8 65.8 27.5 65.8 27.1 66.1 27.3 65.2 27.6 63.9 28.1 63.2 28.3 61.6 27.8 59.4 27.2 58.4 27.5 58.3 27.8 58.3 27.9 57.5 27.8 57.1 28 56.8 27.4 55.9 27.1 56.1 27 56 26.8 55.5 26.3 56 26.3 55.2 26.5 54.7 26.5 54.6"/><polygon class="cls-22" points="36.5 69.1 37 68.7 37.6 68.6 37.9 68 37.8 67.7 37.8 66.9 38.5 66.7 39 66.7 39.1 67.2 39.5 68 39.7 68.1 40.2 67.1 41.3 66.6 41.8 66.8 41.8 67.4 42.1 67.7 42.4 67.2 42.7 67.2 43 67.6 43.2 67.7 50.8 67.6 51.5 65.7 50.9 65.3 49.2 46.3 51.8 46.3 66 55.6 66.2 56.6 66.6 57.1 67.4 57 68.1 57.2 68.4 57.7 69 57.8 69.4 58.2 69.4 58.5 69.1 59.2 69.3 59.5 69.8 59.7 70.8 59.6 71.6 59.3 71.6 59.4 71.5 63.5 71.4 65.4 71 65.7 70.9 66.4 70.8 66.9 69.7 67.5 69.1 67.8 68.4 67.8 67.8 68.3 67.4 68.3 66.5 68.3 65.9 68.5 65.4 68.5 63.9 68.6 63.4 68.5 63.4 68.6 63.2 68.5 62.8 68.4 62.2 68.2 61.7 68.3 60.6 68.5 60 68.8 59.4 69.3 57.8 70.2 56.6 71 56.4 71.4 55.3 71.8 55 71.7 54.4 71.7 54.3 72 54 72.1 53.5 73 53.5 73.3 53.1 73.9 52.4 75 51.9 75.4 51.5 75.7 51.7 76.1 51.7 76.8 51.3 76.8 51.3 77.3 51.5 77.6 51.3 78.1 51.1 78.3 50.7 78.9 50 78.7 49.8 78.5 50 78.3 49.4 78.2 48.7 78.4 48.7 78.6 48.5 78.7 47.6 78.7 47.1 78.4 46.8 78.4 46.2 78.8 46.2 78.5 46 78.3 45.4 78.2 45.4 78 45.3 77.7 45.3 77.3 45 77.3 44.8 77.6 44.4 77.7 44.6 77.1 45 76.6 45 76.3 44.5 76.2 44.3 76 44.4 75.4 44.2 75 43.7 74.6 43.7 74.4 43.3 74.5 43.1 74.6 42.5 74.4 42.1 74.4 41.7 75 41.4 75 41 75.4 40.4 75.4 39.9 75 39.6 74.9 39.2 75.1 38.9 75 38.9 75 39 74.7 39 74.3 38.5 74 38.5 73.7 38.6 73.4 38.6 73.2 38.3 72.9 38.2 72.6 38 72.4 37.8 72.4 37.5 72.2 37.3 71.6 36.7 71.1 36.7 70.9 36.9 70 36.8 69.7 36.8 69.3 36.5 69.1"/><polygon class="cls-14" points="51.3 78.1 51.5 77.6 51.3 77.3 51.3 76.8 51.7 76.8 51.7 76.1 51.5 75.7 51.9 75.4 52.4 75 53.1 73.9 53.5 73.3 53.5 73 54 72.1 54.3 72 54.4 71.7 55 71.7 55.3 71.8 56.4 71.4 56.6 71 57.8 70.2 59.4 69.3 60 68.8 60.6 68.5 61.7 68.3 62.2 68.2 62.8 68.4 63.2 68.5 63.4 68.6 63.3 68.8 63.2 69.4 62.9 69.8 62.9 70.5 65 71.8 65 72.7 65.8 73.3 66.7 72.8 66.9 72.9 67 73.2 67.1 73.3 67.2 73.7 66.9 74.1 67.4 74.7 67.6 74.7 67.6 75 67.1 75.6 66.7 75.6 66 76 65.8 75.8 65.4 76.1 65.4 76.4 65 76.7 65.1 77.1 64.6 77.3 64.5 77.5 62.3 76.9 62.1 76.9 62.1 76.9 61.9 76.9 61.4 77.1 60.9 77.1 60.1 77.3 59 77.3 58.8 77.4 57.2 77.4 56.5 77.4 56.4 77.9 56.6 78.6 56.8 78.7 57 79.3 57.1 80 56.6 79.9 56.3 79.7 56 79.7 55.6 80 55.1 80.1 54.4 79.7 54.2 79.4 53.7 79.2 53.4 79.2 53.1 79 52.8 79 52 78.6 51.4 78.1 51.3 78.1"/><polygon class="cls-14" points="27.1 66.1 27.5 65.8 27.8 65.8 28.3 65.4 29.4 65.2 30.5 64.8 30.9 64.8 31.9 65.1 32.5 65.2 32.9 65.8 32.9 66 33.2 66.2 33.6 66 33.7 66.1 34.1 66.1 34.3 66.3 34.4 66.8 34.8 67.2 34.8 67.7 35.3 67.8 35.4 68.2 35.8 68.4 36.4 68.7 36.5 69 36.8 69.3 36.8 69.7 36.9 70 36.7 70.9 36.7 71.1 37.3 71.6 37.5 72.2 37.8 72.4 38 72.4 38.2 72.6 38.3 72.9 38.6 73.2 38.6 73.4 38.5 73.7 38.5 74 39 74.3 39 74.7 38.9 75 38.9 74.6 38.4 74.6 38.2 74.4 37.8 74.3 37.5 74.5 36.8 74.3 36.1 74.3 35.7 74 34.9 73.6 33.5 73.6 33.1 73.6 33.1 73.7 32.6 73.5 30.6 73.5 29.8 73.8 29.4 74.3 28 74.2 27.3 74.5 26.8 74.4 26.8 74 26.6 73.8 27 73.9 27.2 74 27.7 73.7 26.9 73.4 26.5 73.7 26.3 73.5 26.6 73.3 26.6 72.8 26.8 72.6 28.1 72.6 28.5 72.2 28.9 72.1 29.3 71.8 29.6 71.8 29.8 71.9 30.1 71.7 30.3 71.6 30.8 71.9 31.3 71.9 31.8 72.1 32.5 72.4 33 72.4 33.1 72.1 33 71.9 32.8 71.9 31.8 71.3 31.4 71.3 30.8 70.9 30.2 70.9 29.8 70.8 29.3 71 28.5 71.6 28.1 71.6 27.9 71.8 26.9 71.7 26.8 71.6 27.1 71.3 26.6 71 26.8 71 26.8 70.5 26.3 70.5 25.9 69.6 25.1 69 26.5 67.8 27 66.8 27.1 66.1"/><polygon class="cls-3" points="26.6 72.8 26.8 72.6 28.1 72.6 28.5 72.2 28.9 72.1 29.3 71.8 29.6 71.8 29.8 71.9 30.1 71.7 30.3 71.6 30.8 71.9 31.3 71.9 31.8 72.1 32.5 72.4 33 72.4 33.1 72.1 33 71.9 32.8 71.9 31.8 71.3 31.4 71.3 30.8 70.9 30.2 70.9 29.8 70.8 29.3 71 28.5 71.6 28.1 71.6 27.9 71.8 26.9 71.7 27 72.1 27.5 72.3 28 72.2 27.7 72.5 27.1 72.5 26.7 72 26.3 72.4 26.6 72.7 26.6 72.8"/><polygon class="cls-17" points="26.8 74.4 27.3 74.5 28 74.2 29.4 74.3 29.8 73.8 30.6 73.5 32.6 73.5 33.1 73.7 33.2 74.3 33.1 74.6 33.1 75.4 33.3 75.6 33.3 76 33 76.3 32.2 76.4 31.6 76.8 31.2 76.9 30.9 77.4 30.4 77.5 30.3 77.4 30.4 77 29.4 77.1 30 76.6 29.7 76.6 29.8 76.4 29.6 76.2 29.3 76.1 29.1 75.9 30.2 75.9 30.4 75.8 29.8 75.5 29.3 75.6 28.8 75.8 28.5 75.7 28.4 75.5 28 75.5 27.6 75.1 28 74.8 27.6 74.7 26.9 74.7 26.8 74.4 26.8 74.4"/><polygon class="cls-3" points="30.9 77.4 31.2 76.9 31.6 76.8 32.2 76.4 33 76.3 33.3 76 33.3 75.6 33.1 75.4 33.1 74.6 33.2 74.3 33.1 73.6 33.5 73.6 34.9 73.6 35.7 74 36.1 74.3 36.8 74.3 37.5 74.5 37.8 74.3 38.2 74.4 38.4 74.6 38.9 74.6 38.9 75 39.2 75.1 39.6 74.9 39.9 75 40.4 75.4 41 75.4 41.4 75 41.7 75 42.1 74.4 42.5 74.4 43.1 74.6 43.3 74.5 43.7 74.4 43.7 74.6 44.2 75 44.4 75.4 44.3 76 44.5 76.2 45 76.3 45 76.6 44.6 77.1 44.4 77.7 44.8 77.6 45 77.3 45.3 77.3 45.3 77.7 45.4 78 45.4 78.2 46 78.3 46.2 78.5 46.2 78.8 46 78.9 45.2 79.2 45.2 79.5 45.4 79.7 45.5 80.7 45.3 81 45.4 81.8 45.6 81.9 45.9 82.4 45.9 82.7 45.5 82.6 45.3 82.8 45.3 83.1 45.7 83.5 45.8 83.7 45.8 84.2 45.2 85.4 44.8 85.5 44.7 85.8 44.8 86.2 44.5 87 44.2 87.3 44.2 87.5 40.9 88.6 40.1 88.1 39.8 88.1 39.3 87.3 38.9 87.1 39.1 86.8 39 86.8 39.9 86.2 40.1 83.3 40.1 83 39.9 82.9 39.9 82.5 40.2 82.4 40.2 82 39.8 81.6 39.9 81.3 39.4 80.3 39.1 80 38.8 79.4 37 79.4 36.4 79.6 36.1 80 35.5 80.5 35.5 80.8 34.8 81.2 34.5 81.2 34.2 80.9 33.6 80.6 33.5 80 33 80 32.8 79.8 32.8 79.4 33 79.3 32.6 79.1 32.4 79.4 32.1 79.2 31.6 79.2 31.1 78.5 31.3 77.7 31 77.4 30.9 77.4"/><path class="cls-6" d="M35.9,85.7v-.3l-.2-.2h-.2v.3l.3.2h.2-.1ZM34.5,81.2h.3l.7-.4v-.3l.6-.5.3-.4.6-.2h1.8l.3.6.2.4.5.9v.3l.3.4v.3h-.3v.5h.2v3.2l-1.1.6h-1.1l-1.2-.6h-.5v-.4l-.3-.3-.3-.3.2-.4h-.4l-.5-.5v-.5l-.2-.7h-.4l-.2-.4.3-.6-.3-.2v-.3l.3-.4h0v.3l.2-.1Z"/><polygon class="cls-14" points="38.2 86.6 38.3 86.3 38.5 85.8 39 85.5 39.5 85 39.4 84.7 39.6 84.1 39.9 83.9 39.9 83.6 40 83.2 40.6 82.9 40.8 83 41.7 82.7 42.1 82.9 42.4 83.4 42.8 83.6 42.8 84.5 42.7 84.9 43.2 85.6 43.5 85.5 44.1 85 44.3 85.1 44.7 85.4 44.8 85.6 44.7 85.8 44.8 86.2 44.5 87 44.2 87.3 44.3 87.8 44.6 87.9 44.8 87.8 45.2 87.8 45.4 88.1 45.7 88 46 88.1 46.1 88.6 46.4 88.8 46.7 88.8 46.8 89.2 46.6 89.5 46.7 89.7 46.5 90 46.4 90.4 46.6 90.7 46.4 91.2 46.6 91.6 46.6 92.1 44.5 91.3 42.8 90.1 42.4 90 41 88.7 40.1 88.1 39.8 88.1 39.3 87.3 38.9 87.1 39.1 86.8 38.7 86.6 38.2 86.6"/><polygon class="cls-1" points="46.6 92.1 46.6 91.6 46.4 91.2 46.6 90.7 46.4 90.4 46.5 90 46.7 89.7 46.6 89.5 46.8 89.2 46.7 88.8 46.4 88.8 46.1 88.6 46 88.1 45.7 88 45.4 88.1 45.2 87.8 44.8 87.8 44.6 87.9 44.3 87.8 44.2 87.3 44.5 87 44.8 86.2 44.7 85.8 44.8 85.5 45.2 85.4 45.8 84.2 45.8 83.7 45.7 83.5 45.3 83.1 45.3 82.8 45.5 82.6 45.9 82.7 45.9 82.4 45.6 81.9 45.4 81.8 45.3 81 45.5 80.7 45.4 79.7 45.2 79.5 45.2 79.2 46 78.9 46.8 78.4 47.1 78.4 47.6 78.7 48.5 78.7 48.7 78.6 48.7 78.4 49.4 78.2 50 78.3 49.8 78.5 50 78.7 50.7 78.9 51.1 78.3 51.4 78.1 52 78.6 52.8 79 53.1 79 53.4 79.2 53.7 79.2 54.2 79.4 54.4 79.7 55.1 80.1 55.6 80 56 79.7 56.3 79.7 56.6 79.9 57.1 80 57.1 80.1 56.9 80.8 57.1 81.3 57.1 81.7 57.4 81.9 57.6 82.5 57.4 83 57.4 83.4 57 83.7 56.3 84.7 56.3 85.1 56.2 85.4 56.1 85.9 55.9 86.2 56 87.2 55.8 87.3 55.8 87.5 56 87.8 56.3 88.6 56.4 89.1 56.9 89.2 57.1 89.6 57 90.2 56.7 90.3 56.3 90.3 56.2 90.4 55.9 89.9 55.5 90 55.4 90.5 54.4 90 53.3 90.4 50.5 90.4 49.7 90.5 49.7 90.7 48.2 91.3 48 91.5 47.5 91.5 46.8 92.1 46.6 92.1"/><polygon class="cls-6" points="56.2 90.4 56.3 90.3 56.7 90.3 57 90.2 57.1 89.6 56.9 89.2 56.4 89.1 56.3 88.6 56 87.8 55.8 87.5 55.8 87.3 56 87.2 55.9 86.2 56.1 85.9 56.2 85.4 56.3 85.1 56.3 84.7 57 83.7 57.4 83.4 57.4 83 57.6 82.5 57.4 81.9 57.1 81.7 57.1 81.3 56.9 80.8 57.1 80.1 57 79.3 56.8 78.7 56.6 78.6 56.4 77.9 56.5 77.4 57.2 77.4 58.8 77.4 59 77.3 60.1 77.3 60.9 77.1 61.4 77.1 61.9 76.9 62.1 76.9 62.3 77.5 62.5 77.7 62.5 78 63 78.5 63.2 78.7 63.6 79.1 63.5 79.7 63.5 80.4 63.7 80.6 63.9 80.7 64 81.4 63.8 81.7 63.7 82 64 82.2 64 82.6 63.8 82.9 64 83.2 64 83.9 64.1 84.3 64.2 85.5 63.9 86 63.9 86.2 63.8 86.8 63.9 87.3 64.1 87.9 64.3 88 64.6 88.2 64.8 88.6 63.6 88.7 62.6 89.2 61.5 90.2 60.2 90.3 58.3 91.2 57.5 90.8 56.3 90.6 56.2 90.4"/><polygon class="cls-3" points="64.5 77.5 62.3 76.9 62.1 76.9 62.3 77.5 62.5 77.7 62.5 78 63 78.5 63.2 78.7 63.6 79.1 63.5 79.7 63.5 80.4 63.7 80.6 63.9 80.7 64 81.4 63.8 81.7 63.7 82 64 82.2 64 82.6 63.8 82.9 64 83.2 64 83.9 64.1 84.3 64.2 85.5 63.9 86 63.9 86.2 63.8 86.8 63.9 87.3 64.1 87.9 64.3 88 64.6 88.2 64.8 88.6 65 88.6 66.1 87.8 66.4 87.9 66.4 87.5 66.1 87 66.1 86.4 66 85.8 66 83.2 66.1 82.9 66.3 82.6 66.3 82.1 66.1 81.7 66.1 81.1 66 80.2 65.5 79.1 65.3 79 65 78.7 64.5 78.4 64.4 77.7 64.5 77.5"/><polygon class="cls-1" points="67.6 74.7 67.6 75 67.1 75.6 66.7 75.6 66 76 65.8 75.8 65.4 76.1 65.4 76.4 65 76.7 65.1 77.1 64.6 77.3 64.4 77.7 64.5 78.4 65 78.7 65.3 79 65.5 79.1 66 80.2 66.1 81.1 66.1 81.7 66.3 82.1 66.3 82.6 66.1 82.9 66 83.2 66 85.8 66.1 86.4 66.1 87 66.4 87.5 66.4 87.9 67.1 88 68.6 87.5 68.7 87.5 68.6 87.1 68.7 86 68.6 85.6 68.7 85.3 68.6 84.4 68.6 84.1 68.6 83.8 68.6 83.7 68.6 83.5 68.6 83.2 68.5 83 68.6 82.5 68.6 82.2 68.6 81.8 68.7 81.6 69.1 81.4 69.3 81.4 69.5 81.2 69.7 80.8 70 80.3 70.1 80 70.4 79.7 70.7 79.8 70.8 79.6 70.4 79.1 70.4 78.9 70.6 78.6 71 78.6 71.1 78.3 70.9 77.5 70.9 77 70.3 76.5 70.2 76.2 70.3 75.8 70.4 75.7 69.9 75.1 69.4 75 69 74.5 68.3 73.9 68.1 74.3 68.2 74.5 67.8 74.6 67.6 74.7"/><path class="cls-6" d="M93.3,50.7l2.4-1,17.3,8.8.2,8.5h-.3l-.4.4-.4-.2h-.5l-.4.3v.5l.2.3-.2.5-.7.9h-.2l-.4.4v.3l.3.2-.2.5-.4.3v.3l.3.2v.4l-.2.3-.7.7v.5l.3.3.5-.4h.2v.4l-.2.2.3.2-.2.3.2.4v1l.8.2.2.3-.2.3v.6l-.7.2-.3-.2h-.5l-.4.3-.5.3v.6h-.2l-.4.7h-.4l-.3.3v.3l-.3.2v1l-.4.2-.4.3-1.4.2h-.6l-.3-.2h-.8l-.3.2v.3l.3.5h.2v.3l-.5.4-.3.3h-.6l-1.3.3-.5.4-.6.2-.6.4h-.6v-.6l-.4-.2-.2.2v.4l-.3.5c-.47.03-.93.07-1.4.1v-.4c-.1-.07-.2-.13-.3-.2-.07.01-.14.02-.21.04-.83-.76-1.66-1.51-2.49-2.27-.41-1.02-.83-2.04-1.24-3.06.95.02,1.9.04,2.85.06-.24-.47-.48-.93-.72-1.4-.08-1.28-.16-2.55-.25-3.83-.47-.43-.95-.86-1.42-1.29-.17-.32-.34-.63-.52-.95l-.6-.7h-.3l-.2-2.8v-.3h.5v-.3l3.6-3.7v-3.2l.5-4.1.3-.3v-.8l-1.4-1.7v-.2c-.23-1.13-.47-2.27-.7-3.4ZM88.7,72.8l-.2.3h-.5l.7-.2h0v-.1Z"/><polygon class="cls-3" points="70.4 75.7 69.9 75.1 69.4 75 69 74.5 68.3 73.9 68.1 74.3 68.2 74.5 67.8 74.6 67.4 74.7 66.9 74.1 67.2 73.7 67.1 73.3 67 73.2 66.9 72.9 66.7 72.8 65.8 73.3 65 72.7 65 71.8 62.9 70.5 62.9 69.8 63.2 69.4 63.3 68.8 63.4 68.5 63.9 68.6 65.4 68.5 65.9 68.5 66.5 68.3 67.4 68.3 67.8 68.3 68.4 67.8 69.1 67.8 69.7 67.5 70.8 66.9 70.9 66.4 71 65.7 71.4 65.4 71.5 63.5 71.6 59.4 74.9 58.6 77.6 56.1 87.2 50.1 91 51.1 91.4 51.5 93.3 50.7 93.5 50.9 94.6 53.9 94.5 54.5 94.4 54.7 95.8 56.5 95.8 57.3 95.5 57.6 94.9 61.6 95 64.8 91.4 68.4 91.3 68.7 91 68.8 90.8 68.8 90.7 69 90.9 71.8 90.5 71.6 90.3 72 90.2 72.3 90 72.4 89.7 72.2 89.4 72.3 89.3 72.6 88.8 72.7 88.7 72.8 88.1 73.1 87.8 72.9 87.2 72.9 86.5 72.5 85.6 72.4 85.1 72.6 84 72.6 83.5 72.7 83 73.5 82.5 73.8 82.1 73.7 81.2 73.4 80.7 73.3 80 73 79.6 72.8 79.6 72.6 79.2 72.3 78.9 72.3 78.8 72.4 78.2 72.5 77.9 72.7 77.6 72.7 77.3 73 77.1 73.1 76.7 72.8 76.2 72.1 76 71.9 75.4 71.7 75 71.6 74.8 71.4 74.2 71.4 73.9 71.3 73.6 71.3 73.4 71.5 72.7 71.4 72.6 71.5 72.2 71.4 71.8 71.5 71.6 71.6 71.4 71.7 70.9 72.1 70.8 72.3 70.9 72.5 70.9 72.6 70.8 72.8 70.9 73.2 71 73.4 71.1 73.7 70.7 73.7 70.2 74.1 70.3 74.4 70.2 74.6 70.4 75.2 70.7 75.2 70.7 75.4 70.4 75.7"/><polygon class="cls-5" points="92.1 73.1 92.1 73.1 91.7 72.6 91.2 71.9 90.5 71.6 90.3 72 90.2 72.3 90 72.4 89.7 72.2 89.4 72.3 89.3 72.6 88.8 72.7 88.6 73.1 88.3 73.2 87.8 72.9 87.2 72.9 86.5 72.5 85.6 72.4 85.1 72.6 84 72.6 83.5 72.7 83 73.5 82.5 73.8 82.1 73.7 81.2 73.4 80.7 73.3 80 73 79.6 72.8 79.6 72.6 79.2 72.3 78.9 72.3 78.8 72.4 78.2 72.5 77.9 72.7 77.6 72.7 77.3 73 77.1 73.1 76.7 72.8 76.2 72.1 76 71.9 75.4 71.7 75 71.6 74.8 71.4 74.2 71.4 73.9 71.3 73.6 71.3 73.4 71.5 72.7 71.4 72.6 71.5 72.2 71.4 71.8 71.5 71.6 71.6 71.4 71.7 70.9 72.1 70.8 72.3 70.9 72.5 70.9 72.6 70.8 72.8 70.9 73.2 71 73.4 71.1 73.7 70.7 73.7 70.2 74.1 70.3 74.4 70.2 74.6 70.4 75.2 70.7 75.2 70.7 75.4 70.3 75.8 70.2 76.2 70.3 76.5 70.9 77 70.9 77.5 71.1 78.3 71 78.6 70.6 78.6 70.4 78.9 70.4 79.1 70.8 79.6 70.7 79.8 70.4 79.7 70.1 80 70 80.3 69.7 80.8 69.5 81.2 69.3 81.4 69.1 81.4 68.7 81.6 68.6 81.8 68.6 82.2 68.6 82.5 68.5 83 68.6 83.2 68.6 83.5 68.6 83.7 68.6 83.8 68.6 84.1 68.6 84.4 68.7 85.3 68.6 85.6 68.7 86 68.6 87.1 68.7 87.5 69.5 87.7 70.2 87.4 71.8 88.2 72.7 89.1 73.2 90.1 73.2 90.8 73.5 91 73.7 91.7 74.3 92.2 75.1 92.4 77.2 92.3 77.6 92 77.9 92.2 78.9 91.8 79.2 92 79.8 91.8 80 91.2 80.4 91.7 80.5 91.6 80.6 91.6 80.6 91.3 81.1 90.6 81.3 90.1 81.3 89.6 81.2 89.1 81.5 89 81.5 88.7 81.8 88.3 82.2 88.1 82.4 87.9 83 87.4 83 86.9 83.1 86.7 83.6 86.7 83.8 86.4 83.9 86.5 84.5 86.7 84.7 86.7 85.1 86.9 85.3 87.3 85.7 87.6 86 87.7 86.4 87.4 86.7 87 86.7 86.8 86.9 86.5 87.2 86.4 87.4 86 87.4 85.7 87.6 85.2 88.2 84.6 88.3 84.2 88.2 83.9 88.4 83.6 89 83 89.4 82.7 89.5 82.2 89.6 81.9 89.6 81.2 89.9 81 90.4 80.8 90.8 80.3 90.9 79.8 90.9 79.3 90.8 78.9 91.1 78.5 91.4 77.8 91.7 77.6 91.7 77.4 92.1 77.1 92.4 77.1 92.7 76.8 93.2 76.6 93.2 76.3 93 75.7 93 75.5 92.9 75.1 92.5 75 92.3 74.6 92.3 74 92.3 73.7 92.1 73.1 92.1 73.1"/><polygon class="cls-7" points="75.9 101.5 75.9 101.1 76.1 100.8 76.5 101.1 76.3 101.4 76.1 101.5 75.9 101.5"/><polygon class="cls-17" points="79.9 94.5 80 94.2 80.2 94.2 80.4 93.7 80.9 93.2 81 93.3 81 94 80.7 94.8 80.3 94.7 79.9 94.5"/><polygon class="cls-3" points="80.6 91.6 80.6 91.3 81.1 90.6 81.3 90.1 81.3 89.6 81.2 89.1 81.5 89 81.5 88.7 81.8 88.3 82.2 88.1 82.4 87.9 83 87.4 83 86.9 83.1 86.7 83.6 86.7 83.8 86.4 83.9 86.5 84.5 86.7 84.7 86.7 85.1 86.9 85.3 87.3 85.7 87.6 86 87.7 86.4 87.4 86.7 87 86.7 86.8 86.9 86.5 87.2 86.4 87.4 86 87.4 85.7 87.6 85.2 88.2 84.6 88.3 84.2 88.2 83.9 88.4 83.6 89 83 89.4 82.7 89.5 82.2 89.6 81.9 89.6 81.2 89.9 81 90.4 80.8 90.8 80.3 90.9 79.8 90.9 79.3 90.8 78.9 91.1 78.5 91.4 77.8 91.7 77.6 91.7 77.4 92.1 77.1 92.4 77.1 92.7 76.8 93.2 76.6 93.2 76.3 93 75.7 93 75.5 92.9 75.1 92.5 75 92.3 74.6 92.3 74 92.3 73.7 92.1 73.1 93.1 73.7 93.6 74.1 93.7 74.7 93.9 74.9 94 75.3 94.3 75.9 94.2 76.2 94.1 76.4 94.1 76.6 94.4 76.9 94.2 77.4 94 77.7 94 78.1 94.4 78.7 94.7 78.8 94.8 79.3 95.4 79.8 95.6 79.9 95.3 80 95 80 94.8 79.8 94.3 79.8 94 79.8 93.7 79.8 93.4 79.8 93.1 79.8 92.8 79.8 92.4 79.8 92.4 80.2 92.3 80.4 92.3 80.7 92.4 81 92.6 81.1 92.6 81.4 93 81.5 93.8 82.2 94.6 83 94.9 83.3 95.2 83.9 95.6 84.4 95.6 84.9 95.2 85.5 94.9 85.6 94.7 86.1 94.3 86.8 94.1 87.3 93.7 87.9 93.4 88 93.2 88.3 93.3 88.8 93.5 89.3 93.4 89.9 93.6 90.4 93.6 90.9 93.6 91.8 93.8 91.9 94.4 92.2 94.8 92.6 94.9 93.1 95.4 93.9 95.8 94.5 96 94.8 96.7 95.3 96.8 95.7 96.8 96.1 96.9 96.2 96.9 96.3 96.9 96.3 96.7 96.6 96.5 97 96.4 97.2 96.6 97.5 96.5 97.7 96.3 97.8 96.2 97.6 96.1 97.7 95.9 97.6 95.7 97.5 95.2 97.5 95 97.6 94.7 97.4 94.6 97.3 94.5 97.5 94.3 97.5 94.2 97.3 93.9 97.3 93.7 97.3 93.5 97.1 93.3 97.1 93.2 97.2 92.9 97.1 90.2 97 90.1 96.9 89.9 96.9 89.8 96.9 89.2 96.9 89.2 96.8 88.9 96.8 88.5 96.9 88.3 96.8 87.7 96.8 87.5 96.8 86.9 96.8 86.7 96.9 86.5 96.9 86.3 97 86.2 97.1 86.2 97.1 83.6 97.1 83.5 97 83.2 97 83 97 83.3 96.7 83 96.4 83.3 95.6 83.2 94.8 82.8 94.2 82.8 93.6 83 93.4 82.6 92.8 82 93.1 81.8 92.9 81.4 92.8 81.2 91.5 80.8 91.7 80.6 91.6"/><polygon class="cls-21" points="86.2 97.1 86.3 97 86.5 96.9 86.7 96.9 86.9 96.8 87.5 96.8 87.7 96.8 88.3 96.8 88.5 96.9 88.9 96.8 89.2 96.8 89.2 96.9 89.8 96.9 89.9 96.9 90.1 96.9 90.2 97 90.2 97 90.1 97.5 90.2 97.9 90.2 98.4 90.3 98.8 90.2 99 90.4 99.1 90.8 99 91.1 99 91.5 98.9 92 98.7 92.7 98.8 92.9 98.9 93 99.6 92.8 99.8 92.9 100.1 92.9 100.5 92.5 100.5 92 100.8 92 101.1 92.1 101.2 92.2 101.5 92.1 101.6 92 101.7 91.7 101.8 91.7 101.9 91.9 102.1 92 102.3 92.2 102.4 92.3 102.6 92.6 102.9 92.7 103.1 92.9 103.3 92.9 103.8 92.7 104.6 92.2 106.2 92.3 106.6 92.3 107 92 107 91.9 106.7 91.5 106.5 91 106.5 90.8 106.7 90.5 106.6 90 106.8 89.7 106.4 89.4 105.6 89 105.5 88.7 105.8 88.8 106.3 88.7 106.6 88 106.7 87.6 106.7 87.5 106.9 87.3 107.1 86.9 106.9 86.5 106.9 86.2 107.1 86.4 107.4 86.4 107.8 86.7 107.7 87 107.7 87.2 107.8 87.6 108.1 87.6 109.2 87.6 109.5 87 109.1 86.8 109.1 86.7 109.3 86.3 109.3 86.1 109.4 86.1 109.7 85.8 110.1 85.7 110.1 85.3 109.9 85.2 109.6 84.5 109.2 84.2 108.7 83.3 107.9 82.7 107.3 82.9 107.2 82.3 106.7 82.1 106.2 81.7 105.9 81.7 105.3 81.4 104.8 81.4 104.4 81.1 104.2 80.7 103.3 80.7 103 81.2 103.2 81.6 102.9 81.7 101.7 81.8 101.1 82 101.3 83 101.1 82.3 100.9 81.9 100.3 82.3 100.2 82.4 99.7 82.6 99.7 82.9 99.6 83.1 99.5 83.2 99.6 86.2 99.6 86.2 97.1"/><polygon class="cls-17" points="82.4 99.7 82.6 99.7 82.9 99.6 83.1 99.5 83.2 99.6 86.2 99.6 86.2 97.1 83.6 97.1 83.5 97 83.2 97 83 97 82.9 97.1 83 97.5 82.4 98.3 81.8 99.3 82.4 99.6 82.4 99.7"/><polygon class="cls-14" points="85.8 110.1 86.1 109.7 86.1 109.4 86.3 109.3 86.7 109.3 86.8 109.1 87 109.1 87.6 109.5 87.6 109.2 87.6 108.1 87.2 107.8 87 107.7 86.7 107.7 86.4 107.8 86.4 107.4 86.2 107.1 86.5 106.9 86.9 106.9 87.3 107.1 87.5 106.9 87.6 106.7 88 106.7 88.7 106.6 88.8 106.3 88.7 105.8 89 105.5 89.4 105.6 89.7 106.4 90 106.8 90.5 106.6 90.8 106.7 91 106.5 91.5 106.5 91.9 106.7 92 107 92.3 107 92.3 106.6 92.2 106.2 92.7 104.6 92.9 103.8 92.9 103.3 92.7 103.1 92.6 102.9 92.3 102.6 92.2 102.4 92 102.3 91.9 102.1 91.7 101.9 91.7 101.8 92 101.7 92.1 101.6 92.2 101.5 92.1 101.2 92 101.1 92 100.8 92.5 100.5 92.9 100.5 92.9 100.1 92.8 99.8 93 99.6 92.9 98.9 92.7 98.8 92 98.7 91.5 98.9 91.1 99 90.8 99 90.4 99.1 90.2 99 90.3 98.8 90.2 98.4 90.2 97.9 90.1 97.5 90.2 97 92.9 97.1 93.2 97.2 93.3 97.1 93.5 97.1 93.7 97.3 93.9 97.3 94.2 97.3 94.3 97.5 94.5 97.5 94.6 97.3 94.7 97.4 95 97.6 95.2 97.5 95.7 97.5 95.9 97.6 96.1 97.7 96.2 97.6 96.3 97.8 96.5 97.7 96.6 97.5 96.4 97.2 96.5 97 96.7 96.6 96.9 96.3 97.9 94.7 98.4 94.1 98.8 94.1 99 93.8 99.9 93.5 100.2 93.5 100.4 93.3 100.8 93.3 101.1 93.3 101.2 93.5 101.6 93.7 101.8 93.6 102.1 93.6 102.1 93.7 102.3 94.1 102.3 95 101.9 95.2 101.8 95.6 100.9 96.8 101 97.5 100.9 98 100.9 98.5 100.6 98.9 100.5 99.5 100.6 99.8 100.5 100.4 100.5 100.5 100.5 101.2 100.2 101.3 100 102 100 102.7 99.3 103.9 98.9 104 98.5 104.3 98.2 104.2 97.7 104.5 97.3 105 97.3 105.5 96.6 106.2 96.4 106.7 96.5 107.3 96.6 107.4 96.5 108.6 96.4 109.2 96.4 109.6 96.1 110.2 95.7 110.3 95.3 110.5 95.2 110.8 94.3 111.7 94 112.1 93.5 112.3 93 112.1 92.9 111.7 92.7 111.6 93 111.1 93 110.9 92.4 111.1 91.9 111.5 91.6 111.4 91.3 111.5 91.3 111.9 91.1 112.2 90.7 112.2 90.7 112 90.6 111.8 90.2 111.9 90 111.9 89.9 112 89.9 111.6 89.7 111.3 89.5 111.1 89.3 111.1 88.9 111.4 88.6 111.5 88.5 111.9 88.1 112.1 88 112.1 87.8 112.6 87.6 112.7 87.3 112.4 87.4 112 87 111.6 87 111.2 86.3 110.8 86.2 110.6 85.8 110.1"/><polygon class="cls-3" points="89.9 112 89.9 111.6 89.7 111.3 89.5 111.1 89.3 111.1 88.9 111.4 88.6 111.5 88.5 111.9 88.1 112.1 88 112.1 87.8 112.6 87.6 112.7 87.8 113 88 113.6 87.7 114.1 87.9 114.3 88.2 114.1 88.6 114 88.9 113.7 88.9 113 89 112.7 89.5 112.4 89.9 112"/><polygon class="cls-11" points="127.7 104.1 127.9 104 128 104 128.2 103.8 130.9 103.8 135.3 103.6 143.2 108.2 143.6 108.9 143.5 109.1 143.6 109.4 143.7 109.6 146.4 111.5 146.4 111.5 146.4 111.6 146.5 111.9 146.4 112.2 145.9 113.6 145.5 114.5 145.6 115 146.2 115.5 146.6 116 146.9 116 147.2 116.8 147.1 117 146.9 117 146.6 117.1 146.5 117.7 146.5 118.5 146.9 118.8 146.8 119.3 146.5 119.5 146.6 120 146.8 120.6 146.7 120.6 146.8 120.9 146.9 121.3 147.2 121.5 146.9 121.8 147.2 122.1 147.4 122.7 147.3 123.1 148.1 123.8 148.6 123.9 149.1 124.3 149.1 124.5 149.2 124.5 149.1 124.5 148.9 124.8 148.5 124.7 148.2 125 147.9 125.3 147.5 125.3 147.2 125.6 146.7 125.7 146.5 125.9 146.2 126 145.9 125.9 145 126.1 144.9 126.3 144.5 126.3 144.2 126.1 143.9 126.2 143.5 126.1 143.3 126.2 143.4 126.4 143.3 126.8 142.7 126.8 142.2 127 142 126.8 141.7 126.8 141.7 126.7 141.4 126.5 141.2 126.7 141 126.7 140.5 127.1 139.9 127.3 140 127.1 139.7 126.8 139.5 126.8 139.2 126.6 138.9 126.5 138.9 126.4 138.6 126.4 138.5 126.6 138.2 126.7 136.1 126.7 135.7 128.2 135.7 124.6 135.6 123.8 134.9 123 134.6 122.8 134.4 122.6 134.3 122.5 134.2 122.4 134 122.3 133.8 122.3 133.6 122.4 133.5 122.2 133.3 122.2 133.1 121.9 132.9 121.9 132.8 122 132.8 122 132.7 122 132.3 121.6 132.1 121.2 131.9 121.2 131.7 121 131.4 121 130.4 120.6 130 120.6 129.8 120.4 129.7 120.2 129.4 120 129.2 120 128.9 119.9 128.6 119.9 127.9 119.5 127.4 117.8 125.8 115.7 125.3 113.2 125 111.4 126.1 111.4 126.8 111.2 127.2 110.7 127.8 110 128 109.8 128.3 109.5 128.7 109.2 128.7 108.9 128.6 108.2 128.3 108.2 128.2 107.9 127.9 107.7 127.9 107.5 127.8 107.3 127.8 107.1 127.9 107.2 128.1 107.2 128.3 107.1 128.5 106.9 128.6 106.6 128.7 106.3 128.7 105.9 128.5 105.3 128.3 105 128.2 104.7 128 104.5 127.7 104.1"/><polygon class="cls-17" points="125.6 104.6 125.7 104.6 126.1 104.5 126.4 104.3 126.7 104.4 126.8 104.5 127.1 104.5 127.3 104.4 127.3 104.1 127.7 104 128 104.5 128.2 104.7 128.3 105 128.5 105.3 128.7 105.9 128.7 106.3 128.6 106.6 128.5 106.9 128.3 107.1 128.1 107.2 127.9 107.2 127.8 107.1 127.8 106.9 127.6 106.8 127.4 106.5 127.2 106.4 127 106.3 126.8 106.3 126.9 106.6 126.6 107.3 126.6 107.5 126.2 107.7 125.9 107.5 125.8 107.5 125.7 107.6 125.3 107.5 125.2 107.1 124.9 107.1 124.6 107.1 124.4 107.1 124.4 106.8 124.7 105.5 125.1 105 125.6 104.6"/><polygon class="cls-1" points="125 111.4 126.1 111.4 126.8 111.2 127.2 110.7 127.8 110 128 109.8 128.3 109.5 128.7 109.2 128.7 108.9 128.6 108.2 128.3 108.2 128.2 107.9 127.9 107.7 127.9 107.5 127.8 107.3 127.8 106.9 127.6 106.8 127.4 106.5 127.2 106.4 127 106.3 126.8 106.3 126.9 106.6 126.6 107.3 126.6 107.5 126.2 107.7 125.9 107.5 125.8 107.5 125.7 107.6 125.3 107.5 125.2 107.1 124.9 107.1 124.6 107.1 124.4 107.1 124.3 107.4 124.6 107.8 124.7 108.3 124.7 108.8 125 111.4"/><polygon class="cls-27" points="87.9 114.3 88.2 114.1 88.6 114 88.9 113.7 88.9 113 89 112.7 89.5 112.4 90 111.9 90.2 111.9 90.6 111.8 90.7 112 90.7 112.2 91.1 112.2 91.3 111.9 91.3 111.5 91.6 111.4 91.9 111.5 92.4 111.1 93 110.9 93 111.1 92.7 111.6 92.9 111.7 93 112.1 93.5 112.3 94 112.1 94.3 111.7 95.2 110.8 95.3 110.5 95.7 110.3 96.1 110.2 96.4 109.6 96.4 109.2 96.5 108.6 96.6 107.4 96.5 107.3 96.4 106.7 96.6 106.2 97.3 105.5 97.3 105 97.7 104.5 98.2 104.2 98.5 104.3 98.9 104 99.3 103.9 100 102.7 100 102 100.2 101.3 100.5 101.2 100.5 100.5 100.5 100.4 100.6 99.8 100.5 99.5 100.6 98.9 100.9 98.5 100.9 98 101 97.5 100.9 96.8 101.8 95.6 101.9 95.2 102.3 95 102.3 94.1 102.1 93.7 102.1 93.2 102.2 92.9 102.4 92.7 102 92.3 102 92 102.3 92 102.5 91.9 102.5 91.6 102.7 91.4 102.7 91.1 102.9 90.9 103.1 90.9 103.5 90.6 103.8 90.7 103.9 90.5 104.1 90.5 104.4 90.7 104.7 90.8 105.3 91.3 105.6 91.4 106.2 91.9 106.3 92 106.8 92 107.2 92.2 107.8 92.3 108.1 92.3 108.3 92.2 108.6 92.2 109 92.4 109.5 92.5 109.7 92.6 110.2 92.5 110.3 92.3 110.1 92.1 110 91.9 110.4 91.5 110.7 91.1 111.1 91.1 111.5 91.2 111.8 91.5 112 91.4 113 91.3 113.1 91.1 113.5 90.9 114.4 90.5 114.6 90.6 114.7 90.7 114.8 90.7 114.9 91 115.1 91 115.4 90.8 115.9 90.8 116.2 90.7 116.5 90.7 116.7 90.3 116.6 90.2 116.7 90 117 90 117.2 90.2 117.6 90.2 117.9 90.2 118.1 90.3 118.4 90.4 118.7 90.6 119.5 90.6 119.7 90.7 120.3 90.4 120.8 90.4 121.2 90.6 121.4 90.7 121.4 91 121.7 91.3 121.9 91.4 122.2 91.6 122.6 92 123 92.2 123.3 92.1 123.4 91.8 123.7 91.7 124.2 91.7 124.5 91.7 124.5 91.8 124.7 91.8 125.2 91.7 125.4 91.5 125.6 91.2 126.1 91.2 126.2 91.3 126.5 91.9 126.7 92.2 126.9 92.3 127.4 92.5 127.7 92.7 127.8 93.1 127.9 93.3 128.1 93.6 128.1 93.8 128.2 93.8 128.7 93.8 128.9 93.9 128.8 94.3 128.6 94.6 128.6 95.2 128.4 95.9 128.4 96.5 128.6 96.6 128.8 96.9 129 97.3 129 97.5 127.9 99 127.2 99.8 127 100.1 126.2 101.6 126 101.8 126 102.4 125.9 103.2 125.6 104 125.7 104.5 125.1 105 124.7 105.5 124.4 106.8 124.3 107.4 124.6 107.8 124.7 108.3 124.7 108.8 125.3 113.2 125.8 115.7 127.4 117.8 127.9 119.5 127.6 119.4 124.1 120.2 123.2 121.9 123.3 122.4 123.5 122.6 123.7 122.7 123.7 123 123.6 123.1 123.6 123.4 123.6 123.7 123.6 124 123.6 124.5 123.4 124.6 123.5 124.7 123.3 124.9 122.9 125.3 122.9 125.6 122.9 126.8 122.9 127.4 123.2 127.6 123.8 128.2 123.9 128.5 124.1 128.8 125 128.8 125.1 128.7 125 128.5 124.9 128.3 125.4 128.2 125.7 128.3 125.8 130.6 125.7 130.8 125.3 130.7 125.3 130.6 125.1 130.6 124.8 130.7 124.4 130.8 124.2 130.8 123.7 130.4 123.3 129.9 122.9 129.5 122.5 128.9 122 128.6 121.2 128.4 120.7 128.1 120.6 127.8 120.3 127.4 120.3 126.8 120.1 126.8 119.9 126.9 119.7 126.9 119.4 127.5 119.4 127.7 118.8 127.9 118.4 127.9 118.4 127.8 117.9 127.7 117.5 127.6 117 127.3 116.7 127.3 116.3 127.1 116.2 127.1 116.2 126.9 116.1 126.6 116 126.4 116 126 115.9 126 115.3 126.1 115.2 126.3 114.9 126.3 114.6 126.4 114.3 126.6 114.2 126.6 114.1 126.4 114.1 126 114 125.9 113.6 125.8 113.4 125.8 113.2 125.7 113.2 125.6 112.8 125.7 112.5 125.8 112.1 126 111.9 126.1 111.7 126.1 111.5 126.1 110.9 126.1 110.7 126 110.4 125.8 110.2 125.8 110.1 125.8 109.9 125.9 109.7 126 109.5 126.1 109.5 125.9 109.5 125.5 109.6 125.4 109.6 125.3 109.7 124.9 109.5 124.7 109.4 124.3 109.5 124.2 109.5 123.9 109.2 123.7 109.2 123.4 109.3 123.2 109.3 122.9 109.1 122.9 108.9 122.6 108.8 122.5 108.8 122.3 108.6 122 108.6 121.8 108.5 121.6 108.7 121.2 108.6 120.4 108.5 120.1 108.6 120 108.7 119.8 108.7 119.5 108.4 119.2 108.5 118.8 108.7 118.5 108.7 118.1 108.7 117.8 108.7 117.6 106.2 117.4 106.1 117.2 106.2 116.9 106.3 116.7 105.6 116.6 105.6 116.8 103.5 116.8 103.4 117.5 103.3 117.8 103.1 117.9 103.2 118.3 103.2 118.9 101.6 119 101.3 119.2 100.5 119.1 100.3 119 99.9 119.1 99.3 119.2 99.1 119 99 118.3 98.7 117.8 98.5 117.6 98.3 117.4 98.3 117.2 98.2 117 98.1 116.5 97.9 116.1 97.9 115.8 98 115.6 97.9 115.3 97.7 115.1 97.7 114.8 97.7 114.7 97.7 114.4 95.5 114.4 94 114.4 93.2 114.5 92.5 114.5 92.2 114.4 91.6 114.5 91.1 114.5 90.6 114.5 90.3 114.4 90 114.4 89.7 114.5 89.3 114.6 89.2 114.7 89 114.7 88.9 114.8 88.9 114.8 88.8 114.8 88.8 114.8 88.6 114.6 88 114.6 87.9 114.3"/><polygon class="cls-17" points="132.8 122 132.9 121.9 133.1 121.9 133.3 122.2 133.5 122.2 133.6 122.4 133.8 122.3 134 122.3 134.2 122.4 134.3 122.5 134.4 122.6 134.6 122.8 134.9 123 135.6 123.8 135.7 124.6 135.7 128.2 135.6 128.6 135.9 130.6 136.6 130.9 136.9 131.2 137.1 131.5 137.3 131.5 138 132.2 138.2 132.6 138.7 133.2 138.8 133.8 139 134.1 139 134.3 138.7 134.4 138.6 134.6 138.4 134.6 138.3 134.8 138.4 135 138.4 135.2 138.6 135.4 138.6 136.2 138.4 136.5 138.1 136.8 137.7 136.9 137.5 137.5 137.4 137.9 137.2 138.3 137.4 138.8 137.3 139.2 136.9 139.3 136.7 139 136.9 138.7 136.6 138.3 136.4 138.1 136.1 138 135.7 137.6 135.4 137.2 135.3 136.8 135.1 136.4 135.1 136 135.4 135.6 135.5 135.1 135.9 134.6 135.9 134.1 135.9 133.6 135.7 133.2 135.2 133.1 134.7 133.1 134.5 133.3 134.3 133.3 134.1 133.4 133.7 133.2 133.7 132.9 133.5 132.7 133.5 132.5 133.3 132.3 132.7 132.4 132.7 132.2 132.5 131.8 132.2 131.4 132.2 131.2 132.4 131.1 132.7 130.7 132.7 130.4 132.8 130.2 132.7 130 132.7 129.7 132.8 129.5 133.3 129.2 133.6 129 133.7 128.8 133.9 128.8 133.9 128.6 133.6 128.4 133.6 128.2 133.5 128 133.6 127.9 133.7 127.6 133.5 127.3 133.7 127 133.6 126.8 133.6 126.4 133.4 126.1 133.5 125.7 134 125.2 134 125.1 134.1 124.9 134 124.5 133.9 124.2 133.6 123.9 133.5 123.7 133.7 123.2 133.8 123 133.5 122.9 133.2 122.7 133.1 122.4 132.9 122.3 132.8 122"/><polygon class="cls-21" points="113.2 125.7 113.4 125.8 113.6 125.8 114 125.9 114.1 126 114.1 126.4 114.2 126.6 114.3 126.6 114.6 126.4 114.9 126.3 115.2 126.3 115.3 126.1 115.9 126 116 126 116 126.4 116.1 126.6 116.2 126.9 116.2 127.1 116.3 127.1 116.7 127.3 117 127.3 117.5 127.6 117.9 127.7 118.4 127.8 118.4 127.9 118.8 127.9 119.4 127.7 119.4 127.5 119.7 126.9 119.9 126.9 120.1 126.8 120.3 126.8 120.3 127.4 120.6 127.8 120.7 128.1 121.2 128.4 122 128.6 122.5 128.9 122.9 129.5 123.3 129.9 123.7 130.4 124.2 130.8 124.4 130.8 124.8 130.7 125.1 130.6 125.3 130.6 125.3 130.7 125.7 130.8 125.8 130.6 125.7 128.3 125.4 128.2 124.9 128.3 125 128.5 125.1 128.7 125 128.8 124.1 128.8 123.9 128.5 123.8 128.2 123.2 127.6 122.9 127.4 122.9 126.8 122.9 125.6 122.9 125.3 123.3 124.9 123.5 124.7 123.4 124.6 123.6 124.5 123.6 124 123.6 123.7 123.6 123.4 123.6 123.1 123.7 123 123.7 122.7 123.5 122.6 123.3 122.4 123.2 121.9 124.1 120.2 127.6 119.4 128.6 119.9 128.9 119.9 129.2 120 129.4 120 129.7 120.2 129.8 120.4 130 120.6 130.4 120.6 131.4 121 131.7 121 131.9 121.2 132.1 121.2 132.3 121.6 132.7 122 132.8 122 132.9 122.3 133.1 122.4 133.2 122.7 133.5 122.9 133.8 123 133.7 123.2 133.5 123.7 133.6 123.9 133.9 124.2 134 124.5 134.1 124.9 134 125.1 134 125.2 133.5 125.7 133.4 126.1 133.6 126.4 133.6 126.8 133.7 127 133.5 127.3 133.7 127.6 133.6 127.9 133.5 128 133.6 128.2 133.6 128.4 133.9 128.6 133.9 128.8 133.7 128.8 133.6 129 133.3 129.2 132.8 129.5 132.7 129.7 132.7 130 132.8 130.2 132.7 130.4 132.7 130.7 132.4 131.1 132.2 131.2 132.2 131.4 132.5 131.8 132.7 132.2 132.7 132.4 132.7 132.4 132.1 132.6 130.8 133.1 130.4 133.2 128.2 134.1 127.8 134.1 126.9 134.5 126.8 134.9 126.9 135.5 126.9 135.8 126.9 135.8 126.7 135.8 126.2 135.7 126 135.8 125.9 135.6 125.3 135.6 124.9 135.8 124.6 135.9 124.2 136 123.7 136.3 123.5 136.7 123.5 136.9 123.4 137.1 123.5 137.3 123.4 137.4 123.3 137.6 122.5 137.8 121.3 138.7 120.2 140 119.6 140.9 119 141.1 118.6 141 118.3 140.7 118.2 140.7 118.1 140.6 118 140.6 117.8 140.5 117.3 140.6 117 140.9 116.7 140.9 116.5 140.7 116.1 140.5 115.6 140.4 115.4 140.4 115.1 140 115 140 114.9 139.9 114.6 139.9 114.5 139.8 114.4 139.8 114.3 139.7 113.8 139.9 113.6 139.8 111.5 140.3 111.4 140 111.1 139.8 110.9 139.5 110.7 139.3 110.4 139.2 110.1 138.9 109.7 138.4 109.4 138.2 109.2 138 109 137.8 108.7 137.4 108.6 137.1 108.7 130 113.3 130 113.2 129.7 113.3 129.1 113.5 129 113.5 128.6 113.2 128.2 113.2 127.7 113.2 127 113.1 126.1 113.2 125.9 113.2 125.7 113.2 125.7"/><polygon class="cls-3" points="111.5 140.3 111.4 140 111.1 139.8 110.9 139.5 110.7 139.3 110.4 139.2 110.1 138.9 109.7 138.4 109.4 138.2 109.2 138 109 137.8 108.7 137.4 108.6 137.1 108.7 130 113.3 130 113.2 129.7 113.3 129.1 113.5 129 113.5 128.6 113.2 128.2 113.2 127.7 113.2 127 113.1 126.1 113.2 125.9 113.2 125.7 113.2 125.6 112.8 125.7 112.5 125.8 112.1 126 111.9 126.1 111.7 126.1 111.5 126.1 110.9 126.1 110.7 126 110.4 125.8 110.2 125.8 110.1 125.8 109.9 125.9 109.7 126 109.5 126.1 109.5 125.9 109.5 125.5 109.6 125.4 109.6 125.3 109.7 124.9 109.5 124.7 109.4 124.3 109.5 124.2 109.5 123.9 109.2 123.7 109.2 123.4 109.3 123.2 109.3 122.9 109.1 122.9 108.9 122.6 108.8 122.5 108.8 122.3 108.6 122 108.6 121.8 108.5 121.6 108.7 121.2 108.6 120.4 108.5 120.1 108.6 120 108.7 119.8 108.7 119.5 108.4 119.2 108.5 118.8 108.7 118.5 108.7 118.1 108.7 117.8 108.7 117.6 106.2 117.4 106.1 117.2 106.2 116.9 106.3 116.7 105.6 116.6 105.6 116.8 103.5 116.8 103.4 117.5 103.3 117.8 103.1 117.9 103.2 118.3 103.2 118.9 101.6 119 101.3 119.2 100.5 119.1 100.3 119 99.9 119.1 99.3 119.2 99.1 119 99 118.3 98.7 117.8 98.5 117.6 98.3 117.4 98.3 117.2 98.2 117 98.1 116.5 97.9 116.1 97.9 115.8 98 115.6 97.9 115.3 97.7 115.1 97.7 114.8 97.7 114.7 97.7 114.4 95.5 114.4 94 114.4 93.2 114.5 92.5 114.5 92.2 114.4 91.6 114.5 91.1 114.5 90.6 114.5 90.3 114.4 90 114.4 89.7 114.5 89.3 114.6 89.2 114.7 89 114.7 88.9 114.8 88.9 114.8 88.8 114.8 88.2 115.1 88.5 115.4 88.5 115.7 89.6 117 89.7 118.7 90.3 119.6 90.2 120.5 89.6 121.4 89.9 121.6 89.9 122.3 90.3 122.9 90.3 123.4 91.1 124.7 91 125.1 91.3 125.4 91.3 127.3 90.5 128.9 90.2 128.9 89.3 129.6 89.2 130.2 88 131.2 88 131.9 87.8 132.1 87.8 133.8 87.3 134.5 87.2 135.3 86.6 136 86.6 136.8 86.5 137.5 86.5 138.5 86.4 139.2 86.4 139.4 86.4 139.4 86.8 139.5 86.9 139.6 87.1 139.5 87.1 139.3 87.3 139.2 87.8 139.3 88.1 139.4 88.3 139.3 88.4 139 89 138.5 89.2 138.5 89.6 138.7 89.7 138.8 89.8 138.6 90 138.6 90.3 138.7 90.3 138.9 90.6 139 90.5 139.2 90.6 139.2 91.1 139.7 91.6 139.8 91.9 139.6 92 139.7 92.3 139.5 92.5 139.4 92.7 139.5 100.7 139.5 100.9 139.6 101.1 140 101.2 140.2 101.7 140.4 102.1 140.5 102.5 140.4 102.7 140.5 102.7 140.6 103 140.8 103.4 140.6 103.7 140.5 104.3 140.6 104.6 140.6 104.6 140.3 104.7 140.4 105 140.4 105.5 140.9 105.8 141 106.3 141 106.4 140.9 106.4 140.8 106.7 140.7 106.9 140.8 107 140.9 107.2 140.8 107.4 141 107.5 141 107.6 141.1 107.8 141.1 108 141.1 108.1 141.1 111.5 140.3"/><path class="cls-1" d="M115.4,140.4h.2l.5.1.4.2.2.2h.3l.3-.3.5-.1.2.1h.1l.1.1h.1l.3.3.4.1.6-.2.6-.9,1.1-1.3,1.2-.9.8-.2.1-.2.1-.1-.1-.2.1-.2v-.2l.2-.4.5-.3.4-.1.3-.1.4-.2h.6l.1.2.2-.1.5.1h.2l.1.7.7.1h.4l.1.2h.2l.2-.2.6.1.5.4.4.5h.4l.7.1.4.3.2.3h.5v.4l-.2.3.1.3-.1.3.1.3-.1.3-.1.3-.1.6-.2.4.2.2.3-.1-.1.4-.4.2v.8l-.3.1v.3l.4.3.1.3-.3.2v.4l.3.2.1.3-.3.4-.4.3-.1.3h-.3l-.1.3.1.3-.1.3v.7l-.1.2-.1.7c-.9.8-1.8,1.6-2.7,2.4-.54-.02-1.07-.04-1.61-.05-.35-.02-.71-.03-1.06-.05l-1.08-.54c-.12-.12-.24-.24-.36-.36l-.2-.2v-.3l-.2-.1h-.2l-.5-.3h-.3l-.5-.2-.3.1-.4-.1-.3-.4-.4-.3-.1-.3v-.4l-.1-.5.1-.3-.4-.2-.3-.1-.1-.3v-.2l-.3-.2-.2-.2-.4-.3-.4-.2-.6-1-.2-.3-.1.1-.2-.2-.1-.4-.2-.2-.1-.3-.2-.4-.1-.1-.1-.2-.2-.2-.2-.2-.2-.2-.3-.2v-.6l-.1-.2Z"/><path class="cls-22" d="M115.4,140.4l.1.2v.6l.3.2.2.2.2.2.2.2.1.2.1.1.2.4.1.3.2.2.1.4.2.2.1-.1.2.3.6,1,.4.2.4.3.2.2.3.2v.2l.1.3.3.1.4.2-.1.3.1.5v.4l.1.3.4.3.3.4.4.1.3-.1.5.2h.3l.5.3h.2l.2.1v.3l.2.2.2.2h-.3l-.2.2h-.4l-.2.2v.2l-.1.3-.3.1-.3.3h-.3l-1.3.4-.2.2-.3.2-.1.2-.3.1-.1.2h-.2l-.4.2-.5.8-.1.5.1.2v.3l-.3.1-.1.1-.3.1-.3.2-.1.3-.1.1-.1.2-.3.1-.3.2h-.5l-.2.4.1.6-.2.2v.2l-.2.4.2.2c-.25.25-.49.49-.74.74-1.75.47-3.5.93-5.25,1.4-1.23.16-2.47.33-3.7.49-.2-.11-.4-.22-.61-.33h-.6l.1-.4.3-.7v-.6l-.6-1.2-.2-.6-.7-.5.4-6.8,1.9-.1.4-7.7,1.6.1,2-.5.7-.2h.3l.1-.1.1.1.1.3.2.2-.1.1-.1.3.2.1.7-.5.4-.5.4-.5h.5l.1.1.3.1.3-.2.7-.3.4-.1Z"/><path class="cls-17" d="M103.8,156.5l.4-6.8,1.9-.1.4-7.7,1.6.1,2-.5.7-.2h.3l.1-.1.1.1.1.3.2.2-.1.1-.1.3.2.1.7-.5.4-.5.4-.5h.5l.1.1.3.1.3-.2.7-.3.4-.1-.3-.4h-.1l-.1-.1h-.3l-.1-.1h-.1l-.1-.1-.5.2-.2-.1-5.5,1.3h-.5l-.1-.1h-.1l-.2-.2-.2.1-.1-.1-.2-.1-.3.1v.1l-.1.1h-.5l-.3-.1-.5-.5h-.3l-.1-.1v.3h-.3l-.6-.1-.3.1-.4.2-.3-.2v-.1l-.2-.1-.4.1-.4-.1-.5-.2-.1-.2-.2-.4-.2-.1h-8l-.2-.1-.2.1-.3.2-.1-.1-.3.2-.5-.1-.5-.5h-.1l.1-.2-.3-.1v-.2l-.3-.1h-.2l-.1.2-.1-.1-.4-.2h-.2l-.6.5-.1.3-.2.1-.3-.1-.5-.1-.2.1v.2l-.2.1-.1-.1-.4-.1.2,1.9,1.2,1.3.7,1.1,1.1,2.4.1,1,1.1,1.5v.6l1.2,1.7v.9l-.3.1.3,1.1v1.6l.7,1.7-.1,1,.2.6-.3.2.3.3.1,1.1.3.2.2.4-.2.1v.5l.3.3.1.9.4.5.5,1,.5.6.1.2.7.6,1.65-.14c.11.19.22.38.33.58.76.23,1.51.46,2.27.69.38.02.75.05,1.13.07.26-.27.52-.55.79-.82.01-.19.02-.39.04-.58l.6-.3h.9l.3-7.8Z"/><polygon class="cls-14" points="184.6 145.8 184.5 146.3 184.2 146.6 184.8 147.1 185.3 146.8 185.2 146.4 185.5 146.2 185.4 145.8 185.1 145.7 184.9 145.9 184.6 145.8"/><polygon class="cls-1" points="179.9 147.5 179.9 148.1 180.3 148.7 180.6 148.8 181.2 148.3 180.9 148.2 180.6 147.6 180.2 147.4 179.9 147.5"/><path class="cls-3" d="M156.8,158.3l.3-.2h.4l.5-.3.4-.5h1.4c0-.1.4,0,.4,0l.7-.3.2-.4h.3l.2-.7.3-.6v-.4l.4-.3v-.6h-.1l.3-.2.2-.7h0c0-.1.1-.1.1-.1l.4-.6.3-1.4.2-.8.3-.3.2-.9.6-1,.6-1.7.4-.6v-.8l.4-.8v-.3l.6-.8.2-1.2.2-.9.2-.2v-.6c.1,0,0-.3,0-.3v-.5c.1,0,.6-.6.6-.6v-.3l.2-.4v-.5l-.2-.2.2-.4v-.5h-.2v-.6h.3c0-.1.2,0,.2,0v.4l.5.5h.3v-.2c.1,0,.1-.4.1-.4h.1v-.5h.2v-.5l-.4-.6v-.4c-.1,0,0-.2,0-.2v-1.1c-.1,0,0-.2,0-.2v-1.1l-.3-.4v-1l-.2-.3h-.2l-.4-.4v-.4l-.4-.2.2-.4v-.4c-.1,0-.7.5-.7.5v.3c.1,0-.2.2-.2.2l-.4-.2h-.2l.4.5v.3l.3.3h0c0,.1-.4.5-.4.5v.6l-.3.4h-.3c0-.1-.4.3-.4.3v.4l-.3.2h-.2v-.6h-.2c0-.1-.3.2-.3.2v.5l.4.4v.2c.1,0,0,.1,0,.1h-.7v.4c.1,0,.5.1.5.1v.5c-.1,0-.3-.2-.3-.2h-.3v.4l-.6.5v-.5h0c0-.1-.1-.4-.1-.4l-.4.4h.2v.3l-.5.3.2.4h.3v.3h-.3l-.4.3v-.3h-.2l.2-.3h-.2c0-.1-.8.5-.8.5v.6c-.1,0,0,.2,0,.2v.3h-.6v-.7h-.2l-.5.5-.6-.4v.2h-.3v.6h-.1v-.3h-.2c0-.1-.2.2-.2.2l-.2-.4-.9.8h-.4c0-.1-.4-.1-.4-.1l-.2.3v.7l-.6,1v.2l-.6.6v.3l.3.3-.3.4.2.6v.5l.6,1.1v.3l.3.4v.2l-.3.3v.3c.1,0,0,1,0,1l-.4.3v.6h-.4v.4c-.1,0-.5.3-.5.3v.8l-.3.3h-.6c0,.1-.1.3-.1.3v.7l-.4.5v1.2c.1,0,.1.7.1.7l.6.7v.8l.3.2h.1-.1c0,.1-.4.1-.4.1v2.4c.1,0,.2.3.2.3h.2c0,.1.3.6.3.6h.2c0,.1.2.4.2.4l.3.3h.3c0-.1.1,0,.1,0h.3l.4.6h.3v.2h.1c0,.1,0,0,0,0l-.6-.2h0ZM166.2,130v-.2c-.1,0,.3-.4.3-.4h0c0,.1-.3.5-.3.5h0v.1ZM166,130.6h0c0-.1,0,0,0,0h-.1c0,.1,0,0,0,0h.1ZM165.4,130.5h.2v.6l-.2-.2h-.3l.2-.4h.1ZM168.3,139.1v-.8h.2l.2-.3v.4c-.1,0-.3.2-.3.2l-.2.4h0l.1.1Z"/><path class="cls-14" d="M130.6,148.6l.1-.7.1-.2v-.7l.1-.3-.1-.3.1-.3h.3l.1-.3.4-.3.3-.4-.1-.3-.3-.2v-.4l.3-.2-.1-.3-.4-.3v-.3l.3-.1v-.8l.4-.2.1-.4-.3.1-.2-.2.2-.4.1-.6.1-.3.1-.3-.1-.3.1-.3-.1-.3.2-.3v-.4h-.5l-.2-.3-.4-.3-.7-.1h-.4l-.4-.5-.5-.4-.6-.1-.2.2h-.2l-.1-.2h-.4l-.7-.1-.1-1-.1-.6.1-.4.9-.4h.4l2.2-.9.4-.1,1.3-.5.6-.2.6-.1.2.2v.2l.2.2v.3l.4.2.2-.1h.2l.2-.2h.5l.5.1.2.4v1l-.4.5-.1.5-.3.4v.4l.2.4.1.4.3.4.4.4.3.1.2.2.3.4-.2.3.2.3.4-.1.1-.4-.2-.5.2-.4.1-.4.2-.6.4-.1.3-.3.2-.3v-.8l-.2-.2v-.2l-.1-.2.1-.2h.2l.1-.2.3-.1v-.2l-.2-.3-.1-.6-.5-.6-.2-.4-.7-.7h-.2l-.2-.3-.3-.3-.7-.3-.3-2,.5-1.9h2.1l.3-.1.1-.2h.3v.1l.3.1.3.2h.2l.3.3-.1.2.6-.2.5-.4h.2l.2-.2.3.2v.1h.3l.2.2.5-.2h.6l.1-.4-.1-.2.2-.1.4.1.3-.1.3.2h.4l.1-.2.9-.2.3.1.3-.1.2-.2.5-.1.3-.3h.4l.3-.3.3-.3.4.1.2-.3h.1l.1.1-.1.5-.1.3.1.1-.4.6-.1.2.1.2v.1l-.1.2.1.8.2.4-.1.1v.6l.1.1v.6l-.2.2.1.6-.2,1h-.1l.2.2v1h-.4v.1l.1.2h.5l.1.1.1.8-.2.4-.3.1.2.2-.1.2h-.3l-.3.3.1.1.1-.1h.3l-.2.3-.1.5h-.2l-.5.6v.3l-.4.6h-.4v.4l-1.4.8h-.2l-.1.3-1.4.7h-.5v.1l-.7.3-.8.6-.2-.2v.3l-.6.6-.2.1-.2-.3-.1.6h-.2l-.1.3-.9.6v.2l-.2.2h-.2v.3l-.5.1-1.2.7.1.5-.4.3h-.5l-.2.3-.4-.3h-.2v.2l.2.3v.3l-.2.2.1.3-.3.4.6.8.1.3-.3.2.2.1.2.4v.5l.3.5-.1,1.3.1.5h.2v-.4l.2-.5v.4h.1v.6l-.1.2-.1.6.1.1-.2.7v.3l-.2.3-.1.4h-.1l.1.4.3-.2.1.2-.3.5-.1.5-.8.8-1.4.7-1.9.3-.7.7-.6.2-.1.2-.3.3-.1.5h-.3l-.2.1.1.1.2.4v.4l.2-.2.3.1.1-.4h.1l.1.2-.1.6-.2.3-.1.4h-.4l-.9-.2-.1-.1.1-.4.1-.3v-.1l-.2-.3-.2-.2-.2-.2c-.18-.09-.37-.18-.55-.27-.22-2.27-.45-4.53-.67-6.8.07-.28.15-.55.22-.83.9-.8,1.8-1.6,2.7-2.4Z"/><path class="cls-17" d="M128.9,158.9l.2.2.2.2.2.3v.1l-.1.3-.1.4.1.1-.2.1-.2.2v.3l-.1.4-.3.1c-.37.11-.75.22-1.12.34-.65-.38-1.29-.76-1.94-1.14.12-.38.24-.76.36-1.14.2-.38.39-.75.59-1.12.18-.23.36-.47.54-.7.19.09.38.18.57.27l.6.3.3.3.4.2Z"/><path class="cls-6" d="M95.8,164.8l.3-.2h.4v-.3c0-.1.2-.5.2-.5l.5-.2.2.4h.4l-.2.5.3.6.7.2.5.2h1.1c0-.1.3-.1.3-.1l.2.3h.6v-.4l.2-.2h.3l.2-.5.6-.3h.9l.3-7.8.7.5.2.6.6,1.2v.6l-.3.7v.4h1.2c0,.1.3,0,.3,0h.8c0-.1.4-.1.4-.1,0-.1.4-.4.4-.4l.2-.3.7-.3.4-.4.3-.9.6-.5h1.2l.2.3h.2l.8.5h1.1c0-.1.5-.1.5-.1h.3l.2.2h.3c0,.1.5-.2.5-.2v-.9l.2-.2v-.6l.2-.4h.4l.3-.3h.3v-.2h.2v-.4l.3-.2h.2v-.2h.4v-1.1l.6-.8h.3c0-.1.2-.2.2-.2l.2-.2h.3v-.3l.3-.2.2-.2.5-.4h1.1l.3-.3h.3v-.4c.1,0,.1-.2.1-.2l.2-.2h.4l.2-.2h1c0-.1.5,0,.5,0v.3h.5l.5.2h.1c0,.1.3,0,.3,0h1.3l.4.3v.6c.1,0,.2.6.2.6l.3.5v1.5l.2.4v.5c.1,0,.1,1.7.1,1.7l-.2.7v1.3h-.4c0-.1-.3-.4-.3-.4l-.5-.3-.4.2v.4l-.6,1-.2.5v.3c.1,0,.3.2.3.2l.2.4.7.4h1.1v-.4c.1,0,0-.3,0-.3l.3-.2c.23-.03.47-.07.7-.1.26.04.53.09.79.13-.06.12-.13.25-.19.37h.1l-.3.8v.7l-.4.6-.2.8-.3.4v.4c-.1,0-.7.7-.7.7h-.2v.2c-.1,0-.6.2-.6.2l-.2.2-.5.3-.3.5-.4.5v.2l-.2.5h-.4l-.3.7-.9,1.5-.7.7v.6c-.1,0-.5.2-.5.2l-.4.4h-.2v.2c-.1,0-2.4,2.2-2.4,2.2h-.3v.2l-.4.4-1.5.9-.3.4h-.5v.3l-.8.2-.5.3h-.7c0-.1-.7-.1-.7-.1l-.5.2-.2.4.3.3c0,.1-.8.1-.8.1l-.4-.2h-.3l-.3.3v.4l-1-.2-.3-.2-1-.2h-.7v.3h-.3c0,.1-.5-.2-.5-.2h-1.5v.5h-.2c0-.1-.3,0-.3,0l-.2.2v.2h-.9c0,.1-.6,0-.6,0h-.5v.2h-.6c0-.1-.5.4-.5.4h-.4v.4h-.5l-1.1-.5h-.2c0,.1,0-.4,0-.4l-.4-.2h-.3c0,.1-.2,0-.2,0h.2v-.6h-.5l-.4.2v.4l-.3-.2v-1.3l.2-.5-.4-.7-.4-.3-.3-.6v-.6l.2-.2.2.2h.2l.2-.3v-1.7l-.6-1v-.5l-.6-.8-.3-1.2-.5-1.2v-.6l-.4-1.3-.7-.5v-.7h.4l-.3-.1ZM118.98,168.64h1.62c.49-.16.98-.31,1.47-.47-.04-.37-.08-.74-.12-1.12-.08-.59-.17-1.17-.25-1.76-.3.07-.6.13-.9.2l-.2.2c-.43.2-.87.4-1.3.6l-.2.6-.6.4c.16.45.32.89.48,1.34Z"/><polygon class="cls-17" points="118.8 169 118.8 168.5 118.5 168.2 118.5 168 118.2 167.8 118 167.3 118.3 167.1 118.9 166.7 119.1 166.1 119.6 165.7 120.4 165.6 120.6 165.4 120.8 165.2 120.9 165 121.2 165.1 121.4 165.2 121.6 165.1 121.9 165.3 122.2 165.2 122.7 165.6 123 166.4 123 167 122.7 167.3 122.3 167.5 122.3 167.7 122.5 167.9 122.4 168.2 122 168.5 121.7 168.4 121.4 168.5 121.1 168.7 120.7 168.8 120.5 169.3 120.4 169.5 120.2 169.7 119.9 169.7 119.4 169.5 119.1 169.2 118.8 169"/></svg>