<?xml version="1.0" encoding="UTF-8"?>
<svg id="Layer_2" xmlns="http://www.w3.org/2000/svg" version="1.1" xmlns:xlink="http://www.w3.org/1999/xlink" viewBox="0 0 189.9 189.9">
  <!-- Generator: Adobe Illustrator 29.2.0, SVG Export Plug-In . SVG Version: 2.1.0 Build 108)  -->
  <defs>
    <style>
      .st0 {
        fill: #efcaa6;
      }

      .st1 {
        fill: none;
      }

      .st2 {
        fill: #e1c0a1;
      }

      .st3 {
        fill: #af9c78;
      }

      .st4 {
        fill: #a68775;
      }

      .st5 {
        fill: #f3eee7;
      }

      .st6 {
        fill: #e7dfd3;
      }

      .st7 {
        fill: #c4b496;
      }

      .st8 {
        fill: #ded5c5;
      }

      .st9 {
        clip-path: url(#clippath);
      }
    </style>
    <clipPath id="clippath">
      <rect class="st1" y="0" width="189.9" height="189.9"/>
    </clipPath>
  </defs>
  <g class="st9">
    <g>
      <path class="st6" d="M172.3,143l-.2,1.4v1.1h1.2l.7-1.6-.3-1.5-1.3.6h0Z"/>
      <polygon class="st6" points="173.4 135.5 172.9 136.3 173.5 137.8 173.1 138.8 173.4 139.7 174.4 137.8 174.3 136.6 174 135.7 174.4 134.4 175.2 133.8 175.2 133.2 173.5 133.7 173.4 135.5"/>
      <polygon class="st6" points="174.7 154.1 175.1 153.4 174 153.7 174.7 154.1"/>
      <polygon class="st6" points="170.2 138.2 171.5 138.7 171.1 137.8 170.2 138.2"/>
      <polygon class="st6" points="176.3 126.3 176 125.8 176.4 124.8 176.2 124.1 174.9 125.4 175 127.5 174.6 128.2 174.8 129.1 174 131.8 174.5 132.4 175.9 131.4 176 129.6 175.2 129 176.2 127.6 176.3 126.3"/>
      <polygon class="st6" points="180.1 164.9 179.4 165.7 179.8 166.1 180.8 164.9 180.1 164.9"/>
      <path class="st6" d="M176.3,158.5l.3,1,.9,1-.4-1.7-.9-.3h0Z"/>
      <polygon class="st6" points="179.9 160.9 179.9 159.9 179.5 159.4 178.9 160.5 179.4 161.4 179.9 160.9"/>
      <path class="st6" d="M181.4,167.1l-.7-.7-.9.8v1.2s.5.3.6.4.4,1.3.4,1.3l.8-.9-.3-1.1v-1.2c.1,0,0,0,0,0v.2Z"/>
      <polygon class="st6" points="177.6 161.8 177.8 162.7 178.6 163.3 179.2 162.9 178.7 161.6 177.6 161.8"/>
      <polygon class="st6" points="204.6 183.5 203.8 181.8 202.5 181.2 201.2 181.1 200.3 181.4 199.7 180.9 198.2 180.7 196.3 181.2 195.5 180.5 192.8 178.4 190.3 177.9 189.4 178.3 189.1 178.9 189.3 180.8 190.6 184.3 191.6 184.8 194 188 194.8 188 196.3 190.2 197.1 190.5 197.2 190.6 197.4 190.6 198.1 190.3 198.3 190.6 204.9 190.9 205.3 184.1 205.1 183.7 204.6 183.5"/>
      <polygon class="st6" points="178.4 91.3 178.8 90.2 177.8 89.2 176.9 89.6 177.2 90.5 178.4 91.3"/>
      <polygon class="st6" points="97.5 149.2 98.7 149.8 99.3 150.3 100.3 150.4 100.8 150.9 100.6 150.3 99.3 149.3 99.1 148.3 98.2 148 98 148.4 98.3 148.7 97.6 148.7 97.5 149.2"/>
      <polygon class="st6" points="95.2 147.5 95.2 148.3 96.8 149.4 96.7 148.9 97 148.8 97.5 147.7 97.2 147.5 95.2 147.5"/>
      <polygon class="st6" points="94.5 158.6 94.3 157.6 94.7 157.4 94.8 157.1 94.1 157.4 94.1 158.5 93.8 160 94.5 158.6"/>
      <polygon class="st6" points="106.9 162.9 106 162 105.2 159.1 104.5 157.1 103.4 157.2 103.4 157 102.5 156.8 103.7 156.2 103.6 155.7 103.1 155.4 102.4 153.9 101.8 153.9 101.5 152.7 101.1 152.2 101.2 151.5 99.4 150.7 99.1 151.1 98.3 150.8 98.4 150.3 97.1 149.9 97.1 150.2 97.3 150.6 97.1 150.9 96.7 150.9 96.8 151.4 96.7 152.2 96 153.3 95.7 153.1 95.1 152.5 94.3 152.3 94.3 152.7 94.9 153 95.3 153.6 95 153.9 95.4 155.1 95.4 156.8 94.9 157.4 94.4 160.3 94.5 161.1 94.1 161.4 94.6 163.8 94.3 164.7 94.9 167.7 95.7 171.1 96.5 172.7 97.9 173.5 99.1 173.3 101.2 173.1 103.2 172.6 105.3 170.6 106.3 168.8 106.7 167.7 106.7 166.7 107 166.3 107 164.6 106.6 163.8 106.9 162.9"/>
      <path class="st6" d="M143.9,64.6h0c0,0-.3.5-.3.5v.6l.5-.2.3-.6c-.2,0-.4-.2-.4-.4h-.1Z"/>
      <path class="st8" d="M161.5,60.5v.6l.5,1.4-.2,1,.5.9.9-1.6-.2-1-1.5-1.2h0Z"/>
      <polygon class="st8" points="160.3 60.2 159.1 60.6 159.1 61.2 159.9 63.1 161 63.2 160.9 61.3 160.3 60.2"/>
      <polygon class="st8" points="163.7 61.4 163.8 62.8 164.4 62.5 164.5 61.2 164.2 61.2 163.7 61.4"/>
      <path class="st8" d="M6.2,11.2c1.6-.5,2.6,0,2.9-.3.4-.6-1.3-1.6-1.5-3.6-.2-1.8.9-3.3,1.2-3.7.7-1,1.5-1.5,1.9-1.7,1.1-.7,2.1-.9,2.7-1,2.1-.4,2.7.2,3.6-.5.9-.7.4-1.4,1.2-2,.7-.6,1.4-.3,4.6-.3s2.1,0,2.4-.2c1.6-1,0-3.6,1.5-6.3,1.5-2.7,4.7-3.3,4.4-4.6-.1-.6-.8-.5-1.4-1.5-.1-.2-.8-1.4-.3-2.2.7-1.2,3.4.2,5.1-1.4.8-.7,1-1.7,1.2-2.2.3-1.1.2-2,.2-2.5-.3-2.2-.6-5.3-1.3-8.4l-20.4-1.1-13.3-.7L-1.5,8.5l-.3,4.7c2.4,0,5.1-.4,6.4-1.2.2-.2.8-.5,1.6-.8h0Z"/>
      <path class="st8" d="M164.9,56.7c0,0-.2.2-.2.4-1.1,0-.8-1.3-1.5-1.6-.7,0,0,.7-.5.9,0,0-.2,0-.2,0,0-.4.1-.8-.3-1.1-.6-.6-.6-1.5-1.1-2.2-.4-.5.5-2.8,1.3-3.1s1.3-1,2.2-1.2c.1,0,.4,0,.4,0,.2-1.2,1.5-1.2,2-2-.2-.6.2-1.3,0-2-.1-.5.2-.9.8-.6.3,0,.4-.2.5-.4,0-.4-.5-.6-.5-.9-.3,0-.6,0-.8,0-1-.8-1.9-.5-2.9,0-.7.2-1.4.2-2,0-1-.2-2,0-3,0-2,.3-4.1.5-6.1-.2-.6-.2-.7-.8-.5-1.1.4-.6.1-1.1.2-1.6-.7-.2-.5-.9-.6-1.4,0-.7,0-1.4-.8-1.7-.5.2-.5.9-1,1.1-1,.4-2.2-.2-2.7-1.4-.1-.3-.3-.7-.5-1-.5.5-.7,1.2-1.3,1.6-1.1,0-.5-1.5-1.6-1.5-.5.6-.8,1.7-1.9,1.8-.3.3-.6.5-.8.8-.4.5-.5,1,0,1.6.3.3.7.3,1,.3,1,0,1.9.4,2.1,1.7,1.3-.3,1.8.6,2.5,1.4-.2.6-.6.7-1.1.7-.9,0-1.6,0-1.8,1.2,0,.4-.4.8-.8.9-.7.2-1,.8-1.2,1.3.1.7.7,1.2,1.1,1.6.5.4,1,1,1.8.6.5-.2,1.1,0,1.1.8s.2,1,.3,1.5c-.1,0-.2.2-.3.4-1.1,1.2-1.1,1.4,0,2.5.6.6.5,1.2.6,1.9.3.4.9,0,1.1.5,0,0,.1.2.1.3-.2.8-.2,1.6,0,2.4.3.8.5,1.6.4,2.4,0,.4.1.7.3,1,.2.5.4.9.5,1.4h0l1-.8.6-.2.4,1.2.2.6h.7l.3-.9.5-.2.8.6v.2l.7-.3v-1.1c.1,0-.4-1.5-.4-1.5h.4l.2-1.3.5-.8-.2-.6.4.6v.4l-.8,2.1.7,1.2.8-1.2.9-.4-.3.6-.5.2-.6,1.1.9.7h1.1c0,0,1.2-.3,1.2-.3l.2-1.7-.8-1.4-.8-.4,1.3-.4.2-.7-.8-1.3v-2.2c-.1,0,.3,1.9.3,1.9l1,1.1h.7l.2.4,2.1,1.2,1.2-.7.4.2v-.4h.5c0,0,.5-1.3.5-1.3l-.4-1.5h0l.4-.4Z"/>
      <path class="st6" d="M209,58.5c-3.2-1.8,0,0,.2-2.7s0,0-1.2-.3,0,0-.7-2.2,0,0-1.4.4-1.4,1.7-1.4,1.7l-2.2-.2c-2.2-.2,0,0-.5-3.1s-.9-1.2-.9-1.2v-3.3c.2-3.3.9-1.1.9-1.1l1.9-.7-.3-2.2.7-1.9c.7-1.9,2.2-1.7,2.2-1.7l.3-2.3c.3-2.3.7-2.5.7-2.5v-3.2l-.5-1.4c-.5-1.4,0,0,0-2s0,0-.9-1.2-.7-3-.7-3l-1.2-1.8-1.5-1.8c-1.5-1.8-4.8-.8-4.8-.8h-2.9c-.1.5-.4.9-.7,1.3-.2.2-.4.5-.6.8-1.1,1.7-1.1,2.1.4,3.4-.2.5-.5.9-1.1.4-1.4-.9-3.3-.8-4.5.4-1,.9-1.9,1.8-2.8,2.8-.2.2-.3.3-.5.5-.3.3-.5.6-.9.7h-.2c-.6,0-.6.5-.7,1-.2.9.4,1.7.4,2.6s.2.7-.1,1-.3.7-.2,1.1c0,1.6-.8,2.5-2.2,3-.1.7-.5,1.4.4,1.8.4.2.2.5.2.7-.5,1.4-.9,2.7-1.5,4-.4.8-.7,1.6-.6,2.5,0,.9-1,1.6-1.9,1.3-1.1-.3-2.3,0-3.3-.6-.2,0-.3,0-.4.3,1.2,2.1,1.2,4.2,0,6.3-.7,1.3-.7,2.6,0,3.9.3.6.2,1.2,0,1.9-.2.4-.4.9-.5,1.2-.7.4-1.2-.6-1.9-.2-.1,0-.2.2-.3.3-.4-1.1-.8-2.1-.9-3.3,0-1-1-2-1.3-3.1-.1-.4-.2-.7-.2-1.1.1-1.2-.6-2.1-.8-3.2-.4,0-.8,0-1.1,0-.3.2-.9.2-.6,1,.2.5-.3,1.1-.8,1.4.8,1,.1,1.7-.4,2.4l.4,1.5-.5,1.4,1.6,5.3.8.6v.9l-.4,1.4.4.3-.4,1.9.2.4.8-.7.2-.5v1c-.1,0-.5.8-.5.8l.5.7,1,1.7.8,2.3h.2l-.2-1.7h.1v-.2l.5,1.4.4,1.7,2.6,2.6-.5-1.1v-.6l1,.9h1.2l-1,1v.5h1.2l.2-.8.2.8,1.1.2.5.8,1.9.5,1.1,1.9v1.1l-.8.2-.6-.8-1,.5.8.9.4.2-.4.4-.9-.5-.4-1h-1.1c0,0,.1.5.1.5l1.1,1.1v.7l1,1.4,2.2.8-.2-2.2-.5-1.1,1.4,1v1.1l.4,1,.6,1,.4,1.8.8.8-.4.2.3.7.6.3v2.5l.9,2.8.5.6-1.4.8-1.4,6.2.3,1.4-.2.5v.6c.1,0,1.1-1.5,1.1-1.5l1.4-1.1.8-1.8-.2,2.1-1.7,1.5v1.7c-.1,0,.6,0,.6,0l.2-.9,1.7-.8.6.9h.6c0,0,.2-.7.2-.7v.3h.7l.2-.3,1.2.2,2.5-1.6.4-1.1.6.5h.9l1.4-.7-1-.3v-.4c.1,0-.3-1-.3-1h.4l.6,1,1,.2,1.6-1.3-.2-.8.6-.6.2-1.3-.7-.6v-.7c.1,0,.4-.4.4-.4l-.6-.9,1.1.7v.7h.6l.2.7,1.1,2.5.5.7.2,1.5h1.1l.9-.2.5-.7v.7l-.4.6.7,1.5v.8l-.5.2.2,1.2.7.6.2,4.7h.4v2.3l1.5,1-.5.4v1.3l.8,1.1-.2,2.8.5,1.2v1.1c-.1,0,.3-.3.3-.3l.3-2,.5,1,.5-8.5v-2.5c.1,0,.6-.3.6-.3l.2-.9-.5-3v-.4l.3-4.3,1.1-20.8.7-12.4v-.4l.6-11.2-.8-.2s.8,0-2.4-1.7h0l-.3.5Z"/>
      <path class="st5" d="M31,48.9c.7,0,1.4,0,1.8.6.2.4.6,0,1,0,1.3-.3,2.4-1.1,3.8-1,.7,1.5,1.1,1.6,2.4.6.3-.2.6,0,.9-.4,0-.6-.5-1.2,0-1.8-.2-1.6-.9-3-1.6-4.4-.4-.8-.5-1.8-.5-2.8-.6-.2-1.2-.2-1.8,0-.4-.3-.4-.8-.8-1.1-.7-.6-.7-1.4-.3-2.1.5-.9.6-1.8.2-2.8-1.1.2-2-.3-2.9-.9-.6-.4-.9-1-.6-1.7.4-1,.8-2,1.8-2.5.6-.4,1.1-.8,1.6-1.3s.4-.5.5-.8c.6-1.7,1.4-2.2,3.3-1.9.3.3.2.8.3,1.2,0,.7.8,1.2,1.3.9,1.5-.8,3.2-.9,4.8-1.1.5,0,.9-.3.9-.7,0-.9.9-1.3,1.4-1.9.5-.5,1.1-1.1,1-1.9s.4-.6.7-.8c.9-.4,1.7-1.1,2.6-1.4.8-.3,1-1.1,1.5-1.7.7-.8,1.1-1.8,1.6-2.7.3-.5-.2-.9,0-1.4s.4-.9,1.1-.6c.7.3,1.2-.3,1.8-.6.3-.4.6-.8.4-1.4-.2-.7.5-1.2.9-1.7.4-.4.9-.8,1.1-1.3.4-.9,1.2-1.3,2-1.8-.3-.7-.6-1.4,0-2.1.5-.4,0-.9,0-1.3-.4-1.5,0-2.2,1.3-2.8.5-.2,1.1-.3,1.6-.4,1-.1,1.4-.6,1.5-1.5-.7-.9-1.4-1.5-2.6-1.4-.9,0-1.3-.7-.9-1.7-.7-.4-1.6,0-2.3-.7-.6-.5-1.3-.9-2-1.2-.9-.4-1.4-1.1-1.4-1.9s-.8-1.4,0-2.2c.3-.3-.3-1.2,0-1.8.4-1.2,0-2.3-.5-3.5,1.4-1,1.9-3,3.7-3.9-1.2-1.4-1.9-3-3.6-3.7-.4-.2-.5-.5-.7-.8-.7-.6-1.2-1.4-2.3-1.4s-1.4-.2-1.5-1-.3-1.5.6-2.2c.4-.3.9-.5,1.4-.8l-3.2-.2-15.9-.8h-2c.6,2.9,1,6.1,1.3,8.3,0,.5,0,1.5-.2,2.5,0,.5-.4,1.5-1.2,2.2-1.7,1.6-4.4.2-5.1,1.4-.4.8.2,2,.3,2.2.6,1,1.2,1,1.4,1.5.3,1.2-3,1.9-4.4,4.6-1.5,2.7,0,5.3-1.5,6.3-.2.2-1,.2-2.4.2-3.2,0-3.9-.2-4.6.3-.8.7-.3,1.4-1.2,2s-1.5,0-3.6.5c-.6.1-1.6.3-2.7,1-.4.2-1.2.7-1.9,1.7-.3.4-1.4,1.9-1.2,3.7.2,2,1.9,3,1.5,3.6-.3.4-1.3-.1-2.9.3-.8.2-1.4.6-1.6.8-1.2.8-4,1.1-6.4,1.2l-1.4,25.2.2.4h1l.8.7H-.2l1.5-1.3h1.6l1,.4,1-.6h1l.2-.4.4.4,1.8.3,1.5-.5h1.8l1.2,1.2.5,1.4-.3,1,.2.2h-.3v.6h1l1.8-.7v1.3l1.2,1.7.2,2.3.2.2v.9l-.6.3.4.2h.5l.3,1.4h2.9l2.1,1.2-.2.8,1-.6,1.8-1h1.2c0-.7,0-1.3.5-1.8,1.2.7,2.5.6,3.9.5h0v.5Z"/>
      <path class="st5" d="M78.7-29.1l-4.6-.2c.8.7,1.6,1.5,2.5,2,0,0,.2.3.2.5.2,1.1.8,1.7,1.8,2,.8.3,1.4.8,2.1,1.3.8.6,1.8.6,2.7,0,.2-.1.4-.2.6-.4,1.2-1.2,2.5-1.7,4.2-1.5.7,0,1.3,0,2-.4.7-.5,1.5,0,2,.4.7.5,1.5.9,2.3,1.2.7.2,1,.8,1.5,1.3-.3,1.6-1.1,3-1.7,4.5-.3.9-1.2,1.4-1.9,1.9-.9.7-1.3,1.4-1.1,2.4-.4.6-1,.5-1.6.6-1.2,0-1.6.6-1.2,1.7,0,.3.3.7.4,1-.6.4-.7,1.2-.3,2.2.8,0,1.5.2,2.2.6-.2.8-.3,1.5.4,2.1.4.3.4.9.3,1.5,0,.6-.6.5-1.1.7-.8.2-1.1,1.3-2.3,1.2-.5-.4-1.1-1-1.7-1.6-.5.3-1.1.3-1.3.9.4,1.1.8,2.1,1.6,3,.2.3.4.6.3.9-.2,1.1.3,2.1.4,3.1,0,.4,0,1,.8,1.1,1.2-.5,1.3-.5,2,.6s1.6,1.9,3,1.5c.3,0,.5,0,.6.2.6,1.1,2.1,1.4,2.8,2.5.3.5,1,.3,1.4.8s1,.8,1.3,1.4h0l1.9-.2,2.9-.4s0-1.3,2.8,0l2.7,1.3s.5-1,2,.5,1.4.5,1.5,1.5-1.4,1.9.2,1l1.5-.8,1.7.2,1,1v1.2c.2,0,.6,0,1.9.1,2.5.3,2.4-1.9,2.5.3l.2,2.2s1.9-1.9,2.2,0l.3,1.9s.2,1.2,1.7,0l1.5-1.2h1.5s.7-1.6,2.2,0l1.5,1.7,1.9,2s-.3-.6,2,0,.3.6,2.4.6h3.8c.2-.1.4-.3.6-.6,1.9.3,2.3.8,1.9,2.3v.3h0c1.7.4,3.6-1.7,3.6-1.7l.7-1.7s3.2-1.9,3.6-1.1l.3.8s.2.5,1.9.2c1.7-.2.5-1.4,1.7-.2l1.2,1.2s-.6-1.4,1.3-1,1.2-.4,1.9.4l.7.8h0c.2.2.4.3.6.5.4-.3.8-.5,1.2-.8.2-.2.5-.3.8-.3,1.4.1,2-.3,2.5-1.6.3-.8.9-1.6,1.8-1.8.8-.2,1.1-.7,1.2-1.3.2-1,.8-1.4,1.6-1.5,1.7-.2,2.7-1.2,3.4-2.6.9-1.7,1.9-2.2,3.7-1.5.9.3,2,0,2.8.9.8-1.5,2.2-2.1,3.4-3.1.5-.4,1.1-.3,1.4.3.1.3.4.5.5.8-.2.4-.6.8-.4,1.3.5.2.6-.3,1-.4.6.5,1.4.9,1.4,1.9s-1,1.3-1.1,2.3c1.5-.5,2.8,0,4.2,0s1.5,0,1.9.7c.2.4.2.8.1,1.1h2.9s3.2-1,4.8.8l1.5,1.8,1.2,1.8s-.2,1.8.7,3,.9-.9.9,1.2-.5.7,0,2l.5,1.4v3.2s-.3.2-.7,2.5l-.3,2.3s-1.5-.2-2.2,1.7l-.7,1.9.3,2.2-1.9.7s-.7-2.3-.8,1.1v3.3s.2-1.9.8,1.2-1.7,2.9.5,3.1l2.2.2s0-1.3,1.4-1.7.7-2.6,1.4-.4-.5,1.9.7,2.2,1.4-2.4,1.2.3-3.4.9-.2,2.7,2.4,1.7,2.4,1.7l.8.2h0l4.7-90.2-138.1.7h0l.2.6Z"/>
      <path class="st6" d="M117.6,17.3h0c-.2,0,0,0,0,0Z"/>
      <path class="st6" d="M97.4,14.1c0,0-.2.1-.3.2-.3,1.5-1.6,2.6-1.7,4.2,0,.5-.3,1.1-.5,1.5-.2.3,0,.6,0,.9.7.9,1.7,1.3,2.8,1.7,1.9.6,3.4,1.6,4.9,2.9.9.9,2,1.7,3.4,1.9,1.4.2,2.7,1,4,1.7.8.4,1.5.8,2.4.7.3,0,.7,0,.9.2.2.2.3.2.5,0,1-.7,2-.4,2.9.3,1.1-1,1.7-1.1,2.7-.3.3.2.5,0,.7,0,1,0,1.6.5,1.4,1.5,0,.6.5.8.6.9,1,0,1.6.7,2.3,1.1,1,.7,1.8,0,2.7-.4.2.2.4.4.6.7s0,.8.6.8,1,.3,1.5,0c.4-.3.6-.2,1,0,.8.4,1.7.5,2.5.9.7.3,1.3,0,2-.5,1.4,1.1,3,.9,4.5.2.5-.2.9.2,1.5,0,.4,0,0-.9.6-1,.2-1.4-.3-2.5-1.2-3.3.1-.4.4-.7.4-1.1s0-.4-.1-.6c-.1-.3,0-.8,0-1.2s.2-.5.3-.6c.4-.7.4-1.2,0-1.9,1-.2,1.3-.2,1.9-.7h-3.8c-2,0,0,0-2.4-.6s-2,0-2,0l-1.9-2-1.5-1.7c-1.5-1.7-2.2,0-2.2,0h-1.5l-1.5,1.2c-1.5,1.2-1.7,0-1.7,0l-.3-1.9c-.3-1.9-2.2,0-2.2,0l-.2-2.2c-.2-2.2,0,0-2.5-.3-1.2-.2-1.7-.2-1.9-.1h0c0,.1-.2,0,0,0v-1.2l-1-1-1.7-.2-1.5.8c-1.5.8,0,0-.2-1s0,0-1.5-1.5-2-.5-2-.5l-2.7-1.3c-2.7-1.3-2.8,0-2.8,0l-2.9.4-1.9.2c-.6.8-1,1.8-1.9,2.3h-.1Z"/>
      <path class="st6" d="M145.8,29.3s0,.2.1.3c.1.5.2,1,.4,1.5.3.7,1.4,1.3,2.2,1.1.6-.2,1.2-.2,1.7.3.5.4,1.3,0,1.8.4.3-.2.6-.2.9-.2.6,0,1,0,1.2-.7.2-.5.8-.6,1.2-.4,1.6,1.1,2.9,0,4.5-.3.9.7,2,.3,3-.2.6-.3,1.1-.6,1.8-.3.2,0,.2-.2.3-.4-.1-.8-.4-1.6-.2-2.5.1-.7-.3-1.1-1-1.1h-.1c-2-.1-2.2-.4-1.5-2.4.3,0,.5.2.7.3h0l-.7-.8c-.7-.8,0,0-1.9-.4s-1.3,1-1.3,1l-1.2-1.2c-1.2-1.2,0,0-1.7.2s-1.9-.2-1.9-.2l-.3-.8c-.3-.8-3.6,1.1-3.6,1.1l-.7,1.7s-1.9,2-3.6,1.7h0v.2c-.2.7-.3,1.3,0,2.1h0Z"/>
      <path class="st3" d="M61.2,57.8c.2,0,.4-.3.4-.6-.4-1.4.7-1.6,1.5-2.1,0-.8-.2-1.6.5-2.3.4-.4.3-.9,0-1.4-.7-1.4-.6-3-.4-4.5,0-.3.3-.6.6-.5,1,.5,1.6-.4,2.2-.8.8.6-.5,1.6.4,2.2.7-.2,1.6.2,2-.7.9.6,1,1.2.6,2-.3.5-.3,1.1,0,1.5.2.6,0,1.1,0,1.6h-1.5c-.4.4-.6.9-.4,1.7,1.8-.4,3.5-.6,3.9-2.8,1.2,0,2.4-.2,3.5.4.4.2.7-.3,1.2,0-.6-1.3,0-1.9.9-2.3,0-.7,0-1.3-.9-1.6-.6-.2-.4-.8-.4-1.2s.4-.7.8-.9h.6c1.2,0,1.4-.4,1.3-1.8-1.2-.6-2.3,0-3.4.6-1.1-.6-1.4-1.5-1.3-2.7,0-.8.4-1.2,1.1-1.5,1.6-.6,3-1.4,4.2-2.6.4-.3.9-.6,1.3-.7,1.8-.3,3-1.6,4.1-2.9-.2-.5-.7-.8-1.1-.5-.9.6-1.8.3-2.7,0-.2-1.1,0-2.3-1-3.2-.7-.6-.8-1.6-.8-2.5-.9-.6-1.5,0-2,.5-.5-.2-.6-.7-.4-1.1s0-.7,0-1c0-.4,0-.6-.2-.8-.3-.2-.6,0-.9.2q-1,.7-1.9-.3c-.6.4-1,.9-1.4,1.5s-.5.6-1.4,0c0-.5.4-1,.5-1.5.2-.8-.2-1.2-.7-1.7,0,0-.3,0-.4-.2-1.2-.8-1.7-1.9-1.6-3.3,0-.8-.7-1.3-.7-2,0,0,0-.2-.2-.2-1.4,0-2.4-1.4-4-.7-.6-.8-.2-1.5,0-2.4-.5-.3-1-.8-.4-1.5-.9.1-1.7-.4-2.6-.3-.7,0-.8-.6-1-1.2-.6.2-1.1.8-1.8.6s-.8.2-1.1.6c-.4.5.2.9,0,1.4-.6.9-1,1.9-1.6,2.7-.5.6-.7,1.4-1.5,1.7-.9.3-1.7,1-2.6,1.4-.3.1-.8.3-.7.8,0,.9-.5,1.4-1,1.9-.6.6-1.3,1-1.4,1.9,0,.4-.5.6-.9.7-1.6.2-3.3.3-4.8,1.1-.5.3-1.1-.2-1.3-.9,0-.4,0-.8-.3-1.2-1.9-.2-2.7.2-3.3,1.9,0,.3-.3.6-.5.8-.5.5-1,1-1.6,1.3-1,.6-1.4,1.6-1.8,2.5-.3.6,0,1.3.6,1.7.9.6,1.8,1.1,2.9.9.4,1.1.3,1.9-.2,2.8-.4.7-.4,1.5.3,2.1.4.3.4.8.8,1.1.6-.3,1.2-.2,1.8,0,0,.9,0,1.9.5,2.7.7,1.4,1.3,2.8,1.6,4.4.7.3,1.5.4,2.3.3,1.5,0,2.9.4,4.4.3.4,0,1,.2,1.2.5.7.9,1.5.9,2.5.9,1.5,0,1.6,0,1.6,1.7s0,.7.4.8c.7.4,1,1.1,1.2,1.8.6,1.4,1.4,2.5,3,2.7.3,0,.5,0,.5.4.3.8.9,1.3,1.5,1.9.6,0,1.1,0,1.6-.4h0v.2Z"/>
      <path class="st7" d="M53.6-27.3c0,.8.9,1,1.5,1,1.1,0,1.6.8,2.3,1.4.3.2.3.6.7.8,1.7.7,2.4,2.3,3.6,3.7-1.8.9-2.2,2.8-3.7,3.9.5,1.2.9,2.3.5,3.5-.2.6.4,1.6,0,1.8-.8.8,0,1.6,0,2.2s.6,1.5,1.4,1.9c.7.3,1.4.7,2,1.2.7.6,1.6.2,2.3.7-.4,1,0,1.7.9,1.7s2,.5,2.6,1.4c.9,0,1.3-1,2.2-.8.5-.6,1-1.1.9-2.1,0-.5.2-1,.8-1.1.5,0,.8-.5,1.1-.8.9-.7,2.7-.8,3.4,0,1.1,1.2,2.4,1.6,4,1.4.8,0,1.6,0,1.6,1.1s.6.5,1,.5c.8,0,1.5,0,2.1.6.2-.6.8-.7,1.3-.9.6.6,1.2,1.1,1.7,1.6,1.2,0,1.5-1,2.3-1.2.4,0,1,0,1.1-.7,0-.5,0-1.1-.3-1.5-.7-.6-.6-1.4-.4-2.1-.7-.4-1.5-.6-2.2-.6-.4-1.1-.3-1.8.3-2.2,0-.3-.3-.7-.4-1-.4-1.2,0-1.7,1.2-1.7s1.1,0,1.6-.6c-.2-1,.2-1.7,1.1-2.4.7-.6,1.6-1.1,1.9-1.9.6-1.5,1.4-2.9,1.7-4.5-.5-.4-.8-1-1.5-1.3-.8-.3-1.6-.7-2.3-1.2-.5-.4-1.3-.9-2-.4-.6.5-1.3.5-2,.4-1.7-.2-3.1.3-4.2,1.5-.2.2-.4.3-.6.4-.9.6-1.9.6-2.7,0-.7-.5-1.4-1-2.1-1.3-1-.4-1.6-1-1.8-2,0-.2,0-.4-.2-.5-1-.5-1.7-1.3-2.5-2-.4-.3-.9-.7-1.4-.9-.9-.4-1.6-1-2.2-1.8-.3-.4-.7-.8-1.1-1.1-.4-.4-.9-.6-1.4-.3-.6.5-.9,0-1.4,0s-.3-.5-.8-.4c-1.3.4-2.7.3-3.9,1.1-.9.6-1.9.8-3,.7h-1.7c-.6,0-.8,0-.8.4,0,.7-.4,1.1-.8,1.4-.4.3-.9.6-1.4.8-1,.7-.7,1.4-.6,2.2h.2Z"/>
      <path class="st2" d="M52.3,76.8c.9-.3,1-1.1,1.1-1.9,0-.4,0-.9.6-1.1.4,0,.5.5.9.5,1.9-1.4,2-1.6.5-3.7.3-.2.6-.3.9-.5.9-.6.9-1.2.2-2.1-.5-.5-.3-1,0-1.5.3-.6.8-.9,1.4-.9.2-.7.9-1.3.4-2.2,0-.2.2-.6.4-1l-.6-.6c.5-.8,1.7-.8,2.2-1.8,0-.7-.4-1.3-.6-1.9-.6-.6-1.3-1-1.5-1.9,0-.2-.3-.3-.5-.4-1.6-.3-2.4-1.3-3-2.7s-.5-1.4-1.2-1.8c-.3,0-.4-.4-.4-.8,0-1.6,0-1.7-1.6-1.7s-1.8,0-2.5-.9c-.2-.3-.8-.5-1.2-.5-1.5,0-2.9-.5-4.4-.3-.8,0-1.6,0-2.3-.3-.6.6,0,1.2,0,1.8-.2.3-.6.2-.9.4-1.3,1-1.7.9-2.4-.6-1.4,0-2.5.8-3.8,1-.4,0-.8.3-1,0-.5-.8-1.1-.6-1.8-.6-1.3,0-2.7.2-3.9-.5-.5.5-.4,1.1-.5,1.6v.2h0c0,.2,0,.4-.2.5.2,0,.6,0,.7.3,0,.2-.2.4-.4.4h-.9c-.2.3,0,.7-.3,1-.3,0-.3-.3-.6-.2-.2.3,0,.6,0,.9,0,1.2.3,2.3,1.3,3.1.7.6,1.4,1.1,2.2,1.6,2.4,1.5,5.5.9,7.1-1.5.8.3,1.8,0,2.9.4-1.1.5-1.5,1.5-2.4,1.9s-1.1,1.4-1.6,2.1c-.4,0-.5-.4-.8-.3-1.9.7-3.8,1.5-6,1.5-.2.4,0,.8.3,1.2.6.8,1.3,1.7,2.1,2.4,1.3,1.2,2.4,2.6,3.3,4.1.7,1,1.6,1.6,2.5,2.3,1,.7,2.1.7,3.3.4,1.9-.6,3.8-1.3,5.7-1.9,1-.3,1-1.4,1.8-1.9s.6-1.1.2-1.6c-.3-.4-.6-.8-.8-1.2h0c0,.2.2.5,0,.6-.2-.3,0-.5,0-.6h0c.6-.8,1.1-1.7,1.5-2.8.5.6,1.1.5,1.7.6-.8.8-.2,1.4.3,1.9-.5,1.2-.3,1.9.6,2.1-.9.7-.8,1.8-1.2,2.5.2.8,1.1.6,1.3,1.4.2,1.4.2,2.8,0,4.2.2,1.6.8,1.9,2.3,1.5h0l-.4-.2Z"/>
      <path class="st4" d="M116.4,84.3c-.4.4-7.1,3.6-7.7,3.7-.9.1-5.3,4.5-5.7,4.9-.7.5-1.8.7-2.5.4,0,0-22.1,12.1-22.5,11.1-.7.6-1.7.6-2.5,1-.6.8-3.5,6.3-3.5,6.3l1.4,8.9s8.2,4.7,9.3,6.1c0,.6,0,1.5.6,1.5s10.9-3.5,11.8-4.7c.3-.4.4-1.2.7-1.5,0-1.3-.2-2.8-.8-4-.3-.5-.2-1.3,0-1.9.3-.7.2-1.3,0-2-.2-.5-.3-1.1-.5-1.6-.4-1.1-.3-2,.5-2.9.5-.5.9-.9,1.1-1.7.2-.7.9-1.2,1.7-1.6.6-.3,1,.2,1.5.5.6.4,1.3,0,1.3-.4.2-1.1,1.2-1.7,1.6-2.6.3-.7.7-1,1.4-.9,1.4.2,2.6-.6,3.8-1,.3,0,.7-.2.7-.6,0-.7.8-.9.9-1.6-.6-.4-.7-.8-.4-1.5.3-.6.6-.9,1.1-1.1,1.6-.7,2.8-2,4.4-2.8s.4-.4.5-.6c1-1.7,2.6-2.6,4.4-3.4.5-.2,1-.4,1.2-1,0-.8.7-1.2,1.2-1.8.7-.7,1.3-1.5,1.9-2.2.2-.3.3-.5,0-.9-1.4,0-5.9.5-6.8,0Z"/>
      <path class="st0" d="M137.2,65.2c-.1,0-.4,0-.4,0-.3-.9-1.4-1.1-1.7-1.9-1.4-.4-2.7-1-4-1.6-.6,1.1.5,2.8-1.1,3.7-.6-.9-1.8,0-2.6-.9,0,0-.7.4-1,.6-.7.4-1.2,0-1.3-.7-.2-1.7-.3-1.9-2.2-1.6-1,0-2,0-3,.5-.3-.3-.7-.5-1-.8-.6,1.5-2.5,1.6-3.3,2.9.2.8.2,1.5-.5,2.1-.5.4-.7,1-.5,1.7,0,.6-1.2,2.4-1.7,2.2-2-.4-3,.8-3.9,2.2h0c-.2.3-.4.6-.4,1v2.6c0,.8.3,1.6,1.4,1.8.3,0,.6.3.5.7-1.7.6-2.6-1.1-4-1.5-.7.4-.7.9-.4,1.6.6,1.2,1.1,2.4,1.5,3.6.3,1.1.5,2.2,0,3.2s-1.3,2-2.2,2.8c-1.1,1-2,2.1-2.3,3.6h1c.9-.3,1.8-.6,2.7-.9,1.8-.4,1.8-.6,1.8-2.4s.6-.9,1.4-.8c0,.3,0,.8.6,1,.5-.2,1-.7,1.4-.6,1.1.3,1.2-.4,1.4-1,.2-.7.4-1.4,1.4-1.4s.8-.4.7-.6c-.4-1.4.9-.9,1.3-1.3.9.5,1.2,1.4,2,1.8.9.5,1.8,0,2.6,0,.6-1,.9-2.3,2.4-2.4.5-.8,1.2-1.2,1.8-1.9.9-1,1.9-1.9,3.2-2.3,1.2-.4,2.3-1.1,3.5-1.4,1-.2,1.7-.8,2.1-1.6.2-.4.5-.7.8-.9.6-.3,1-.7.8-1.4,0-.4.2-.8.5-.9,1.2-.4.7-1.1.5-1.8-.2-.5-.5-1-.8-1.4-.2-.3-.3-.5-.1-.8.5-.7.7-1.4,1.5-1.9s1.7-.4,2.4-1c-.6-1-1.3-1.9-2.6-2h0v.2Z"/>
      <path class="st2" d="M90.6,123.3c-.8,1.3-2.4,1.9-3.8,1.5-1.1-.2-1.4,0-1.8.9,0,.3-.2.6-.3.9-.2.6-.5,1.1-1.1,1.1s-1-.3-1-1.1c-.8-.2-1.5-1.3-2.3-1.5-.4.5-8.2,8.2-8.9,7.8-.3-.1-.6.9-1,1-.7,0-1.2.1-1.3.8.2.8,6.6,20.9,5.7,22.2.7,1.1,1.6,1.6,2.9,1.9.5-.9,1.2-1.4,2-1.7,1.3-.6,2-1.5,1.9-3,0-.8.2-1.7.9-2,1.4-.6,2.8-1.3,4.4-1.3s.4,0,.6-.3c-.8-1.5-.7-1.5,0-3.1.4-.8,1.2-1.4,1.5-2.2q.6-1.8,2.5-1.7c.4,0,.6.4.8.3,1-.5,1-1.3.8-2,0-.5-.3-.9-.2-1.3.4-1.1.3-2.2,0-3.2-.3-.9,0-1.9-.4-2.9-.3-.9-.3-1.9.8-2.8,1.4-1.2,2.5-2.8,2.2-4.9,0-.5,0-.9.4-1.3.7-.9.6-1.6,0-2.6-.2-.3-.2-.4,0-.6s0-.3-.3-.3c-.3.3-.8,0-1.1.4-1,1.3-2.2,1.6-3.7,1.2h0l-.2-.2Z"/>
      <path class="st0" d="M142,34.5c-.6,0-.2.9-.6,1-.6.2-.9-.3-1.5,0-1.5.7-3.1.9-4.5-.2-.7.4-1.3.8-2,.5-.8-.3-1.7-.5-2.5-.9-.4-.2-.6-.3-1,0s-1,0-1.5,0-.4-.5-.6-.8c0-.3-.4-.5-.6-.7-.9.5-1.7,1.1-2.7.4-.7-.5-1.4-1.1-2.3-1.1s-.8-.2-.6-.9c.2-.9-.4-1.4-1.4-1.5-.2,0-.4.2-.7,0-1-.8-1.6-.7-2.7.3.2,1.9,1.8,3,2.6,4.5-.7.5-1.5.4-1.7,1.2.3.6,1,.6,1.2,1.2-.9.8-.9,1.2,0,1.8.7.4,1.4.8,2.1,1.2-.3.8-.9.8-1.5.8s-1.1.2-1.6.7c-.9.8-1.6,1.8-2.8,2.3-.7.3-1.4,2-1,2.4.5.8.6,1.7,1.1,2.5.6.2,1.1.4,1.7,0,1.3-.8,2.4,0,3.4.8.3.2.6.3.8.5.4-.2.7-.4,1-.7.5-.4,1-.5,1.5,0s.9.4,1.4,0c.8-.5,1.6-1,2.6-1.3.5-.2.8-.7,1.1-1.2,1.9,0,2.9,1.2,4,2.4h.2c.4-1.1,1.3-1.4,2.3-1.5.8,0,1.3-.4,1.5-1.3s.4-2,1.2-2.7c.5-.4,1.2-.4,1.5-.9.5.2.9.3,1.3.5-.2-.7-.1-1.3.5-1.7.8-.6.2-1.6.5-2.3-.5-.5-.4-1.1,0-1.6.2-.3.5-.6.8-.8,0-.8.6-1.8-.4-2.5h0v-.4Z"/>
      <path class="st7" d="M148.6,61.6c0-.9-.1-1.7-.4-2.4-.3-.8-.2-1.6,0-2.4q0-.2-.1-.3c-.3-.4-.8,0-1.1-.5,0-.6,0-1.3-.6-1.9-1.2-1-1.1-1.3,0-2.5,0,0,.2-.2.3-.4-.1-.5-.3-1-.3-1.5s-.6-1-1.1-.8c-.9.4-1.4-.2-1.8-.6-.5-.4-1-.9-1.1-1.6.2-.5.5-1.1,1.2-1.3.4,0,.8-.5.8-.9.1-1.2.9-1.2,1.8-1.2s.9,0,1.1-.7c-.6-.8-1.2-1.7-2.5-1.4-.2-1.2-1.1-1.6-2.1-1.7-.4,0-.7,0-1-.3-.3.7.3,1.7-.5,2.3-.6.5-.7,1.1-.5,1.7.5,1.2.2,2.5.6,3.8.2.7-.4,1.4-.6,2-.7,1.5-1.9,2.8-3.4,3.4-.8.3-1.6.5-2.4,1-1,.6-2,1.2-2.8,2-.4-.2-.6-.7-1.1-.8-.5.2-.8.6-1.1,1-.5.8-.4,1.5.4,2,1.3.8,1.5.9,3.2,1-.4.9-.1,1.5.8,1.9.4.2.7.6,1,1,.5.5.4,1,0,1.5.4.8,1.5,1,1.7,1.9,0,0,.2,0,.4,0,1.3,0,2,1,2.6,2,2,0,2.8-1.6,3.8-3,0,0,.1.2.2.3h0c0,.3.1.4.4.5.5,0,1.4,0,1.7,0,.5,0,.4-.4.8-.8h.3c.3.3,1.3.9,1.5,1.2.7.3,1-.4.8-1.3,0-.4-.2-.9-.5-1.4-.2-.4-.3-.6-.3-1h0Z"/>
      <path class="st2" d="M82-4.4c0-1.2-.8-1.2-1.6-1.1-1.6,0-2.9-.2-4-1.4-.8-.8-2.5-.8-3.4,0-.4.3-.7.7-1.1.8-.6.2-.9.6-.8,1.1.2.9-.3,1.5-.9,2.1.6.4,0,.8,0,1.2-.4.8-.4,1.4.4,1.9.5.3.6.8.8,1.4.4,1.2.6,2.6,2.2,2.9.4,0,.9.3.8.8-.2,1.4.8,1.8,1.7,2.3.9.6,1.7,1.3,2.2,2.3.4.7,1,1.2,1.9,1.1.7-.6,1.1-1.2.9-2.2,0-.6,0-1.1.5-1.5,0,0,.3-.2.3-.3,0-1.4,1.1-1.3,1.9-1.6.3,0,.6-.2.9-.2.8-.2,1.7-.2,2.1.5.6.9,1,.3,1.5,0,0-.4-.3-.6-.2-1-.7,0-.8-.7-.8-1.1,0-1.1-.6-2.1-.4-3.1,0-.3,0-.6-.3-.9-.8-.9-1.2-1.9-1.6-3-.6-.6-1.3-.6-2.1-.6s-1,0-1-.5h0Z"/>
      <path class="st7" d="M86.8,5.7c-.5-.7-1.3-.8-2.1-.5-.3,0-.6,0-.9.2-.8.3-2,.2-1.9,1.6,0,0-.2.2-.3.3-.5.4-.6.9-.5,1.5.2,1-.2,1.7-.9,2.2v.3c1,0,1.4.8,1.9,1.3-1.3,2.7-1.2,3.1,1.1,4,.3-.7.9-.9,1.7-1,.6.9,1.7,1.1,2.5,1.6,0,.5-.4.6-.4,1,1.1,1.3,2.8,1.8,4.1,2.8.5.3,1.1,0,1.7,0s.4,0,.6.3c.5.5.9.2,1.2-.2,0-.3,0-.6,0-.9.2-.5.5-1,.5-1.5,0-1.6,1.4-2.7,1.7-4.2,0-.1,0-.2.3-.2.9-.5,1.3-1.5,1.9-2.3h0c-.3-.7-.9-1-1.3-1.4-.4-.5-1.1-.3-1.4-.8-.7-1.1-2.1-1.4-2.8-2.5,0-.2-.4-.2-.6-.2-1.4.3-2.3-.5-3-1.5-.7-1.1-.8-1.1-2-.6,0,.3.3.6.2,1-.5.2-.9.8-1.5,0h0l.2-.3Z"/>
      <path class="st7" d="M60.1,13.2c.9,0,1.7.5,2.6.3,1.3-.7,2.4.2,3.6.8.2.3-.3,1,.5,1.3,1.1-.9,2.4-1.1,3.8-1.3.8,0,1.4-.3,1.7-1.1.2-.7.7-1,1.5-.9.6,0,1.1,0,1.3-.9,0-.6.5-1.1,1.2-1.1.4-1-.4-1.8,0-2.8-.9-.6-1.9-.9-1.7-2.3,0-.5-.4-.7-.8-.8-1.6-.4-1.8-1.8-2.2-2.9-.2-.6-.3-1.1-.8-1.4-.8-.5-.8-1.1-.4-1.9.2-.4.6-.8,0-1.2-.9,0-1.4.9-2.2.8,0,.9-.5,1.3-1.5,1.5-.5,0-1.1.2-1.6.4-1.4.6-1.8,1.3-1.3,2.8,0,.3.5.8,0,1.3-.6.6-.4,1.3,0,2.1-.8.5-1.6.9-2,1.8-.2.6-.7.9-1.1,1.3-.5.5-1.2,1-.9,1.7s0,1-.4,1.4c.2.5.4,1.2,1,1.2h-.2Z"/>
      <path class="st0" d="M75.4,152.6c0-.6,0-1.1.2-1.7.3-.8.8-1.5,1-2.3-.2-.3-.4-.4-.7-.5-.4-.1-.7-.6-.6-1,.4-1,0-2.1.4-3.1.2-.7-.3-1-.9-.9-.4.1-.8.6-1.3.4-.4-.9-1.2-1.8-.5-2.8.6-.8.2-1.2-.4-1.6-.3-.2-.6-.3-.6-.6s.6-.6.7-1c-.3-.8-1.4-.4-1.6-1.3-.2-.7-1.4-.7-1.6-1.4,0-.7,1-.3.9-1-.6-.7-1.1-1.6-2-1.6-1.5-.1-2.4-1.2-3.5-2-.4-.3-.6-.6-.7-1.1-.4-1.3-1.6-2.2-3.1-2.1,0,.9.3,1.8.8,2.6.8,1.2,1.5,2.4,2.3,3.5,1.5,2.1,2.6,4.4,3,7.1,0,.4,0,.8.3,1.1,1.1,1,.9,2.6,1.6,3.7,0,.2.4.7.3,1.1-.4,1.5.2,2.9.7,4.3.8,2,1.8,3.8,3.2,5.5.5.5.9.9,1.5,1,1-1.3.6-2.8.6-4.2h0Z"/>
      <path class="st3" d="M179,38.4c-.7.3-1.4.3-2.2.3s-1.1,0-1.2.9c-.1.8-.7,1.2-1.6,1-.1,0-.4,0-.4,0-.5,1.3-1,2.7-1.6,4-.3.7.2,1.4,0,2.1v.4c-.3,1.2,0,1.6,1,1.8h1c0-.2.2-.4.4-.3,1,.6,2.2.3,3.3.6,1,.3,2-.4,1.9-1.3,0-.9.3-1.7.6-2.5.6-1.3,1-2.7,1.5-4,0-.2.2-.5-.2-.7-.9-.4-.6-1.2-.4-1.8-.7,0-1.3-1-2-.6h-.1Z"/>
      <path class="st2" d="M169,40c-.8-1.1-1.6-2-3.4-1.5.5-.8.1-1.4.2-2h-1.9c-.6,0-1.5,0-1.8.5-.5.7-1.3,1-1.8,1.6-.8-.6-1.6-.8-2.5-.8h-1.8c-1.9-.4-2.6,0-3.4,1.8,0,.5.1,1.1-.2,1.6-.2.3,0,.9.5,1.1,2,.7,4.1.5,6.1.2,1,0,2-.2,3,0,.7.2,1.4.2,2,0,1-.4,2-.7,2.9,0,.2,0,.5,0,.8,0s.6-.3,1-.5c1.1-.7,1-1,.3-2.1h0Z"/>
      <path class="st2" d="M171.9,47.1v-.4c-.6,0-1.2.3-1.7-.3-.2,1-1,1.4-1.3,2.1-.4,0-.6-.6-1,0,.5,1.1-.1,2.2,0,3.4.3,1.1.9,2.1.8,3.2,0,.4.1.7.2,1.1.3,1.1,1.3,2.1,1.3,3.1s.5,2.2.9,3.3c0,0,.2-.2.3-.3.7-.4,1.2.6,1.9.2.1-.4.3-.8.5-1.2.3-.6.3-1.2,0-1.9-.6-1.3-.6-2.7,0-3.9,1.2-2.1,1.2-4.2,0-6.3h-1c-1.1-.2-1.4-.6-1-1.8h0v-.2Z"/>
      <path class="st7" d="M167.9,48.4c-.3-.4-.9-.8-.5-1.5,0,0-.2-.4-.4-.5-.5.8-1.9.8-2,2,0,0-.2,0-.4,0-.9,0-1.4.9-2.2,1.2-.8.2-1.7,2.5-1.3,3.1.5.7.4,1.6,1.1,2.2.4.3.3.7.3,1.1,0,0,.1,0,.2,0,.5,0-.2-.8.5-.9.7.3.4,1.7,1.5,1.6,0,0,.1-.2.2-.4.5-.7,1.2-1.4.4-2.4.5-.4,1-.9.8-1.4-.2-.7.3-.8.6-1,.3,0,.7,0,1.1,0,0-1.1.6-2.2,0-3.4h0Z"/>
      <path class="st2" d="M98.7,90.3c0-.2,0-.3-.2-.5v-.2c0,0,0-.2-.2-.3,0,0,0,0,0-.2,0,0,0-.2-.2-.2s0,0-.2-.2l-.2-.2c-.2,0-.4-.3-.5-.4h0c0,0-.2,0-.4-.2h0c0,0-.3,0-.4-.2l-2.2-6.6s-10.3-1.5-10.9-1.7c-.5.5-5.1,7.6-5.2,7.7,0,0,.9,2.3.9,2.6s-1.1.3-1.1.6c.2,1.4-.8,13.5-.8,13.5,0,0,1.1.8,1.3,1.6.4,1,1.4,1.2,2.5,1h.7c.7.4,1.1,0,1.6-.5s.8-.8,1.4-.7c1.2.2,2.4,0,3.4-.8.2,0,.5-.2.8-.3.8,0,1.1-.6,1-1.2,0-.6.2-.8.6-.9,1.1-.3,2.1-1.1,3.4-.9.8,0,1.2-.3,1.1-1.1,0-.2,0-.5,0-.7.6-.4,1,0,1.4.3.6-1.4.9-1.3,2.2-1.4,1.3,0,2.6-.6,3.5-1.7v-.2c-.7-.4-1.5-.8-2.1-1.4-.5-.6-.5-1,.2-1.3.2,0,.5,0,.5-.3v-1.9c-.3-.6-1.2-.6-1.4-1.4h0l-.3.3Z"/>
      <path class="st2" d="M139.3,42.9c-.3.6-1,.5-1.5.9-.8.7-1,1.8-1.2,2.7s-.7,1.2-1.5,1.3c-1,0-1.9.4-2.3,1.5h-.2c-1.1-1.1-2.1-2.5-4-2.4-.3.5-.6,1-1.1,1.2-.9.3-1.8.8-2.6,1.3-.5.3-1,.4-1.4,0s-1-.3-1.5,0c-.3.3-.7.4-1,.7-.3-.2-.6-.3-.8-.5-1-.8-2-1.6-3.4-.8-.6.4-1.1,0-1.7,0-.6.9-.8,2-.9,3,1,.9,2.2,1.5,2.8,2.8,0,.3.4.3.6.5.6.5,1,1.1,1,2s.2.9.6,1.4c.4.4,1.1.5,1.1,1.3s-.7,1-1.1,1.5c0,0-.2.3-.4.4-.2.3,0,.4,0,.6.3.3.6.5,1,.8,1-.4,2-.4,3-.5,1.9-.2,2,0,2.2,1.6,0,.8.6,1.1,1.3.7.4-.2.9-.7,1-.6.8.8,2,0,2.6.9,1.6-.9.5-2.6,1.1-3.7,1.4.6,2.7,1.2,4,1.6.3-.5.5-1,0-1.5-.3-.3-.6-.8-1-1-.9-.4-1.1-1-.8-1.9-1.7,0-1.9,0-3.2-1-.8-.5-.9-1.3-.4-2,.3-.4.6-.8,1.1-1,.5,0,.6.6,1.1.8.8-.8,1.8-1.4,2.8-2,.8-.5,1.5-.7,2.4-1,1.6-.6,2.7-1.9,3.4-3.4.3-.6.9-1.3.6-2-.4-1.2-.1-2.6-.6-3.8-.4-.2-.8-.3-1.3-.5h0Z"/>
      <path class="st4" d="M78.3,13.3c-.9,1.1-1.8,2.4-1.2,4.1,0,.3.2.6,0,.8,0,.8.2,1.3.7,1.8,0,0,.2.5.9.7l.8.2v1s-.4-.3-.4.3v1.1c.7,1.7.5,3.3-.8,4.7,0,.9.2,1.9.8,2.5,1.1.9.7,2.1,1,3.2.9.2,1.8.4,2.7,0,.4-.3.9,0,1.1.5,1,0,1.9.5,2.9.7,1.4.3,2.1,1.9,1.5,3.4-.4.9-.6,1.8-1.1,2.7-.5.8-.8,1.5-1.9,1.5s-1.5,1-1.2,1.9c0,.4.3.8,0,1.2-1.1,1.6-.6,3.3-.3,5,1.4,0,2.7,1,4.2.5.3-.7,0-1.5-.4-2-.9-1-1.2-2.3-1.6-3.5-.3-.8,0-1.1.8-1.9.6.8,1.4,1.6,2.3,1.8.8.2,1.9,1.1,2.6,0,.3.2.6.4.8.5.2,0,.3,0,.4-.2.4-.6.8-1.1,1.6-1.2.5,0,1-.2,1.4.2s1.1.6,1.6.8c.9.2,1.4.8,1.7,1.7.9,0,2,.4,2.6-.9.2-.4,1-.2,1.3-.6.6.2.9,1.1,1.7.6.5.6,1.5.5,1.9,1.3.4.9,1.1,1.2,2.1,1.1,1.3,0,1.2,0,1.4,1.3.2.9.4,1.9.4,2.9,1.3,1.3,2.1,1.3,3.3-.2,0,0,.2-.3.3-.4,0-1.1.3-2.1.9-3-.5-.8-.6-1.7-1.1-2.5-.3-.4.4-2.1,1-2.4,1.2-.5,1.9-1.5,2.8-2.3.5-.4.9-.7,1.6-.7s1.2,0,1.5-.8c-.7-.4-1.4-.8-2.1-1.2-1-.7-1-1,0-1.8-.2-.5-.9-.6-1.2-1.2.2-.8,1.1-.7,1.7-1.2-.9-1.5-2.5-2.6-2.6-4.5-.9-.7-1.9-1-2.9-.3-.2.2-.4.2-.5,0-.2-.3-.6-.3-.9-.2-.9,0-1.6-.3-2.4-.7-1.3-.7-2.6-1.5-4-1.7-1.5-.2-2.5-1-3.4-1.9-1.4-1.4-3-2.3-4.9-2.9-1-.3-2.1-.7-2.8-1.7-.4.4-.7.8-1.2.2-.2-.2-.4-.3-.6-.3-.6,0-1.3.3-1.7,0-1.3-1-3-1.5-4.1-2.8,0-.4.5-.5.4-1-.8-.5-1.9-.7-2.5-1.6-.8,0-1.4.3-1.7,1-2.3-.9-2.4-1.3-1.1-4-.5-.6-.9-1.3-1.9-1.3-.8.6-1.5,1.4-2,2.1h0l-.3-.2Z"/>
      <path class="st7" d="M77.5,21.5h0Z"/>
      <path class="st0" d="M76.3,10.4c-.7,0-1.1.5-1.2,1.1,0,.8-.6,1-1.3.9-.8,0-1.2.2-1.5.9-.3.8-.9,1-1.7,1.1-1.4.2-2.8.3-3.8,1.3-.7-.3-.3-1-.5-1.3-1.2-.6-2.3-1.5-3.6-.8-.6.7,0,1.2.4,1.5,0,.8-.5,1.6,0,2.4,1.5-.7,2.6.8,4,.7,0,0,.2.1.2.2,0,.7.8,1.2.7,2,0,1.4.4,2.6,1.6,3.3,0,0,.3,0,.4.2.4.5.8.9.7,1.7,0,.5-.4,1-.5,1.5.9.5,1,.6,1.4,0s.8-1.1,1.4-1.5c.8,1,.9,1,1.9.3.3-.2.5-.4.9-.2.3.2.3.4.2.8,0,.3,0,.6,0,1-.2.4,0,.8.4,1.1.6-.6,1.1-1.1,2-.5,1.3-1.4,1.6-2.9.7-4.7l-.7.3-.4-.3h-1.6v-1.3l1.1-.5h0l.5-1.6c-.5-.4-.9-1-.7-1.8,0-.3,0-.5,0-.8-.6-1.6.4-3,1.2-4.1.6-.7,1.3-1.4,2-2.1v-.3c-.9.2-1.6-.4-1.9-1.1-.5-1-1.3-1.7-2.2-2.3-.2.9.5,1.8,0,2.8h0Z"/>
      <path class="st3" d="M77.5,21.5c.3-.5.4-1,.5-1.6l-.5,1.6Z"/>
      <path class="st3" d="M79.2,22.2c0-.6.4-.3.4-.3v-1l-.8-.2c-.8-.2-.9-.7-.9-.7,0,.6-.2,1.1-.5,1.6h0l-1.1.5v1.2h1.6c0,.1.4.4.4.4l.7-.3v-1.1h.2Z"/>
      <path class="st7" d="M118.8,61.8c0,0,.3-.3.4-.4.4-.5,1.1-.7,1.1-1.5s-.8-.8-1.1-1.3c-.3-.4-.6-.8-.6-1.4s-.4-1.4-1-2c-.2-.2-.5-.2-.6-.5-.6-1.2-1.8-1.9-2.8-2.8,0,0-.2.3-.3.4-1.2,1.4-2,1.5-3.3.2-.5,1.1-1.3,1.5-2.4,1.4h-1.8c-.6,0-1.3,0-1.8-.4-.2-.2-.5,0-.9,0,.4.8.3,1.6.2,2.5.9.2,1.9,0,2.7.9.5.6.8.9.2,1.6-.3.4-.6.8-1,1.1s-1,.6-1,1.1c0,1.6-1.2,1.6-2.3,1.9-.5,0-.8.4-1.2.7-1.5,1.2-1.6,3.2-2.6,4.6-.2.4,0,.8,0,1.2,0,.6-.2,1.2-.8,1.6l-.4.6v1l.4.6s.7.8.4,1.3l-.3.6v.6c0,0,.3.6.3.6v.7s-1.3.3-.9.9l.4.6s.2.4,0,.7l-.2.3s-.4.6.2.8l.6.3v.7s1.7.6,1.3,1.3c-.4.8-1.5.6-2,1s-.9,1.5-.9,1.5c0,0,.3.2,0,.8l-.3.6s-.3,0-.3.6v.6l-.2.3c0,0,.3,0,.4.2h0c0,0,.3,0,.4.2h0c.2,0,.4.2.5.4l.2.2.2.2.2.2s0,0,0,.2c0,0,0,.2.2.3v.2c0,.2,0,.3.2.5.2.9,1.1.9,1.4,1.4.8.3,0,1.1.5,1.6.7.3,1.7.2,2.5-.4.4-1.5,1.1-2.5,2.2-3.5.9-.8,1.6-1.8,2.2-2.8s.4-2.2,0-3.2c-.4-1.2-.9-2.5-1.5-3.6-.4-.7-.3-1.2.4-1.6,1.4.3,2.3,2,4,1.5,0-.4-.2-.7-.5-.7-1.1,0-1.3-.9-1.4-1.8v-2.6c0-.4,0-.6.4-.9h0c.9-1.5,1.9-2.8,3.9-2.3.5,0,1.9-1.6,1.7-2.2,0-.7,0-1.3.5-1.7.7-.6.7-1.3.5-2.1.8-1.3,2.7-1.4,3.3-2.9,0-.2-.4-.3,0-.6h.1Z"/>
      <path class="st0" d="M98.5,69.2c0-.4,0-.9,0-1.2,1-1.5,1.1-3.4,2.6-4.6.4-.3.7-.6,1.2-.7,1-.2,2.2-.3,2.3-1.9,0-.5.6-.9,1-1.1.4-.3.7-.7,1-1.1.6-.6.3-1-.2-1.6-.7-.9-1.8-.7-2.7-.9,0-.9.3-1.7-.2-2.5.3-.2.7-.2.9,0,.5.6,1.2.4,1.8.4h1.8c1.2,0,2-.3,2.4-1.4,0-1-.2-1.9-.4-2.9-.2-1.3,0-1.4-1.4-1.3-1,0-1.7-.2-2.1-1.1-.4-.8-1.3-.7-1.9-1.3-.8.5-1.1-.4-1.7-.6-.3.5-1.1.3-1.3.6-.6,1.3-1.6.9-2.6.9-.3-.9-.7-1.4-1.7-1.7-.5,0-1.1-.3-1.6-.8s-.9-.3-1.4-.2c-.8.2-1.2.7-1.6,1.2,0,0,0,.2-.4.2-.2,0-.5-.3-.8-.5-.8,1.2-1.8.3-2.6,0-.9-.2-1.7-1-2.3-1.8-.9.8-1.1,1.1-.8,1.9.5,1.2.7,2.5,1.6,3.5.4.5.7,1.3.4,2-1.6.5-2.8-.6-4.2-.5-.2-1.8-.8-3.4.3-5,.3-.4,0-.8,0-1.2-.3-1,.3-1.9,1.2-1.9s1.5-.7,1.9-1.5c.5-.8.8-1.8,1.1-2.7.6-1.5,0-3.1-1.5-3.4-1-.2-1.9-.6-2.9-.7-1.1,1.3-2.3,2.6-4.1,2.9-.5,0-1,.4-1.3.7-1.3,1.1-2.7,1.9-4.2,2.6-.7.3-1,.7-1.1,1.5,0,1.2.3,2.1,1.3,2.7,1.1-.5,2.1-1.1,3.4-.6,0,1.4,0,1.6-1.3,1.8h-.6c-.4,0-.8.4-.8.9s-.2,1,.4,1.2c.8.3.8.9.9,1.6-.9.4-1.6,1-.9,2.3-.6-.2-.8.2-1.2,0-1.1-.6-2.3-.2-3.5-.4-.4,2.2-2.1,2.5-3.9,2.8-.2-.8,0-1.2.4-1.7h1.5c0-.6.2-1,0-1.6-.2-.4-.2-1,0-1.5.4-.7.3-1.4-.6-2-.4.9-1.3.5-2,.7-1-.6.4-1.6-.4-2.2-.7.4-1.2,1.3-2.2.8-.3,0-.5.2-.6.5-.3,1.5-.4,3,.4,4.5.2.5.3,1.1,0,1.4-.8.6-.6,1.4-.5,2.3-.8.5-2,.7-1.5,2.1,0,.2,0,.4-.4.6-.5.3-1,.5-1.6.4.2.6.7,1.2.6,1.9-.4,1-1.7.9-2.2,1.8l.6.6c-.2.4-.5.9-.4,1,.5.9,0,1.5-.4,2.2.9.5,1.8-.6,2.7,0,.2.5,0,1,0,1.5.4.4.9.8,1.5.9,1.1.2,2.4.3,3.2,1.3.2.3.6,0,1,0,1.2,0,2.4-.2,3.5.4.3,1.4.5,1.5,2,1.5s1.2-.3,1.7-1c.7-1,1.3-2.4,2.9-2.4s.2,0,.3-.2c.5-.5,1.2-.3,1.7-.2.5,0,1,.4.9,1,0,.7-.6.5-1,.5l-.2.2c.2.4.5.7,1,.7.9,0,1.8,0,2.8-.2.7-.2,1.4-.6,2.2-.4,1.6.5,2.9.3,4.3-.7.6-.4,1.6-1,2.2.2,0,0,.3,0,.5,0,1.1,0,2.2.2,3.3,0,0,0,.2,0,.4,0,.4-.2.7,0,1,.2.6.6,1.3.9,1.8,1.7.6-.4.8-.9.8-1.6h.3Z"/>
      <path class="st2" d="M95.5,88.2l.4-.5c-.2,0-.4,0-.5,0h-.5c-.8,0-1.1-.3-1.3-1.1-.2-1,0-2,0-3v-.6h0c0-.3,0-.4-.2-.5h0c0,0-.2-.2-.3-.3h0c0,0-.3,0-.4,0h0l-.8,5.3,3.6,1h0Z"/>
      <path class="st3" d="M78.7,89.7c0-.3,0-.5.2-.8,0,.2-.2.5-.2.8Z"/>
      <path class="st4" d="M183.5,28.6l-.2-.6h0c-1.4.5-2.4,1.6-3.6,2.5-1.2.8-2.3,1.8-3.1,3-.3.5-.2,1.3,0,1.9.2,1,0,1.3-.8,1.3-1.2,0-1.6.9-2.2,1.5-.3.3-.3.8,0,1.1.4.4.4.8.3,1.3.9.2,1.5-.2,1.6-1s.6-.9,1.2-.9,1.4,0,2.2-.3c.8-.4,1.3.5,2,.6,1.4-.5,2.2-1.4,2.2-3s0-.8.2-1.1c.4-.3.1-.6.1-1,0-.9-.6-1.7-.4-2.6,0-.5.1-.9.7-1h.2l-.6-.6v-1.1h.2Z"/>
      <path class="st0" d="M167.4,46.9c-.4.7.2,1,.5,1.5.4-.4.6,0,1,0,.3-.7,1.1-1.1,1.3-2.1.5.6,1.1.4,1.7.3.3-.7-.3-1.4,0-2.1.6-1.3,1-2.7,1.6-4,0,0,.2,0,.4,0,0-.5,0-.9-.3-1.3-.4-.3-.4-.8,0-1.1.6-.6,1-1.5,2.2-1.5s1-.3.8-1.3c-.1-.6-.3-1.4,0-1.9.8-1.2,2-2.2,3.1-3,1.2-.8,2.2-1.9,3.6-2.5h0c.1,0,.2-.2.4-.3.2-.2.5-.3.7-.5.2-.1.3-.2.5-.3h0c.2,0,.4-.2.6-.3.7-.2,1.5-.4,1.9-1.2-1.4-.7-1.8-1.7-1-3.5-.8-.1-1.5-.3-2.1.5-.1.2-.5.4-.7.3-1.2,0-2,.8-3,1.2-1.2.5-2.3,1.2-3.4,1.3-.9,1.6-1.6,3-2.8,3.9-1.3,1-3.1,1-4.7.8-1.1-.1-2,0-2.9.4-.6.3-1.2.5-2,.3,0,.2,0,.5-.3.4-.7-.4-1.1,0-1.8.3-1,.4-2.1.8-3,.2-1.6.3-2.9,1.4-4.5.3-.4-.3-.9-.2-1.2.4-.3.6-.7.7-1.2.7s-.6,0-.9.2c-.1,1.2,0,2.4-.7,3.4.7.4.8,1,.8,1.7s-.1,1.1.6,1.4c.8-1.9,1.5-2.2,3.4-1.8.6,0,1.2,0,1.8,0,.9,0,1.7.2,2.5.8.5-.7,1.3-.9,1.8-1.6.3-.4,1.2-.4,1.8-.5h1.9c0,.6.3,1.2-.2,2,1.8-.5,2.6.4,3.4,1.5.7,1.1.7,1.3-.3,2.1-.3.2-.5.5-1,.5,0,.4.5.5.5.9-.1.2-.3.4-.5.4-.6-.2-1,0-.8.6.2.7-.1,1.3,0,2,.2,0,.5.3.4.5h0Z"/>
      <path class="st7" d="M163.4,27h.1c.8,0,1.2.4,1,1.1-.2.9.1,1.7.2,2.5.7.2,1.4,0,2-.3.9-.5,1.8-.5,2.9-.4,1.6.2,3.4.2,4.7-.8,1.1-.9,2-2.3,2.8-3.9,1.1,0,2.2-.8,3.4-1.3,1-.4,1.8-1.3,3-1.2.2,0,.6-.2.7-.3.6-.8,1.3-.6,2.1-.5-.8,1.8-.4,2.8,1,3.5-.3.8-1.2,1-1.9,1.2-.2,0-.4.2-.6.3h0c-.2,0-.3.2-.5.3-.2.2-.5.3-.7.5-.1.1-.2.3-.4.3l.2.6v1.1l.6.6c.4-.1.6-.5.9-.7.2-.2.3-.3.5-.5.9-.9,1.8-1.9,2.8-2.8,1.2-1.2,3.2-1.3,4.5-.4.6.4.9,0,1.1-.4-1.4-1.3-1.5-1.8-.4-3.4.2-.3.4-.5.6-.8.3-.4.6-.8.7-1.3,0-.3,0-.7-.1-1.1-.4-.8-1.2-.7-1.9-.7-1.4,0-2.8-.5-4.2,0,0-1.1,1.1-1.5,1.1-2.3s-.7-1.4-1.4-1.9c-.4,0-.5.7-1,.4-.3-.5.1-.9.4-1.3-.1-.3-.4-.5-.5-.8-.3-.6-.9-.7-1.4-.3-1.2.9-2.6,1.6-3.4,3.1-.8-1-1.9-.6-2.8-.9-1.8-.6-2.8-.2-3.7,1.5-.8,1.4-1.8,2.4-3.4,2.6-.8.1-1.4.5-1.6,1.5-.1.6-.5,1.1-1.2,1.3-.9.2-1.5,1-1.8,1.8-.5,1.3-1,1.7-2.5,1.6-.3,0-.5,0-.8.3-.4.3-.8.6-1.2.8-.2-.1-.4-.3-.6-.5s-.4-.3-.7-.3c-.7,2-.6,2.2,1.5,2.4h0v-.2Z"/>
      <path class="st7" d="M152,33c-.5-.4-1.3,0-1.8-.4-.5-.5-1.1-.4-1.7-.3-.8.2-1.9-.4-2.2-1.1-.2-.5-.2-1.1-.4-1.5h-.4l-1.5,1.4h-1.6l-1.4-1c0,.4-.3.8-.4,1.1,1,.9,1.4,2,1.2,3.3,1,.7.3,1.7.4,2.5,1.2,0,1.4-1.2,1.9-1.8,1.1,0,.4,1.6,1.6,1.5.6-.4.9-1.1,1.3-1.6.2.3.4.7.5,1,.5,1.3,1.7,1.9,2.7,1.4.5-.2.4-.9,1-1.1.6-1.1.5-2.3.7-3.4h0Z"/>
      <path class="st3" d="M141.4,27.5c-.1.2-.2.4-.3.6-.1.4-.2.9,0,1.2.1.2.1.4.1.6l1.4,1h1.6l1.5-1.4h.4c0-.2,0-.3-.1-.4-.4-.8-.3-1.4,0-2.1v-.5c.4-1.5,0-1.9-1.9-2.3-.3.2-.5.4-.6.6-.6.5-.8.5-1.9.7.4.6.4,1.2,0,1.9h-.2Z"/>
      <path class="st7" d="M64.1,129.1c0,.5.4.9.7,1.1,1.1.8,2,1.9,3.5,2,.9,0,1.4.9,2,1.6.4-.1.7.2,1,.3.7.3,1.3.3,1.8-.3.8-.9,1.9-.4,2.9-.5.5,0,.9,0,1.2-.5.2-.4.5-.6.9-.8s.8-.5.6-1.2c-.4-.2-.9-.3-1.2-.8.2-.6.8-1,.5-1.8-.2-.5.2-.9.5-1,.6-.3,1-.8,1.4-1.3.9.2,1.9.5,2.7.7.6-1,1.6-1.6,1.9-2.8-.6-.3-1.2-.8-1.1-1.6,0-.7-.5-.8-.9-.9-.9-.2-1-.8-.9-1.5-1.5-1.1-2.6-.2-3.9.5-1-1.6-2.3-.3-3.7-.4,1.1-.8-.6-1.7.3-2.5,1.6,1.2,2.4,1,3-.4-1-.5-2-.5-3.1-.5-.4-.6-.4-1.4-1.1-1.9-.4-.3-.3-.8,0-1.2.4-.5.6-1,0-1.6.8-.4,1.7,0,2.3-.5.5-1.1-.9-1.7-.6-2.8.3-.9,0-2,.7-2.8.8-.3,1.7.2,2.4-.4-.3-.8.4-1.3.6-1.9-.2-.5-.8-.2-.9-.5.3-2,.3-3.8,0-5.8.3-.5.7-1.1,1.3-1.6-.4-.4-.7-.8-1-1.1,1.2-1.1,1-2.5.8-3.9,0-.3,0-.5,0-.8,0-.2-.9-1.1-1.6-1s-19.1,9.6-19.3,10.5-.8,7.2-.8,7.2c0,0,.9,5.3.3,7.2.3.4.5.9.9,1.2-.2.3-.4.5-.4.7.4,1,.4,2.1,1.1,3,.6.8.7,1.8.7,2.8,0,2,.4,4,1.3,5.8,1.5,0,2.8.8,3.1,2.1h.2Z"/>
      <path class="st2" d="M58.2,110.2s-.7-.3-.2-.9l.6-.6-.4-.6v-1.5h-1.1v-.2h0l-1.3-.8h-2.2s0,.3.2.4c.6,1.4.9,2.9,1.4,4.3.3.7.5,1.2,1.3,1.4,0,0,.2.2.3.2,0,.3-.4.3-.2.7.4,0,.6.4.9.8.5-1.9.6-1.9.6-1.9l.3-1.5h0l-.2.2Z"/>
      <path class="st3" d="M53.1,105.2h0c0,0,.2.2.3.4l.3-.6-.6.2Z"/>
      <path class="st3" d="M57,106.5h0l.5-.8,1,.4v-.6l.6-1v-1c0,0,0-1,0-1h-.6s0-.6.3-1.5,1.8-.6,1.8-.6l1-1,1-.4.6-.6.8.6h1l.3-.8s1.3.6,2,0-.4-2.3,0-2.8,1.8.4,2.3.5,1.6-.4,1.6-.4l.6-1.1h1.2l.4-.9.3-.5s.6,0,.6-.8,0,0,.8-.2,0,0,.3,0,.4-.4,1-1.1.7-1.6,1.3-1.7,1,.5,1,.5c0-.3,0-.5.2-.8h0c0,0,0-.2.2-.3h0c0,0,.2-.2.3-.3.9-.7,1.3-1.6.9-2.7-.3-.8.4-1.3.7-1.9.5,0,1.1.6,1.4,0,.4-.6,1.1-1.2.9-2.1-.2-.5-.4-.9,0-1.4.6.2,1.2.6,1.9.5.6,0,.8.3,1.1.7.6.8,1.4,1.1,2.5,1,1,0,2,0,3-.2h.6c.2,0,.3,0,.4,0h0c0,0,.2.2.3.3h0c0,0,0,.3.2.4h0v.7c0,1-.3,1.9,0,3,.2.8.5,1.1,1.3,1.1h.5c.2,0,.4,0,.5,0l.2-.3v-.6c0-.6.2-.6.2-.6l.3-.6c.3-.6,0-.8,0-.8,0,0,.4-1.1.9-1.5s1.6-.2,2-1-1.2-1.3-1.2-1.3v-.7l-.7-.3c-.6-.3-.2-.8-.2-.8l.2-.3c.2-.3,0-.7,0-.7l-.4-.6c-.4-.6.9-.9.9-.9v-.7l-.4-.6v-.6c0,0,.4-.6.4-.6.3-.6-.4-1.3-.4-1.3l-.4-.6v-1l.4-.6c-.4-.7-1.2-1-1.8-1.7-.3-.3-.6-.4-1-.2,0,0-.2,0-.4,0-1.1.3-2.2,0-3.3,0s-.4,0-.5,0c-.6-1.2-1.6-.7-2.2-.2-1.4,1-2.7,1.2-4.3.7-.7-.2-1.5.2-2.2.4-.9.2-1.8,0-2.8.2-.5,0-.8-.3-1-.7,0,0,.2-.2.2-.2.4,0,1,.2,1-.5s-.4-.9-.9-1c-.6,0-1.2-.2-1.7.2,0,0-.2.2-.3.2-1.6,0-2.2,1.4-2.9,2.4-.5.7-.9,1-1.7,1-1.5,0-1.7,0-2-1.5-1.1-.6-2.3-.5-3.5-.4-.4,0-.8,0-1,0-.9-1-2.1-1.1-3.2-1.3-.6,0-1.1-.4-1.5-.9,0-.5.3-1,0-1.5-.9-.5-1.8.6-2.7,0-.6,0-1.1.4-1.4.9-.3.5-.4,1,0,1.5.7.8.6,1.5-.2,2.1-.3.2-.6.3-.9.5,1.5,2.1,1.4,2.3-.5,3.7-.4,0-.5-.5-.9-.5-.6.2-.5.7-.6,1.1,0,.8-.2,1.6-1.1,1.9-1.5.5-2.1,0-2.3-1.5-.2.3-.5.5-.6.9-.3,1.7-.6,3.3-.4,5.1.4,2.4.7,4.8.7,7.3s0,1.6.5,2.4c1.1,2.6,1.6,5.3,1.4,8.1,0,2,0,4.1,1.1,5.6,0,0,.2.2.2.4l.6-.2-.3.6h2.2l1.3.9h.4Z"/>
    </g>
  </g>
</svg>