<?xml version="1.0" encoding="UTF-8"?><svg id="Layer_2" xmlns="http://www.w3.org/2000/svg" viewBox="0 0 391.3 562.34"><defs><style>.cls-1{stroke-width:0px;}</style></defs><path class="cls-1" d="m370.27,267.65c-.28-.59-.59-1.16-.93-1.72L211.59,9.04c-3.39-5.51-9.28-9.04-15.73-9.04-.14,0-.28,0-.41,0-4.08.1-7.89,1.45-10.96,3.83-1.88,1.39-3.51,3.15-4.77,5.2L21.97,265.93c-.34.56-.65,1.13-.93,1.71-9.79,20.5-39.08,93.52-4.96,172.49,19.19,44.42,61.66,94.8,124.71,114.09,16.59,5.07,34.57,8.02,53.96,8.11h.87c28.59,0,54.83-6.56,78.15-17.48,48.1-22.53,83.72-63.69,101.46-104.71,34.11-78.9,4.83-151.97-4.96-172.49Zm-29.13,157.74c-15.81,36.58-48.83,73.3-93.31,90.19-18.44-18.65-37.24-37.54-39.22-63.53-.31-4.26.48-9.37,1.67-13.54,5.83-19.42,20.17-37.19,31.51-58.17,27.51-46.24,27.46-99.17-5.62-142.88-12.17-16.51-22.42-25.86-31.29-41.62-13.83-25.16-13.08-54.82-6.09-82.54,1.04-3.5-3.73-5.91-6.04-3.21-17.23,19.7-29.23,46.17-30.1,75.98-.58,14.97,2.54,30.29,7.59,44.41,7.84,22.6,20.56,41.42,20.56,62.71-.36,18.15-6.91,26.79-18.7,41.49-6.58,7.85-14.47,16.57-23.45,27.45-21.09,24.08-39.35,60.99-39.24,95.38-.43,15.2,1.79,29.9,5.93,43.95-30.3-19.25-52.94-47.74-65.17-76.05-27.46-63.54-4.47-122.88,3.98-140.9L195.65,54.05l141.51,230.45c8.45,18.03,31.43,77.42,3.98,140.89Z"/></svg>