<svg width="16" height="22" viewBox="0 0 16 22" fill="none" xmlns="http://www.w3.org/2000/svg">
<path d="M0 8.09399C3.86258e-07 3.6238 3.58172 -3.90796e-07 8 0C12.4183 3.90797e-07 16 3.62381 16 8.094C16 12.5642 12.4183 16.188 8 16.188C3.58172 16.188 -3.86258e-07 12.5642 0 8.09399Z" fill="#FF0303"/>
<path d="M9.42575 20.4548C8.78541 21.4849 8.46524 22 8.00005 22C7.53485 22 7.21468 21.4849 6.57434 20.4548L1.85913 13.206C1.14176 12.0519 1.85913 12.0426 1.85913 12.0426L4.12063 11.6026L11.8795 11.6026L14.141 12.0426C14.141 12.0426 14.8584 12.0519 14.141 13.206L9.42575 20.4548Z" fill="#FF0303"/>
<path d="M3.36842 8.09399C3.36842 5.50599 5.44205 3.408 8 3.408C10.558 3.408 12.6316 5.50599 12.6316 8.094C12.6316 10.682 10.558 12.78 8 12.78C5.44205 12.78 3.36842 10.682 3.36842 8.09399Z" fill="white"/>
</svg>
